999
dxflib 2.0.4.8
  0
SECTION
  2
HEADER
  9
$ACADVER
  1
AC1009
  9
$DIMASZ
 40
2.5
  9
$DIMGAP
 40
0.625
  9
$DIMEXO
 40
0.625
  9
$DIMTXT
 40
2.5
  9
$DIMSTYLE
  2
Standard
  9
$PLIMMAX
 10
210.0
 20
297.0
  9
$PLIMMIN
 10
0.0
 20
0.0
  9
$DIMEXE
 40
1.25
  0
ENDSEC
  0
SECTION
  2
TABLES
  0
TABLE
  2
VPORT
 70
1
  0
VPORT
  2
*Active
 70
0
 10
0.0
 20
0.0
 11
1.0
 21
1.0
 12
286.3055555555554861
 22
148.5
 13
0.0
 23
0.0
 14
10.0
 24
10.0
 15
10.0
 25
10.0
 16
0.0
 26
0.0
 36
1.0
 17
0.0
 27
0.0
 37
0.0
 40
297.0
 41
1.92798353909465
 42
50.0
 43
0.0
 44
0.0
 50
0.0
 51
0.0
 71
0
 72
100
 73
1
 74
3
 75
1
 76
1
 77
0
 78
0
  0
ENDTAB
  0
TABLE
  2
LTYPE
 70
19
  0
LTYPE
  2
CONTINUOUS
 70
0
  3
Solid line
 72
65
 73
0
 40
0.0
  0
LTYPE
  2
DOT
 70
0
  3
Dot . . . . . . . . . . . . . . . . . . . . . .
 72
65
 73
2
 40
6.3499999999999996
 49
0.0
 49
-6.3499999999999996
  0
LTYPE
  2
DOT2
 70
0
  3
Dot (.5x) .....................................
 72
65
 73
2
 40
3.1749999999999998
 49
0.0
 49
-3.1749999999999998
  0
LTYPE
  2
DOTX2
 70
0
  3
Dot (2x) .  .  .  .  .  .  .  .  .  .  .  .  .
 72
65
 73
2
 40
12.6999999999999993
 49
0.0
 49
-12.6999999999999993
  0
LTYPE
  2
DASHED
 70
0
  3
Dashed __ __ __ __ __ __ __ __ __ __ __ __ __ _
 72
65
 73
2
 40
19.0500000000000007
 49
12.6999999999999993
 49
-6.3499999999999996
  0
LTYPE
  2
DASHED2
 70
0
  3
Dashed (.5x) _ _ _ _ _ _ _ _ _ _ _ _ _ _ _ _ _
 72
65
 73
2
 40
9.5250000000000004
 49
6.3499999999999996
 49
-3.1749999999999998
  0
LTYPE
  2
DASHEDX2
 70
0
  3
Dashed (2x) ____  ____  ____  ____  ____  ___
 72
65
 73
2
 40
38.1000000000000014
 49
25.3999999999999986
 49
-12.6999999999999993
  0
LTYPE
  2
DASHDOT
 70
0
  3
Dash dot __ . __ . __ . __ . __ . __ . __ . __
 72
65
 73
4
 40
25.3999999999999986
 49
12.6999999999999993
 49
-6.3499999999999996
 49
0.0
 49
-6.3499999999999996
  0
LTYPE
  2
DASHDOT2
 70
0
  3
Dash dot (.5x) _._._._._._._._._._._._._._._.
 72
65
 73
4
 40
12.6999999999999993
 49
6.3499999999999996
 49
-3.1749999999999998
 49
0.0
 49
-3.1749999999999998
  0
LTYPE
  2
DASHDOTX2
 70
0
  3
Dash dot (2x) ____  .  ____  .  ____  .  ___
 72
65
 73
4
 40
50.7999999999999972
 49
25.3999999999999986
 49
-12.6999999999999993
 49
0.0
 49
-12.6999999999999993
  0
LTYPE
  2
DIVIDE
 70
0
  3
Divide ____ . . ____ . . ____ . . ____ . . ____
 72
65
 73
6
 40
31.75
 49
12.6999999999999993
 49
-6.3499999999999996
 49
0.0
 49
-6.3499999999999996
 49
0.0
 49
-6.3499999999999996
  0
LTYPE
  2
DIVIDE2
 70
0
  3
Divide (.5x) __..__..__..__..__..__..__..__.._
 72
65
 73
6
 40
15.875
 49
6.3499999999999996
 49
-3.1749999999999998
 49
0.0
 49
-3.1749999999999998
 49
0.0
 49
-3.1749999999999998
  0
LTYPE
  2
DIVIDEX2
 70
0
  3
Divide (2x) ________  .  .  ________  .  .  _
 72
65
 73
6
 40
63.5
 49
25.3999999999999986
 49
-12.6999999999999993
 49
0.0
 49
-12.6999999999999993
 49
0.0
 49
-12.6999999999999993
  0
LTYPE
  2
CENTER
 70
0
  3
Center ____ _ ____ _ ____ _ ____ _ ____ _ ____
 72
65
 73
4
 40
50.7999999999999972
 49
31.75
 49
-6.3499999999999996
 49
6.3499999999999996
 49
-6.3499999999999996
  0
LTYPE
  2
CENTER2
 70
0
  3
Center (.5x) ___ _ ___ _ ___ _ ___ _ ___ _ ___
 72
65
 73
4
 40
28.5749999999999993
 49
19.0500000000000007
 49
-3.1749999999999998
 49
3.1749999999999998
 49
-3.1749999999999998
  0
LTYPE
  2
CENTERX2
 70
0
  3
Center (2x) ________  __  ________  __  _____
 72
65
 73
4
 40
101.5999999999999943
 49
63.5
 49
-12.6999999999999993
 49
12.6999999999999993
 49
-12.6999999999999993
  0
LTYPE
  2
BORDER
 70
0
  3
Border __ __ . __ __ . __ __ . __ __ . __ __ .
 72
65
 73
6
 40
44.4500000000000028
 49
12.6999999999999993
 49
-6.3499999999999996
 49
12.6999999999999993
 49
-6.3499999999999996
 49
0.0
 49
-6.3499999999999996
  0
LTYPE
  2
BORDER2
 70
0
  3
Border (.5x) __.__.__.__.__.__.__.__.__.__.__.
 72
65
 73
6
 40
22.2250000000000014
 49
6.3499999999999996
 49
-3.1749999999999998
 49
6.3499999999999996
 49
-3.1749999999999998
 49
0.0
 49
-3.1749999999999998
  0
LTYPE
  2
BORDERX2
 70
0
  3
Border (2x) ____  ____  .  ____  ____  .  ___
 72
65
 73
6
 40
88.9000000000000057
 49
25.3999999999999986
 49
-12.6999999999999993
 49
25.3999999999999986
 49
-12.6999999999999993
 49
0.0
 49
-12.6999999999999993
  0
ENDTAB
  0
TABLE
  2
LAYER
 70
1
  0
LAYER
  2
0
 70
0
 62
7
  6
CONTINUOUS
  0
ENDTAB
  0
TABLE
  2
STYLE
 70
1
  0
STYLE
  2
Standard
 70
0
 40
0.0
 41
0.75
 50
0.0
 71
0
 42
2.5
  3
txt
  4

  0
ENDTAB
  0
TABLE
  2
VIEW
 70
0
  0
ENDTAB
  0
TABLE
  2
UCS
 70
0
  0
ENDTAB
  0
TABLE
  2
APPID
 70
1
  0
APPID
  2
ACAD
 70
0
  0
ENDTAB
  0
TABLE
  2
DIMSTYLE
 70
1
  0
DIMSTYLE
  2
Standard
  3

  4

  5

  6

  7

 40
1.0
 41
2.5
 42
0.625
 43
3.75
 44
1.25
 45
0.0
 46
0.0
 47
0.0
 48
0.0
 70
0
 71
0
 72
0
 73
0
 74
0
 75
0
 76
0
 77
1
 78
8
140
2.5
141
2.5
142
0.0
143
0.03937007874016
144
1.0
145
0.0
146
1.0
147
0.625
170
0
171
3
172
1
173
0
174
0
175
0
176
0
177
0
178
0
  0
ENDTAB
  0
ENDSEC
  0
SECTION
  2
BLOCKS
  0
ENDSEC
  0
SECTION
  2
ENTITIES
  0
LINE
  8
0
 10
-6.0
 20
-6.0
 30
0.0
 11
-6.0
 21
6.0
 31
0.0
  0
LINE
  8
0
 10
-6.0
 20
6.0
 30
0.0
 11
6.0
 21
6.0
 31
0.0
  0
LINE
  8
0
 10
6.0
 20
6.0
 30
0.0
 11
6.0
 21
-6.0
 31
0.0
  0
LINE
  8
0
 10
6.0
 20
-6.0
 30
0.0
 11
-6.0
 21
-6.0
 31
0.0
  0
LINE
  8
0
 10
-5.633
 20
-5.5
 30
0.0
 11
-5.6319999999999997
 21
-5.4829999999999997
 31
0.0
  0
LINE
  8
0
 10
-5.6319999999999997
 20
-5.4829999999999997
 30
0.0
 11
-5.6289999999999996
 21
-5.4669999999999996
 31
0.0
  0
LINE
  8
0
 10
-5.6289999999999996
 20
-5.4669999999999996
 30
0.0
 11
-5.6239999999999997
 21
-5.4509999999999996
 31
0.0
  0
LINE
  8
0
 10
-5.6239999999999997
 20
-5.4509999999999996
 30
0.0
 11
-5.617
 21
-5.4359999999999999
 31
0.0
  0
LINE
  8
0
 10
-5.617
 20
-5.4359999999999999
 30
0.0
 11
-5.6079999999999997
 21
-5.4219999999999997
 31
0.0
  0
LINE
  8
0
 10
-5.6079999999999997
 20
-5.4219999999999997
 30
0.0
 11
-5.5970000000000004
 21
-5.4089999999999998
 31
0.0
  0
LINE
  8
0
 10
-5.5970000000000004
 20
-5.4089999999999998
 30
0.0
 11
-5.585
 21
-5.3979999999999997
 31
0.0
  0
LINE
  8
0
 10
-5.585
 20
-5.3979999999999997
 30
0.0
 11
-5.5709999999999997
 21
-5.3879999999999999
 31
0.0
  0
LINE
  8
0
 10
-5.5709999999999997
 20
-5.3879999999999999
 30
0.0
 11
-5.5570000000000004
 21
-5.3799999999999999
 31
0.0
  0
LINE
  8
0
 10
-5.5570000000000004
 20
-5.3799999999999999
 30
0.0
 11
-5.5410000000000004
 21
-5.3739999999999997
 31
0.0
  0
LINE
  8
0
 10
-5.5410000000000004
 20
-5.3739999999999997
 30
0.0
 11
-5.5250000000000004
 21
-5.3689999999999998
 31
0.0
  0
LINE
  8
0
 10
-5.5250000000000004
 20
-5.3689999999999998
 30
0.0
 11
-5.508
 21
-5.367
 31
0.0
  0
LINE
  8
0
 10
-5.508
 20
-5.367
 30
0.0
 11
-5.492
 21
-5.367
 31
0.0
  0
LINE
  8
0
 10
-5.492
 20
-5.367
 30
0.0
 11
-5.4749999999999996
 21
-5.3689999999999998
 31
0.0
  0
LINE
  8
0
 10
-5.4749999999999996
 20
-5.3689999999999998
 30
0.0
 11
-5.4589999999999996
 21
-5.3739999999999997
 31
0.0
  0
LINE
  8
0
 10
-5.4589999999999996
 20
-5.3739999999999997
 30
0.0
 11
-5.4429999999999996
 21
-5.3799999999999999
 31
0.0
  0
LINE
  8
0
 10
-5.4429999999999996
 20
-5.3799999999999999
 30
0.0
 11
-5.4290000000000003
 21
-5.3879999999999999
 31
0.0
  0
LINE
  8
0
 10
-5.4290000000000003
 20
-5.3879999999999999
 30
0.0
 11
-5.415
 21
-5.3979999999999997
 31
0.0
  0
LINE
  8
0
 10
-5.415
 20
-5.3979999999999997
 30
0.0
 11
-5.4029999999999996
 21
-5.4089999999999998
 31
0.0
  0
LINE
  8
0
 10
-5.4029999999999996
 20
-5.4089999999999998
 30
0.0
 11
-5.3920000000000003
 21
-5.4219999999999997
 31
0.0
  0
LINE
  8
0
 10
-5.3920000000000003
 20
-5.4219999999999997
 30
0.0
 11
-5.383
 21
-5.4359999999999999
 31
0.0
  0
LINE
  8
0
 10
-5.383
 20
-5.4359999999999999
 30
0.0
 11
-5.3760000000000003
 21
-5.4509999999999996
 31
0.0
  0
LINE
  8
0
 10
-5.3760000000000003
 20
-5.4509999999999996
 30
0.0
 11
-5.3710000000000004
 21
-5.4669999999999996
 31
0.0
  0
LINE
  8
0
 10
-5.3710000000000004
 20
-5.4669999999999996
 30
0.0
 11
-5.3680000000000003
 21
-5.4829999999999997
 31
0.0
  0
LINE
  8
0
 10
-5.3680000000000003
 20
-5.4829999999999997
 30
0.0
 11
-5.367
 21
-5.5
 31
0.0
  0
LINE
  8
0
 10
-5.367
 20
-5.5
 30
0.0
 11
-5.3680000000000003
 21
-5.5170000000000003
 31
0.0
  0
LINE
  8
0
 10
-5.3680000000000003
 20
-5.5170000000000003
 30
0.0
 11
-5.3710000000000004
 21
-5.5330000000000004
 31
0.0
  0
LINE
  8
0
 10
-5.3710000000000004
 20
-5.5330000000000004
 30
0.0
 11
-5.3760000000000003
 21
-5.5490000000000004
 31
0.0
  0
LINE
  8
0
 10
-5.3760000000000003
 20
-5.5490000000000004
 30
0.0
 11
-5.383
 21
-5.5640000000000001
 31
0.0
  0
LINE
  8
0
 10
-5.383
 20
-5.5640000000000001
 30
0.0
 11
-5.3920000000000003
 21
-5.5780000000000003
 31
0.0
  0
LINE
  8
0
 10
-5.3920000000000003
 20
-5.5780000000000003
 30
0.0
 11
-5.4029999999999996
 21
-5.5910000000000002
 31
0.0
  0
LINE
  8
0
 10
-5.4029999999999996
 20
-5.5910000000000002
 30
0.0
 11
-5.415
 21
-5.6020000000000003
 31
0.0
  0
LINE
  8
0
 10
-5.415
 20
-5.6020000000000003
 30
0.0
 11
-5.4290000000000003
 21
-5.6120000000000001
 31
0.0
  0
LINE
  8
0
 10
-5.4290000000000003
 20
-5.6120000000000001
 30
0.0
 11
-5.4429999999999996
 21
-5.6200000000000001
 31
0.0
  0
LINE
  8
0
 10
-5.4429999999999996
 20
-5.6200000000000001
 30
0.0
 11
-5.4589999999999996
 21
-5.6260000000000003
 31
0.0
  0
LINE
  8
0
 10
-5.4589999999999996
 20
-5.6260000000000003
 30
0.0
 11
-5.4749999999999996
 21
-5.6310000000000002
 31
0.0
  0
LINE
  8
0
 10
-5.4749999999999996
 20
-5.6310000000000002
 30
0.0
 11
-5.492
 21
-5.633
 31
0.0
  0
LINE
  8
0
 10
-5.492
 20
-5.633
 30
0.0
 11
-5.508
 21
-5.633
 31
0.0
  0
LINE
  8
0
 10
-5.508
 20
-5.633
 30
0.0
 11
-5.5250000000000004
 21
-5.6310000000000002
 31
0.0
  0
LINE
  8
0
 10
-5.5250000000000004
 20
-5.6310000000000002
 30
0.0
 11
-5.5410000000000004
 21
-5.6260000000000003
 31
0.0
  0
LINE
  8
0
 10
-5.5410000000000004
 20
-5.6260000000000003
 30
0.0
 11
-5.5570000000000004
 21
-5.6200000000000001
 31
0.0
  0
LINE
  8
0
 10
-5.5570000000000004
 20
-5.6200000000000001
 30
0.0
 11
-5.5709999999999997
 21
-5.6120000000000001
 31
0.0
  0
LINE
  8
0
 10
-5.5709999999999997
 20
-5.6120000000000001
 30
0.0
 11
-5.585
 21
-5.6020000000000003
 31
0.0
  0
LINE
  8
0
 10
-5.585
 20
-5.6020000000000003
 30
0.0
 11
-5.5970000000000004
 21
-5.5910000000000002
 31
0.0
  0
LINE
  8
0
 10
-5.5970000000000004
 20
-5.5910000000000002
 30
0.0
 11
-5.6079999999999997
 21
-5.5780000000000003
 31
0.0
  0
LINE
  8
0
 10
-5.6079999999999997
 20
-5.5780000000000003
 30
0.0
 11
-5.617
 21
-5.5640000000000001
 31
0.0
  0
LINE
  8
0
 10
-5.617
 20
-5.5640000000000001
 30
0.0
 11
-5.6239999999999997
 21
-5.5490000000000004
 31
0.0
  0
LINE
  8
0
 10
-5.6239999999999997
 20
-5.5490000000000004
 30
0.0
 11
-5.6289999999999996
 21
-5.5330000000000004
 31
0.0
  0
LINE
  8
0
 10
-5.6289999999999996
 20
-5.5330000000000004
 30
0.0
 11
-5.6319999999999997
 21
-5.5170000000000003
 31
0.0
  0
LINE
  8
0
 10
-5.6319999999999997
 20
-5.5170000000000003
 30
0.0
 11
-5.633
 21
-5.5
 31
0.0
  0
LINE
  8
0
 10
-5.633
 20
5.5
 30
0.0
 11
-5.6319999999999997
 21
5.5170000000000003
 31
0.0
  0
LINE
  8
0
 10
-5.6319999999999997
 20
5.5170000000000003
 30
0.0
 11
-5.6289999999999996
 21
5.5330000000000004
 31
0.0
  0
LINE
  8
0
 10
-5.6289999999999996
 20
5.5330000000000004
 30
0.0
 11
-5.6239999999999997
 21
5.5490000000000004
 31
0.0
  0
LINE
  8
0
 10
-5.6239999999999997
 20
5.5490000000000004
 30
0.0
 11
-5.617
 21
5.5640000000000001
 31
0.0
  0
LINE
  8
0
 10
-5.617
 20
5.5640000000000001
 30
0.0
 11
-5.6079999999999997
 21
5.5780000000000003
 31
0.0
  0
LINE
  8
0
 10
-5.6079999999999997
 20
5.5780000000000003
 30
0.0
 11
-5.5970000000000004
 21
5.5910000000000002
 31
0.0
  0
LINE
  8
0
 10
-5.5970000000000004
 20
5.5910000000000002
 30
0.0
 11
-5.585
 21
5.6020000000000003
 31
0.0
  0
LINE
  8
0
 10
-5.585
 20
5.6020000000000003
 30
0.0
 11
-5.5709999999999997
 21
5.6120000000000001
 31
0.0
  0
LINE
  8
0
 10
-5.5709999999999997
 20
5.6120000000000001
 30
0.0
 11
-5.5570000000000004
 21
5.6200000000000001
 31
0.0
  0
LINE
  8
0
 10
-5.5570000000000004
 20
5.6200000000000001
 30
0.0
 11
-5.5410000000000004
 21
5.6260000000000003
 31
0.0
  0
LINE
  8
0
 10
-5.5410000000000004
 20
5.6260000000000003
 30
0.0
 11
-5.5250000000000004
 21
5.6310000000000002
 31
0.0
  0
LINE
  8
0
 10
-5.5250000000000004
 20
5.6310000000000002
 30
0.0
 11
-5.508
 21
5.633
 31
0.0
  0
LINE
  8
0
 10
-5.508
 20
5.633
 30
0.0
 11
-5.492
 21
5.633
 31
0.0
  0
LINE
  8
0
 10
-5.492
 20
5.633
 30
0.0
 11
-5.4749999999999996
 21
5.6310000000000002
 31
0.0
  0
LINE
  8
0
 10
-5.4749999999999996
 20
5.6310000000000002
 30
0.0
 11
-5.4589999999999996
 21
5.6260000000000003
 31
0.0
  0
LINE
  8
0
 10
-5.4589999999999996
 20
5.6260000000000003
 30
0.0
 11
-5.4429999999999996
 21
5.6200000000000001
 31
0.0
  0
LINE
  8
0
 10
-5.4429999999999996
 20
5.6200000000000001
 30
0.0
 11
-5.4290000000000003
 21
5.6120000000000001
 31
0.0
  0
LINE
  8
0
 10
-5.4290000000000003
 20
5.6120000000000001
 30
0.0
 11
-5.415
 21
5.6020000000000003
 31
0.0
  0
LINE
  8
0
 10
-5.415
 20
5.6020000000000003
 30
0.0
 11
-5.4029999999999996
 21
5.5910000000000002
 31
0.0
  0
LINE
  8
0
 10
-5.4029999999999996
 20
5.5910000000000002
 30
0.0
 11
-5.3920000000000003
 21
5.5780000000000003
 31
0.0
  0
LINE
  8
0
 10
-5.3920000000000003
 20
5.5780000000000003
 30
0.0
 11
-5.383
 21
5.5640000000000001
 31
0.0
  0
LINE
  8
0
 10
-5.383
 20
5.5640000000000001
 30
0.0
 11
-5.3760000000000003
 21
5.5490000000000004
 31
0.0
  0
LINE
  8
0
 10
-5.3760000000000003
 20
5.5490000000000004
 30
0.0
 11
-5.3710000000000004
 21
5.5330000000000004
 31
0.0
  0
LINE
  8
0
 10
-5.3710000000000004
 20
5.5330000000000004
 30
0.0
 11
-5.3680000000000003
 21
5.5170000000000003
 31
0.0
  0
LINE
  8
0
 10
-5.3680000000000003
 20
5.5170000000000003
 30
0.0
 11
-5.367
 21
5.5
 31
0.0
  0
LINE
  8
0
 10
-5.367
 20
5.5
 30
0.0
 11
-5.3680000000000003
 21
5.4829999999999997
 31
0.0
  0
LINE
  8
0
 10
-5.3680000000000003
 20
5.4829999999999997
 30
0.0
 11
-5.3710000000000004
 21
5.4669999999999996
 31
0.0
  0
LINE
  8
0
 10
-5.3710000000000004
 20
5.4669999999999996
 30
0.0
 11
-5.3760000000000003
 21
5.4509999999999996
 31
0.0
  0
LINE
  8
0
 10
-5.3760000000000003
 20
5.4509999999999996
 30
0.0
 11
-5.383
 21
5.4359999999999999
 31
0.0
  0
LINE
  8
0
 10
-5.383
 20
5.4359999999999999
 30
0.0
 11
-5.3920000000000003
 21
5.4219999999999997
 31
0.0
  0
LINE
  8
0
 10
-5.3920000000000003
 20
5.4219999999999997
 30
0.0
 11
-5.4029999999999996
 21
5.4089999999999998
 31
0.0
  0
LINE
  8
0
 10
-5.4029999999999996
 20
5.4089999999999998
 30
0.0
 11
-5.415
 21
5.3979999999999997
 31
0.0
  0
LINE
  8
0
 10
-5.415
 20
5.3979999999999997
 30
0.0
 11
-5.4290000000000003
 21
5.3879999999999999
 31
0.0
  0
LINE
  8
0
 10
-5.4290000000000003
 20
5.3879999999999999
 30
0.0
 11
-5.4429999999999996
 21
5.3799999999999999
 31
0.0
  0
LINE
  8
0
 10
-5.4429999999999996
 20
5.3799999999999999
 30
0.0
 11
-5.4589999999999996
 21
5.3739999999999997
 31
0.0
  0
LINE
  8
0
 10
-5.4589999999999996
 20
5.3739999999999997
 30
0.0
 11
-5.4749999999999996
 21
5.3689999999999998
 31
0.0
  0
LINE
  8
0
 10
-5.4749999999999996
 20
5.3689999999999998
 30
0.0
 11
-5.492
 21
5.367
 31
0.0
  0
LINE
  8
0
 10
-5.492
 20
5.367
 30
0.0
 11
-5.508
 21
5.367
 31
0.0
  0
LINE
  8
0
 10
-5.508
 20
5.367
 30
0.0
 11
-5.5250000000000004
 21
5.3689999999999998
 31
0.0
  0
LINE
  8
0
 10
-5.5250000000000004
 20
5.3689999999999998
 30
0.0
 11
-5.5410000000000004
 21
5.3739999999999997
 31
0.0
  0
LINE
  8
0
 10
-5.5410000000000004
 20
5.3739999999999997
 30
0.0
 11
-5.5570000000000004
 21
5.3799999999999999
 31
0.0
  0
LINE
  8
0
 10
-5.5570000000000004
 20
5.3799999999999999
 30
0.0
 11
-5.5709999999999997
 21
5.3879999999999999
 31
0.0
  0
LINE
  8
0
 10
-5.5709999999999997
 20
5.3879999999999999
 30
0.0
 11
-5.585
 21
5.3979999999999997
 31
0.0
  0
LINE
  8
0
 10
-5.585
 20
5.3979999999999997
 30
0.0
 11
-5.5970000000000004
 21
5.4089999999999998
 31
0.0
  0
LINE
  8
0
 10
-5.5970000000000004
 20
5.4089999999999998
 30
0.0
 11
-5.6079999999999997
 21
5.4219999999999997
 31
0.0
  0
LINE
  8
0
 10
-5.6079999999999997
 20
5.4219999999999997
 30
0.0
 11
-5.617
 21
5.4359999999999999
 31
0.0
  0
LINE
  8
0
 10
-5.617
 20
5.4359999999999999
 30
0.0
 11
-5.6239999999999997
 21
5.4509999999999996
 31
0.0
  0
LINE
  8
0
 10
-5.6239999999999997
 20
5.4509999999999996
 30
0.0
 11
-5.6289999999999996
 21
5.4669999999999996
 31
0.0
  0
LINE
  8
0
 10
-5.6289999999999996
 20
5.4669999999999996
 30
0.0
 11
-5.6319999999999997
 21
5.4829999999999997
 31
0.0
  0
LINE
  8
0
 10
-5.6319999999999997
 20
5.4829999999999997
 30
0.0
 11
-5.633
 21
5.5
 31
0.0
  0
LINE
  8
0
 10
-5.5789999999999997
 20
-4.5099999999999998
 30
0.0
 11
-5.5789999999999997
 21
-4.4900000000000002
 31
0.0
  0
LINE
  8
0
 10
-5.5789999999999997
 20
-4.4900000000000002
 30
0.0
 11
-5.577
 21
-4.4800000000000004
 31
0.0
  0
LINE
  8
0
 10
-5.577
 20
-4.4800000000000004
 30
0.0
 11
-5.5739999999999998
 21
-4.4710000000000001
 31
0.0
  0
LINE
  8
0
 10
-5.5739999999999998
 20
-4.4710000000000001
 30
0.0
 11
-5.5700000000000003
 21
-4.4619999999999997
 31
0.0
  0
LINE
  8
0
 10
-5.5700000000000003
 20
-4.4619999999999997
 30
0.0
 11
-5.5640000000000001
 21
-4.4530000000000003
 31
0.0
  0
LINE
  8
0
 10
-5.5640000000000001
 20
-4.4530000000000003
 30
0.0
 11
-5.5579999999999998
 21
-4.4459999999999997
 31
0.0
  0
LINE
  8
0
 10
-5.5579999999999998
 20
-4.4459999999999997
 30
0.0
 11
-5.5510000000000002
 21
-4.4390000000000001
 31
0.0
  0
LINE
  8
0
 10
-5.5510000000000002
 20
-4.4390000000000001
 30
0.0
 11
-5.5430000000000001
 21
-4.4329999999999998
 31
0.0
  0
LINE
  8
0
 10
-5.5430000000000001
 20
-4.4329999999999998
 30
0.0
 11
-5.5339999999999998
 21
-4.4279999999999999
 31
0.0
  0
LINE
  8
0
 10
-5.5339999999999998
 20
-4.4279999999999999
 30
0.0
 11
-5.5250000000000004
 21
-4.4240000000000004
 31
0.0
  0
LINE
  8
0
 10
-5.5250000000000004
 20
-4.4240000000000004
 30
0.0
 11
-5.5149999999999997
 21
-4.4219999999999997
 31
0.0
  0
LINE
  8
0
 10
-5.5149999999999997
 20
-4.4219999999999997
 30
0.0
 11
-5.5049999999999999
 21
-4.4210000000000003
 31
0.0
  0
LINE
  8
0
 10
-5.5049999999999999
 20
-4.4210000000000003
 30
0.0
 11
-5.4950000000000001
 21
-4.4210000000000003
 31
0.0
  0
LINE
  8
0
 10
-5.4950000000000001
 20
-4.4210000000000003
 30
0.0
 11
-5.4850000000000003
 21
-4.4219999999999997
 31
0.0
  0
LINE
  8
0
 10
-5.4850000000000003
 20
-4.4219999999999997
 30
0.0
 11
-5.4749999999999996
 21
-4.4240000000000004
 31
0.0
  0
LINE
  8
0
 10
-5.4749999999999996
 20
-4.4240000000000004
 30
0.0
 11
-5.4660000000000002
 21
-4.4279999999999999
 31
0.0
  0
LINE
  8
0
 10
-5.4660000000000002
 20
-4.4279999999999999
 30
0.0
 11
-5.4569999999999999
 21
-4.4329999999999998
 31
0.0
  0
LINE
  8
0
 10
-5.4569999999999999
 20
-4.4329999999999998
 30
0.0
 11
-5.4489999999999998
 21
-4.4390000000000001
 31
0.0
  0
LINE
  8
0
 10
-5.4489999999999998
 20
-4.4390000000000001
 30
0.0
 11
-5.4420000000000002
 21
-4.4459999999999997
 31
0.0
  0
LINE
  8
0
 10
-5.4420000000000002
 20
-4.4459999999999997
 30
0.0
 11
-5.4359999999999999
 21
-4.4530000000000003
 31
0.0
  0
LINE
  8
0
 10
-5.4359999999999999
 20
-4.4530000000000003
 30
0.0
 11
-5.4299999999999997
 21
-4.4619999999999997
 31
0.0
  0
LINE
  8
0
 10
-5.4299999999999997
 20
-4.4619999999999997
 30
0.0
 11
-5.4260000000000002
 21
-4.4710000000000001
 31
0.0
  0
LINE
  8
0
 10
-5.4260000000000002
 20
-4.4710000000000001
 30
0.0
 11
-5.423
 21
-4.4800000000000004
 31
0.0
  0
LINE
  8
0
 10
-5.423
 20
-4.4800000000000004
 30
0.0
 11
-5.4210000000000003
 21
-4.4900000000000002
 31
0.0
  0
LINE
  8
0
 10
-5.4210000000000003
 20
-4.4900000000000002
 30
0.0
 11
-5.4199999999999999
 21
-4.5
 31
0.0
  0
LINE
  8
0
 10
-5.4199999999999999
 20
-4.5
 30
0.0
 11
-5.4210000000000003
 21
-4.5099999999999998
 31
0.0
  0
LINE
  8
0
 10
-5.4210000000000003
 20
-4.5099999999999998
 30
0.0
 11
-5.423
 21
-4.5199999999999996
 31
0.0
  0
LINE
  8
0
 10
-5.423
 20
-4.5199999999999996
 30
0.0
 11
-5.4260000000000002
 21
-4.5289999999999999
 31
0.0
  0
LINE
  8
0
 10
-5.4260000000000002
 20
-4.5289999999999999
 30
0.0
 11
-5.4299999999999997
 21
-4.5380000000000003
 31
0.0
  0
LINE
  8
0
 10
-5.4299999999999997
 20
-4.5380000000000003
 30
0.0
 11
-5.4359999999999999
 21
-4.5469999999999997
 31
0.0
  0
LINE
  8
0
 10
-5.4359999999999999
 20
-4.5469999999999997
 30
0.0
 11
-5.4420000000000002
 21
-4.5540000000000003
 31
0.0
  0
LINE
  8
0
 10
-5.4420000000000002
 20
-4.5540000000000003
 30
0.0
 11
-5.4489999999999998
 21
-4.5609999999999999
 31
0.0
  0
LINE
  8
0
 10
-5.4489999999999998
 20
-4.5609999999999999
 30
0.0
 11
-5.4569999999999999
 21
-4.5670000000000002
 31
0.0
  0
LINE
  8
0
 10
-5.4569999999999999
 20
-4.5670000000000002
 30
0.0
 11
-5.4660000000000002
 21
-4.5720000000000001
 31
0.0
  0
LINE
  8
0
 10
-5.4660000000000002
 20
-4.5720000000000001
 30
0.0
 11
-5.4749999999999996
 21
-4.5759999999999996
 31
0.0
  0
LINE
  8
0
 10
-5.4749999999999996
 20
-4.5759999999999996
 30
0.0
 11
-5.4850000000000003
 21
-4.5780000000000003
 31
0.0
  0
LINE
  8
0
 10
-5.4850000000000003
 20
-4.5780000000000003
 30
0.0
 11
-5.4950000000000001
 21
-4.5789999999999997
 31
0.0
  0
LINE
  8
0
 10
-5.4950000000000001
 20
-4.5789999999999997
 30
0.0
 11
-5.5049999999999999
 21
-4.5789999999999997
 31
0.0
  0
LINE
  8
0
 10
-5.5049999999999999
 20
-4.5789999999999997
 30
0.0
 11
-5.5149999999999997
 21
-4.5780000000000003
 31
0.0
  0
LINE
  8
0
 10
-5.5149999999999997
 20
-4.5780000000000003
 30
0.0
 11
-5.5250000000000004
 21
-4.5759999999999996
 31
0.0
  0
LINE
  8
0
 10
-5.5250000000000004
 20
-4.5759999999999996
 30
0.0
 11
-5.5339999999999998
 21
-4.5720000000000001
 31
0.0
  0
LINE
  8
0
 10
-5.5339999999999998
 20
-4.5720000000000001
 30
0.0
 11
-5.5430000000000001
 21
-4.5670000000000002
 31
0.0
  0
LINE
  8
0
 10
-5.5430000000000001
 20
-4.5670000000000002
 30
0.0
 11
-5.5510000000000002
 21
-4.5609999999999999
 31
0.0
  0
LINE
  8
0
 10
-5.5510000000000002
 20
-4.5609999999999999
 30
0.0
 11
-5.5579999999999998
 21
-4.5540000000000003
 31
0.0
  0
LINE
  8
0
 10
-5.5579999999999998
 20
-4.5540000000000003
 30
0.0
 11
-5.5640000000000001
 21
-4.5469999999999997
 31
0.0
  0
LINE
  8
0
 10
-5.5640000000000001
 20
-4.5469999999999997
 30
0.0
 11
-5.5700000000000003
 21
-4.5380000000000003
 31
0.0
  0
LINE
  8
0
 10
-5.5700000000000003
 20
-4.5380000000000003
 30
0.0
 11
-5.5739999999999998
 21
-4.5289999999999999
 31
0.0
  0
LINE
  8
0
 10
-5.5739999999999998
 20
-4.5289999999999999
 30
0.0
 11
-5.577
 21
-4.5199999999999996
 31
0.0
  0
LINE
  8
0
 10
-5.577
 20
-4.5199999999999996
 30
0.0
 11
-5.5789999999999997
 21
-4.5099999999999998
 31
0.0
  0
LINE
  8
0
 10
-5.5789999999999997
 20
-2.2599999999999998
 30
0.0
 11
-5.5789999999999997
 21
-2.2400000000000002
 31
0.0
  0
LINE
  8
0
 10
-5.5789999999999997
 20
-2.2400000000000002
 30
0.0
 11
-5.577
 21
-2.23
 31
0.0
  0
LINE
  8
0
 10
-5.577
 20
-2.23
 30
0.0
 11
-5.5739999999999998
 21
-2.2210000000000001
 31
0.0
  0
LINE
  8
0
 10
-5.5739999999999998
 20
-2.2210000000000001
 30
0.0
 11
-5.5700000000000003
 21
-2.2120000000000002
 31
0.0
  0
LINE
  8
0
 10
-5.5700000000000003
 20
-2.2120000000000002
 30
0.0
 11
-5.5640000000000001
 21
-2.2029999999999998
 31
0.0
  0
LINE
  8
0
 10
-5.5640000000000001
 20
-2.2029999999999998
 30
0.0
 11
-5.5579999999999998
 21
-2.1960000000000002
 31
0.0
  0
LINE
  8
0
 10
-5.5579999999999998
 20
-2.1960000000000002
 30
0.0
 11
-5.5510000000000002
 21
-2.1890000000000001
 31
0.0
  0
LINE
  8
0
 10
-5.5510000000000002
 20
-2.1890000000000001
 30
0.0
 11
-5.5430000000000001
 21
-2.1829999999999998
 31
0.0
  0
LINE
  8
0
 10
-5.5430000000000001
 20
-2.1829999999999998
 30
0.0
 11
-5.5339999999999998
 21
-2.1779999999999999
 31
0.0
  0
LINE
  8
0
 10
-5.5339999999999998
 20
-2.1779999999999999
 30
0.0
 11
-5.5250000000000004
 21
-2.1739999999999999
 31
0.0
  0
LINE
  8
0
 10
-5.5250000000000004
 20
-2.1739999999999999
 30
0.0
 11
-5.5149999999999997
 21
-2.1720000000000002
 31
0.0
  0
LINE
  8
0
 10
-5.5149999999999997
 20
-2.1720000000000002
 30
0.0
 11
-5.5049999999999999
 21
-2.1709999999999998
 31
0.0
  0
LINE
  8
0
 10
-5.5049999999999999
 20
-2.1709999999999998
 30
0.0
 11
-5.4950000000000001
 21
-2.1709999999999998
 31
0.0
  0
LINE
  8
0
 10
-5.4950000000000001
 20
-2.1709999999999998
 30
0.0
 11
-5.4850000000000003
 21
-2.1720000000000002
 31
0.0
  0
LINE
  8
0
 10
-5.4850000000000003
 20
-2.1720000000000002
 30
0.0
 11
-5.4749999999999996
 21
-2.1739999999999999
 31
0.0
  0
LINE
  8
0
 10
-5.4749999999999996
 20
-2.1739999999999999
 30
0.0
 11
-5.4660000000000002
 21
-2.1779999999999999
 31
0.0
  0
LINE
  8
0
 10
-5.4660000000000002
 20
-2.1779999999999999
 30
0.0
 11
-5.4569999999999999
 21
-2.1829999999999998
 31
0.0
  0
LINE
  8
0
 10
-5.4569999999999999
 20
-2.1829999999999998
 30
0.0
 11
-5.4489999999999998
 21
-2.1890000000000001
 31
0.0
  0
LINE
  8
0
 10
-5.4489999999999998
 20
-2.1890000000000001
 30
0.0
 11
-5.4420000000000002
 21
-2.1960000000000002
 31
0.0
  0
LINE
  8
0
 10
-5.4420000000000002
 20
-2.1960000000000002
 30
0.0
 11
-5.4359999999999999
 21
-2.2029999999999998
 31
0.0
  0
LINE
  8
0
 10
-5.4359999999999999
 20
-2.2029999999999998
 30
0.0
 11
-5.4299999999999997
 21
-2.2120000000000002
 31
0.0
  0
LINE
  8
0
 10
-5.4299999999999997
 20
-2.2120000000000002
 30
0.0
 11
-5.4260000000000002
 21
-2.2210000000000001
 31
0.0
  0
LINE
  8
0
 10
-5.4260000000000002
 20
-2.2210000000000001
 30
0.0
 11
-5.423
 21
-2.23
 31
0.0
  0
LINE
  8
0
 10
-5.423
 20
-2.23
 30
0.0
 11
-5.4210000000000003
 21
-2.2400000000000002
 31
0.0
  0
LINE
  8
0
 10
-5.4210000000000003
 20
-2.2400000000000002
 30
0.0
 11
-5.4199999999999999
 21
-2.25
 31
0.0
  0
LINE
  8
0
 10
-5.4199999999999999
 20
-2.25
 30
0.0
 11
-5.4210000000000003
 21
-2.2599999999999998
 31
0.0
  0
LINE
  8
0
 10
-5.4210000000000003
 20
-2.2599999999999998
 30
0.0
 11
-5.423
 21
-2.27
 31
0.0
  0
LINE
  8
0
 10
-5.423
 20
-2.27
 30
0.0
 11
-5.4260000000000002
 21
-2.2789999999999999
 31
0.0
  0
LINE
  8
0
 10
-5.4260000000000002
 20
-2.2789999999999999
 30
0.0
 11
-5.4299999999999997
 21
-2.2879999999999998
 31
0.0
  0
LINE
  8
0
 10
-5.4299999999999997
 20
-2.2879999999999998
 30
0.0
 11
-5.4359999999999999
 21
-2.2970000000000002
 31
0.0
  0
LINE
  8
0
 10
-5.4359999999999999
 20
-2.2970000000000002
 30
0.0
 11
-5.4420000000000002
 21
-2.3039999999999998
 31
0.0
  0
LINE
  8
0
 10
-5.4420000000000002
 20
-2.3039999999999998
 30
0.0
 11
-5.4489999999999998
 21
-2.3109999999999999
 31
0.0
  0
LINE
  8
0
 10
-5.4489999999999998
 20
-2.3109999999999999
 30
0.0
 11
-5.4569999999999999
 21
-2.3170000000000002
 31
0.0
  0
LINE
  8
0
 10
-5.4569999999999999
 20
-2.3170000000000002
 30
0.0
 11
-5.4660000000000002
 21
-2.3220000000000001
 31
0.0
  0
LINE
  8
0
 10
-5.4660000000000002
 20
-2.3220000000000001
 30
0.0
 11
-5.4749999999999996
 21
-2.3260000000000001
 31
0.0
  0
LINE
  8
0
 10
-5.4749999999999996
 20
-2.3260000000000001
 30
0.0
 11
-5.4850000000000003
 21
-2.3279999999999998
 31
0.0
  0
LINE
  8
0
 10
-5.4850000000000003
 20
-2.3279999999999998
 30
0.0
 11
-5.4950000000000001
 21
-2.3290000000000002
 31
0.0
  0
LINE
  8
0
 10
-5.4950000000000001
 20
-2.3290000000000002
 30
0.0
 11
-5.5049999999999999
 21
-2.3290000000000002
 31
0.0
  0
LINE
  8
0
 10
-5.5049999999999999
 20
-2.3290000000000002
 30
0.0
 11
-5.5149999999999997
 21
-2.3279999999999998
 31
0.0
  0
LINE
  8
0
 10
-5.5149999999999997
 20
-2.3279999999999998
 30
0.0
 11
-5.5250000000000004
 21
-2.3260000000000001
 31
0.0
  0
LINE
  8
0
 10
-5.5250000000000004
 20
-2.3260000000000001
 30
0.0
 11
-5.5339999999999998
 21
-2.3220000000000001
 31
0.0
  0
LINE
  8
0
 10
-5.5339999999999998
 20
-2.3220000000000001
 30
0.0
 11
-5.5430000000000001
 21
-2.3170000000000002
 31
0.0
  0
LINE
  8
0
 10
-5.5430000000000001
 20
-2.3170000000000002
 30
0.0
 11
-5.5510000000000002
 21
-2.3109999999999999
 31
0.0
  0
LINE
  8
0
 10
-5.5510000000000002
 20
-2.3109999999999999
 30
0.0
 11
-5.5579999999999998
 21
-2.3039999999999998
 31
0.0
  0
LINE
  8
0
 10
-5.5579999999999998
 20
-2.3039999999999998
 30
0.0
 11
-5.5640000000000001
 21
-2.2970000000000002
 31
0.0
  0
LINE
  8
0
 10
-5.5640000000000001
 20
-2.2970000000000002
 30
0.0
 11
-5.5700000000000003
 21
-2.2879999999999998
 31
0.0
  0
LINE
  8
0
 10
-5.5700000000000003
 20
-2.2879999999999998
 30
0.0
 11
-5.5739999999999998
 21
-2.2789999999999999
 31
0.0
  0
LINE
  8
0
 10
-5.5739999999999998
 20
-2.2789999999999999
 30
0.0
 11
-5.577
 21
-2.27
 31
0.0
  0
LINE
  8
0
 10
-5.577
 20
-2.27
 30
0.0
 11
-5.5789999999999997
 21
-2.2599999999999998
 31
0.0
  0
LINE
  8
0
 10
-5.5789999999999997
 20
2.2400000000000002
 30
0.0
 11
-5.5789999999999997
 21
2.2599999999999998
 31
0.0
  0
LINE
  8
0
 10
-5.5789999999999997
 20
2.2599999999999998
 30
0.0
 11
-5.577
 21
2.27
 31
0.0
  0
LINE
  8
0
 10
-5.577
 20
2.27
 30
0.0
 11
-5.5739999999999998
 21
2.2789999999999999
 31
0.0
  0
LINE
  8
0
 10
-5.5739999999999998
 20
2.2789999999999999
 30
0.0
 11
-5.5700000000000003
 21
2.2879999999999998
 31
0.0
  0
LINE
  8
0
 10
-5.5700000000000003
 20
2.2879999999999998
 30
0.0
 11
-5.5640000000000001
 21
2.2970000000000002
 31
0.0
  0
LINE
  8
0
 10
-5.5640000000000001
 20
2.2970000000000002
 30
0.0
 11
-5.5579999999999998
 21
2.3039999999999998
 31
0.0
  0
LINE
  8
0
 10
-5.5579999999999998
 20
2.3039999999999998
 30
0.0
 11
-5.5510000000000002
 21
2.3109999999999999
 31
0.0
  0
LINE
  8
0
 10
-5.5510000000000002
 20
2.3109999999999999
 30
0.0
 11
-5.5430000000000001
 21
2.3170000000000002
 31
0.0
  0
LINE
  8
0
 10
-5.5430000000000001
 20
2.3170000000000002
 30
0.0
 11
-5.5339999999999998
 21
2.3220000000000001
 31
0.0
  0
LINE
  8
0
 10
-5.5339999999999998
 20
2.3220000000000001
 30
0.0
 11
-5.5250000000000004
 21
2.3260000000000001
 31
0.0
  0
LINE
  8
0
 10
-5.5250000000000004
 20
2.3260000000000001
 30
0.0
 11
-5.5149999999999997
 21
2.3279999999999998
 31
0.0
  0
LINE
  8
0
 10
-5.5149999999999997
 20
2.3279999999999998
 30
0.0
 11
-5.5049999999999999
 21
2.3290000000000002
 31
0.0
  0
LINE
  8
0
 10
-5.5049999999999999
 20
2.3290000000000002
 30
0.0
 11
-5.4950000000000001
 21
2.3290000000000002
 31
0.0
  0
LINE
  8
0
 10
-5.4950000000000001
 20
2.3290000000000002
 30
0.0
 11
-5.4850000000000003
 21
2.3279999999999998
 31
0.0
  0
LINE
  8
0
 10
-5.4850000000000003
 20
2.3279999999999998
 30
0.0
 11
-5.4749999999999996
 21
2.3260000000000001
 31
0.0
  0
LINE
  8
0
 10
-5.4749999999999996
 20
2.3260000000000001
 30
0.0
 11
-5.4660000000000002
 21
2.3220000000000001
 31
0.0
  0
LINE
  8
0
 10
-5.4660000000000002
 20
2.3220000000000001
 30
0.0
 11
-5.4569999999999999
 21
2.3170000000000002
 31
0.0
  0
LINE
  8
0
 10
-5.4569999999999999
 20
2.3170000000000002
 30
0.0
 11
-5.4489999999999998
 21
2.3109999999999999
 31
0.0
  0
LINE
  8
0
 10
-5.4489999999999998
 20
2.3109999999999999
 30
0.0
 11
-5.4420000000000002
 21
2.3039999999999998
 31
0.0
  0
LINE
  8
0
 10
-5.4420000000000002
 20
2.3039999999999998
 30
0.0
 11
-5.4359999999999999
 21
2.2970000000000002
 31
0.0
  0
LINE
  8
0
 10
-5.4359999999999999
 20
2.2970000000000002
 30
0.0
 11
-5.4299999999999997
 21
2.2879999999999998
 31
0.0
  0
LINE
  8
0
 10
-5.4299999999999997
 20
2.2879999999999998
 30
0.0
 11
-5.4260000000000002
 21
2.2789999999999999
 31
0.0
  0
LINE
  8
0
 10
-5.4260000000000002
 20
2.2789999999999999
 30
0.0
 11
-5.423
 21
2.27
 31
0.0
  0
LINE
  8
0
 10
-5.423
 20
2.27
 30
0.0
 11
-5.4210000000000003
 21
2.2599999999999998
 31
0.0
  0
LINE
  8
0
 10
-5.4210000000000003
 20
2.2599999999999998
 30
0.0
 11
-5.4199999999999999
 21
2.25
 31
0.0
  0
LINE
  8
0
 10
-5.4199999999999999
 20
2.25
 30
0.0
 11
-5.4210000000000003
 21
2.2400000000000002
 31
0.0
  0
LINE
  8
0
 10
-5.4210000000000003
 20
2.2400000000000002
 30
0.0
 11
-5.423
 21
2.23
 31
0.0
  0
LINE
  8
0
 10
-5.423
 20
2.23
 30
0.0
 11
-5.4260000000000002
 21
2.2210000000000001
 31
0.0
  0
LINE
  8
0
 10
-5.4260000000000002
 20
2.2210000000000001
 30
0.0
 11
-5.4299999999999997
 21
2.2120000000000002
 31
0.0
  0
LINE
  8
0
 10
-5.4299999999999997
 20
2.2120000000000002
 30
0.0
 11
-5.4359999999999999
 21
2.2029999999999998
 31
0.0
  0
LINE
  8
0
 10
-5.4359999999999999
 20
2.2029999999999998
 30
0.0
 11
-5.4420000000000002
 21
2.1960000000000002
 31
0.0
  0
LINE
  8
0
 10
-5.4420000000000002
 20
2.1960000000000002
 30
0.0
 11
-5.4489999999999998
 21
2.1890000000000001
 31
0.0
  0
LINE
  8
0
 10
-5.4489999999999998
 20
2.1890000000000001
 30
0.0
 11
-5.4569999999999999
 21
2.1829999999999998
 31
0.0
  0
LINE
  8
0
 10
-5.4569999999999999
 20
2.1829999999999998
 30
0.0
 11
-5.4660000000000002
 21
2.1779999999999999
 31
0.0
  0
LINE
  8
0
 10
-5.4660000000000002
 20
2.1779999999999999
 30
0.0
 11
-5.4749999999999996
 21
2.1739999999999999
 31
0.0
  0
LINE
  8
0
 10
-5.4749999999999996
 20
2.1739999999999999
 30
0.0
 11
-5.4850000000000003
 21
2.1720000000000002
 31
0.0
  0
LINE
  8
0
 10
-5.4850000000000003
 20
2.1720000000000002
 30
0.0
 11
-5.4950000000000001
 21
2.1709999999999998
 31
0.0
  0
LINE
  8
0
 10
-5.4950000000000001
 20
2.1709999999999998
 30
0.0
 11
-5.5049999999999999
 21
2.1709999999999998
 31
0.0
  0
LINE
  8
0
 10
-5.5049999999999999
 20
2.1709999999999998
 30
0.0
 11
-5.5149999999999997
 21
2.1720000000000002
 31
0.0
  0
LINE
  8
0
 10
-5.5149999999999997
 20
2.1720000000000002
 30
0.0
 11
-5.5250000000000004
 21
2.1739999999999999
 31
0.0
  0
LINE
  8
0
 10
-5.5250000000000004
 20
2.1739999999999999
 30
0.0
 11
-5.5339999999999998
 21
2.1779999999999999
 31
0.0
  0
LINE
  8
0
 10
-5.5339999999999998
 20
2.1779999999999999
 30
0.0
 11
-5.5430000000000001
 21
2.1829999999999998
 31
0.0
  0
LINE
  8
0
 10
-5.5430000000000001
 20
2.1829999999999998
 30
0.0
 11
-5.5510000000000002
 21
2.1890000000000001
 31
0.0
  0
LINE
  8
0
 10
-5.5510000000000002
 20
2.1890000000000001
 30
0.0
 11
-5.5579999999999998
 21
2.1960000000000002
 31
0.0
  0
LINE
  8
0
 10
-5.5579999999999998
 20
2.1960000000000002
 30
0.0
 11
-5.5640000000000001
 21
2.2029999999999998
 31
0.0
  0
LINE
  8
0
 10
-5.5640000000000001
 20
2.2029999999999998
 30
0.0
 11
-5.5700000000000003
 21
2.2120000000000002
 31
0.0
  0
LINE
  8
0
 10
-5.5700000000000003
 20
2.2120000000000002
 30
0.0
 11
-5.5739999999999998
 21
2.2210000000000001
 31
0.0
  0
LINE
  8
0
 10
-5.5739999999999998
 20
2.2210000000000001
 30
0.0
 11
-5.577
 21
2.23
 31
0.0
  0
LINE
  8
0
 10
-5.577
 20
2.23
 30
0.0
 11
-5.5789999999999997
 21
2.2400000000000002
 31
0.0
  0
LINE
  8
0
 10
-5.5789999999999997
 20
4.4900000000000002
 30
0.0
 11
-5.5789999999999997
 21
4.5099999999999998
 31
0.0
  0
LINE
  8
0
 10
-5.5789999999999997
 20
4.5099999999999998
 30
0.0
 11
-5.577
 21
4.5199999999999996
 31
0.0
  0
LINE
  8
0
 10
-5.577
 20
4.5199999999999996
 30
0.0
 11
-5.5739999999999998
 21
4.5289999999999999
 31
0.0
  0
LINE
  8
0
 10
-5.5739999999999998
 20
4.5289999999999999
 30
0.0
 11
-5.5700000000000003
 21
4.5380000000000003
 31
0.0
  0
LINE
  8
0
 10
-5.5700000000000003
 20
4.5380000000000003
 30
0.0
 11
-5.5640000000000001
 21
4.5469999999999997
 31
0.0
  0
LINE
  8
0
 10
-5.5640000000000001
 20
4.5469999999999997
 30
0.0
 11
-5.5579999999999998
 21
4.5540000000000003
 31
0.0
  0
LINE
  8
0
 10
-5.5579999999999998
 20
4.5540000000000003
 30
0.0
 11
-5.5510000000000002
 21
4.5609999999999999
 31
0.0
  0
LINE
  8
0
 10
-5.5510000000000002
 20
4.5609999999999999
 30
0.0
 11
-5.5430000000000001
 21
4.5670000000000002
 31
0.0
  0
LINE
  8
0
 10
-5.5430000000000001
 20
4.5670000000000002
 30
0.0
 11
-5.5339999999999998
 21
4.5720000000000001
 31
0.0
  0
LINE
  8
0
 10
-5.5339999999999998
 20
4.5720000000000001
 30
0.0
 11
-5.5250000000000004
 21
4.5759999999999996
 31
0.0
  0
LINE
  8
0
 10
-5.5250000000000004
 20
4.5759999999999996
 30
0.0
 11
-5.5149999999999997
 21
4.5780000000000003
 31
0.0
  0
LINE
  8
0
 10
-5.5149999999999997
 20
4.5780000000000003
 30
0.0
 11
-5.5049999999999999
 21
4.5789999999999997
 31
0.0
  0
LINE
  8
0
 10
-5.5049999999999999
 20
4.5789999999999997
 30
0.0
 11
-5.4950000000000001
 21
4.5789999999999997
 31
0.0
  0
LINE
  8
0
 10
-5.4950000000000001
 20
4.5789999999999997
 30
0.0
 11
-5.4850000000000003
 21
4.5780000000000003
 31
0.0
  0
LINE
  8
0
 10
-5.4850000000000003
 20
4.5780000000000003
 30
0.0
 11
-5.4749999999999996
 21
4.5759999999999996
 31
0.0
  0
LINE
  8
0
 10
-5.4749999999999996
 20
4.5759999999999996
 30
0.0
 11
-5.4660000000000002
 21
4.5720000000000001
 31
0.0
  0
LINE
  8
0
 10
-5.4660000000000002
 20
4.5720000000000001
 30
0.0
 11
-5.4569999999999999
 21
4.5670000000000002
 31
0.0
  0
LINE
  8
0
 10
-5.4569999999999999
 20
4.5670000000000002
 30
0.0
 11
-5.4489999999999998
 21
4.5609999999999999
 31
0.0
  0
LINE
  8
0
 10
-5.4489999999999998
 20
4.5609999999999999
 30
0.0
 11
-5.4420000000000002
 21
4.5540000000000003
 31
0.0
  0
LINE
  8
0
 10
-5.4420000000000002
 20
4.5540000000000003
 30
0.0
 11
-5.4359999999999999
 21
4.5469999999999997
 31
0.0
  0
LINE
  8
0
 10
-5.4359999999999999
 20
4.5469999999999997
 30
0.0
 11
-5.4299999999999997
 21
4.5380000000000003
 31
0.0
  0
LINE
  8
0
 10
-5.4299999999999997
 20
4.5380000000000003
 30
0.0
 11
-5.4260000000000002
 21
4.5289999999999999
 31
0.0
  0
LINE
  8
0
 10
-5.4260000000000002
 20
4.5289999999999999
 30
0.0
 11
-5.423
 21
4.5199999999999996
 31
0.0
  0
LINE
  8
0
 10
-5.423
 20
4.5199999999999996
 30
0.0
 11
-5.4210000000000003
 21
4.5099999999999998
 31
0.0
  0
LINE
  8
0
 10
-5.4210000000000003
 20
4.5099999999999998
 30
0.0
 11
-5.4199999999999999
 21
4.5
 31
0.0
  0
LINE
  8
0
 10
-5.4199999999999999
 20
4.5
 30
0.0
 11
-5.4210000000000003
 21
4.4900000000000002
 31
0.0
  0
LINE
  8
0
 10
-5.4210000000000003
 20
4.4900000000000002
 30
0.0
 11
-5.423
 21
4.4800000000000004
 31
0.0
  0
LINE
  8
0
 10
-5.423
 20
4.4800000000000004
 30
0.0
 11
-5.4260000000000002
 21
4.4710000000000001
 31
0.0
  0
LINE
  8
0
 10
-5.4260000000000002
 20
4.4710000000000001
 30
0.0
 11
-5.4299999999999997
 21
4.4619999999999997
 31
0.0
  0
LINE
  8
0
 10
-5.4299999999999997
 20
4.4619999999999997
 30
0.0
 11
-5.4359999999999999
 21
4.4530000000000003
 31
0.0
  0
LINE
  8
0
 10
-5.4359999999999999
 20
4.4530000000000003
 30
0.0
 11
-5.4420000000000002
 21
4.4459999999999997
 31
0.0
  0
LINE
  8
0
 10
-5.4420000000000002
 20
4.4459999999999997
 30
0.0
 11
-5.4489999999999998
 21
4.4390000000000001
 31
0.0
  0
LINE
  8
0
 10
-5.4489999999999998
 20
4.4390000000000001
 30
0.0
 11
-5.4569999999999999
 21
4.4329999999999998
 31
0.0
  0
LINE
  8
0
 10
-5.4569999999999999
 20
4.4329999999999998
 30
0.0
 11
-5.4660000000000002
 21
4.4279999999999999
 31
0.0
  0
LINE
  8
0
 10
-5.4660000000000002
 20
4.4279999999999999
 30
0.0
 11
-5.4749999999999996
 21
4.4240000000000004
 31
0.0
  0
LINE
  8
0
 10
-5.4749999999999996
 20
4.4240000000000004
 30
0.0
 11
-5.4850000000000003
 21
4.4219999999999997
 31
0.0
  0
LINE
  8
0
 10
-5.4850000000000003
 20
4.4219999999999997
 30
0.0
 11
-5.4950000000000001
 21
4.4210000000000003
 31
0.0
  0
LINE
  8
0
 10
-5.4950000000000001
 20
4.4210000000000003
 30
0.0
 11
-5.5049999999999999
 21
4.4210000000000003
 31
0.0
  0
LINE
  8
0
 10
-5.5049999999999999
 20
4.4210000000000003
 30
0.0
 11
-5.5149999999999997
 21
4.4219999999999997
 31
0.0
  0
LINE
  8
0
 10
-5.5149999999999997
 20
4.4219999999999997
 30
0.0
 11
-5.5250000000000004
 21
4.4240000000000004
 31
0.0
  0
LINE
  8
0
 10
-5.5250000000000004
 20
4.4240000000000004
 30
0.0
 11
-5.5339999999999998
 21
4.4279999999999999
 31
0.0
  0
LINE
  8
0
 10
-5.5339999999999998
 20
4.4279999999999999
 30
0.0
 11
-5.5430000000000001
 21
4.4329999999999998
 31
0.0
  0
LINE
  8
0
 10
-5.5430000000000001
 20
4.4329999999999998
 30
0.0
 11
-5.5510000000000002
 21
4.4390000000000001
 31
0.0
  0
LINE
  8
0
 10
-5.5510000000000002
 20
4.4390000000000001
 30
0.0
 11
-5.5579999999999998
 21
4.4459999999999997
 31
0.0
  0
LINE
  8
0
 10
-5.5579999999999998
 20
4.4459999999999997
 30
0.0
 11
-5.5640000000000001
 21
4.4530000000000003
 31
0.0
  0
LINE
  8
0
 10
-5.5640000000000001
 20
4.4530000000000003
 30
0.0
 11
-5.5700000000000003
 21
4.4619999999999997
 31
0.0
  0
LINE
  8
0
 10
-5.5700000000000003
 20
4.4619999999999997
 30
0.0
 11
-5.5739999999999998
 21
4.4710000000000001
 31
0.0
  0
LINE
  8
0
 10
-5.5739999999999998
 20
4.4710000000000001
 30
0.0
 11
-5.577
 21
4.4800000000000004
 31
0.0
  0
LINE
  8
0
 10
-5.577
 20
4.4800000000000004
 30
0.0
 11
-5.5789999999999997
 21
4.4900000000000002
 31
0.0
  0
LINE
  8
0
 10
-3.0
 20
0.0
 30
0.0
 11
-2.976
 21
0.376
 31
0.0
  0
LINE
  8
0
 10
-2.976
 20
0.376
 30
0.0
 11
-2.9060000000000001
 21
0.746
 31
0.0
  0
LINE
  8
0
 10
-2.9060000000000001
 20
0.746
 30
0.0
 11
-2.7890000000000001
 21
1.1040000000000001
 31
0.0
  0
LINE
  8
0
 10
-2.7890000000000001
 20
1.1040000000000001
 30
0.0
 11
-2.629
 21
1.4450000000000001
 31
0.0
  0
LINE
  8
0
 10
-2.629
 20
1.4450000000000001
 30
0.0
 11
-2.427
 21
1.7629999999999999
 31
0.0
  0
LINE
  8
0
 10
-2.427
 20
1.7629999999999999
 30
0.0
 11
-2.1869999999999998
 21
2.0539999999999998
 31
0.0
  0
LINE
  8
0
 10
-2.1869999999999998
 20
2.0539999999999998
 30
0.0
 11
-1.9119999999999999
 21
2.3119999999999998
 31
0.0
  0
LINE
  8
0
 10
-1.9119999999999999
 20
2.3119999999999998
 30
0.0
 11
-1.607
 21
2.5329999999999999
 31
0.0
  0
LINE
  8
0
 10
-1.607
 20
2.5329999999999999
 30
0.0
 11
-1.2769999999999999
 21
2.714
 31
0.0
  0
LINE
  8
0
 10
-1.2769999999999999
 20
2.714
 30
0.0
 11
-0.927
 21
2.8530000000000002
 31
0.0
  0
LINE
  8
0
 10
-0.927
 20
2.8530000000000002
 30
0.0
 11
-0.5620000000000001
 21
2.9470000000000001
 31
0.0
  0
LINE
  8
0
 10
-0.5620000000000001
 20
2.9470000000000001
 30
0.0
 11
-0.188
 21
2.9940000000000002
 31
0.0
  0
LINE
  8
0
 10
-0.188
 20
2.9940000000000002
 30
0.0
 11
0.188
 21
2.9940000000000002
 31
0.0
  0
LINE
  8
0
 10
0.188
 20
2.9940000000000002
 30
0.0
 11
0.5620000000000001
 21
2.9470000000000001
 31
0.0
  0
LINE
  8
0
 10
0.5620000000000001
 20
2.9470000000000001
 30
0.0
 11
0.927
 21
2.8530000000000002
 31
0.0
  0
LINE
  8
0
 10
0.927
 20
2.8530000000000002
 30
0.0
 11
1.2769999999999999
 21
2.714
 31
0.0
  0
LINE
  8
0
 10
1.2769999999999999
 20
2.714
 30
0.0
 11
1.607
 21
2.5329999999999999
 31
0.0
  0
LINE
  8
0
 10
1.607
 20
2.5329999999999999
 30
0.0
 11
1.9119999999999999
 21
2.3119999999999998
 31
0.0
  0
LINE
  8
0
 10
1.9119999999999999
 20
2.3119999999999998
 30
0.0
 11
2.1869999999999998
 21
2.0539999999999998
 31
0.0
  0
LINE
  8
0
 10
2.1869999999999998
 20
2.0539999999999998
 30
0.0
 11
2.427
 21
1.7629999999999999
 31
0.0
  0
LINE
  8
0
 10
2.427
 20
1.7629999999999999
 30
0.0
 11
2.629
 21
1.4450000000000001
 31
0.0
  0
LINE
  8
0
 10
2.629
 20
1.4450000000000001
 30
0.0
 11
2.7890000000000001
 21
1.1040000000000001
 31
0.0
  0
LINE
  8
0
 10
2.7890000000000001
 20
1.1040000000000001
 30
0.0
 11
2.9060000000000001
 21
0.746
 31
0.0
  0
LINE
  8
0
 10
2.9060000000000001
 20
0.746
 30
0.0
 11
2.976
 21
0.376
 31
0.0
  0
LINE
  8
0
 10
2.976
 20
0.376
 30
0.0
 11
3.0
 21
0.0
 31
0.0
  0
LINE
  8
0
 10
3.0
 20
0.0
 30
0.0
 11
2.976
 21
-0.376
 31
0.0
  0
LINE
  8
0
 10
2.976
 20
-0.376
 30
0.0
 11
2.9060000000000001
 21
-0.746
 31
0.0
  0
LINE
  8
0
 10
2.9060000000000001
 20
-0.746
 30
0.0
 11
2.7890000000000001
 21
-1.1040000000000001
 31
0.0
  0
LINE
  8
0
 10
2.7890000000000001
 20
-1.1040000000000001
 30
0.0
 11
2.629
 21
-1.4450000000000001
 31
0.0
  0
LINE
  8
0
 10
2.629
 20
-1.4450000000000001
 30
0.0
 11
2.427
 21
-1.7629999999999999
 31
0.0
  0
LINE
  8
0
 10
2.427
 20
-1.7629999999999999
 30
0.0
 11
2.1869999999999998
 21
-2.0539999999999998
 31
0.0
  0
LINE
  8
0
 10
2.1869999999999998
 20
-2.0539999999999998
 30
0.0
 11
1.9119999999999999
 21
-2.3119999999999998
 31
0.0
  0
LINE
  8
0
 10
1.9119999999999999
 20
-2.3119999999999998
 30
0.0
 11
1.607
 21
-2.5329999999999999
 31
0.0
  0
LINE
  8
0
 10
1.607
 20
-2.5329999999999999
 30
0.0
 11
1.2769999999999999
 21
-2.714
 31
0.0
  0
LINE
  8
0
 10
1.2769999999999999
 20
-2.714
 30
0.0
 11
0.927
 21
-2.8530000000000002
 31
0.0
  0
LINE
  8
0
 10
0.927
 20
-2.8530000000000002
 30
0.0
 11
0.5620000000000001
 21
-2.9470000000000001
 31
0.0
  0
LINE
  8
0
 10
0.5620000000000001
 20
-2.9470000000000001
 30
0.0
 11
0.188
 21
-2.9940000000000002
 31
0.0
  0
LINE
  8
0
 10
0.188
 20
-2.9940000000000002
 30
0.0
 11
-0.188
 21
-2.9940000000000002
 31
0.0
  0
LINE
  8
0
 10
-0.188
 20
-2.9940000000000002
 30
0.0
 11
-0.5620000000000001
 21
-2.9470000000000001
 31
0.0
  0
LINE
  8
0
 10
-0.5620000000000001
 20
-2.9470000000000001
 30
0.0
 11
-0.927
 21
-2.8530000000000002
 31
0.0
  0
LINE
  8
0
 10
-0.927
 20
-2.8530000000000002
 30
0.0
 11
-1.2769999999999999
 21
-2.714
 31
0.0
  0
LINE
  8
0
 10
-1.2769999999999999
 20
-2.714
 30
0.0
 11
-1.607
 21
-2.5329999999999999
 31
0.0
  0
LINE
  8
0
 10
-1.607
 20
-2.5329999999999999
 30
0.0
 11
-1.9119999999999999
 21
-2.3119999999999998
 31
0.0
  0
LINE
  8
0
 10
-1.9119999999999999
 20
-2.3119999999999998
 30
0.0
 11
-2.1869999999999998
 21
-2.0539999999999998
 31
0.0
  0
LINE
  8
0
 10
-2.1869999999999998
 20
-2.0539999999999998
 30
0.0
 11
-2.427
 21
-1.7629999999999999
 31
0.0
  0
LINE
  8
0
 10
-2.427
 20
-1.7629999999999999
 30
0.0
 11
-2.629
 21
-1.4450000000000001
 31
0.0
  0
LINE
  8
0
 10
-2.629
 20
-1.4450000000000001
 30
0.0
 11
-2.7890000000000001
 21
-1.1040000000000001
 31
0.0
  0
LINE
  8
0
 10
-2.7890000000000001
 20
-1.1040000000000001
 30
0.0
 11
-2.9060000000000001
 21
-0.746
 31
0.0
  0
LINE
  8
0
 10
-2.9060000000000001
 20
-0.746
 30
0.0
 11
-2.976
 21
-0.376
 31
0.0
  0
LINE
  8
0
 10
-2.976
 20
-0.376
 30
0.0
 11
-3.0
 21
0.0
 31
0.0
  0
LINE
  8
0
 10
-2.8300000000000001
 20
-4.5
 30
0.0
 11
-2.8290000000000002
 21
-4.4900000000000002
 31
0.0
  0
LINE
  8
0
 10
-2.8290000000000002
 20
-4.4900000000000002
 30
0.0
 11
-2.827
 21
-4.4800000000000004
 31
0.0
  0
LINE
  8
0
 10
-2.827
 20
-4.4800000000000004
 30
0.0
 11
-2.8239999999999998
 21
-4.4710000000000001
 31
0.0
  0
LINE
  8
0
 10
-2.8239999999999998
 20
-4.4710000000000001
 30
0.0
 11
-2.8199999999999998
 21
-4.4619999999999997
 31
0.0
  0
LINE
  8
0
 10
-2.8199999999999998
 20
-4.4619999999999997
 30
0.0
 11
-2.8140000000000001
 21
-4.4530000000000003
 31
0.0
  0
LINE
  8
0
 10
-2.8140000000000001
 20
-4.4530000000000003
 30
0.0
 11
-2.8079999999999998
 21
-4.4459999999999997
 31
0.0
  0
LINE
  8
0
 10
-2.8079999999999998
 20
-4.4459999999999997
 30
0.0
 11
-2.8010000000000002
 21
-4.4390000000000001
 31
0.0
  0
LINE
  8
0
 10
-2.8010000000000002
 20
-4.4390000000000001
 30
0.0
 11
-2.7930000000000001
 21
-4.4329999999999998
 31
0.0
  0
LINE
  8
0
 10
-2.7930000000000001
 20
-4.4329999999999998
 30
0.0
 11
-2.7839999999999998
 21
-4.4279999999999999
 31
0.0
  0
LINE
  8
0
 10
-2.7839999999999998
 20
-4.4279999999999999
 30
0.0
 11
-2.7749999999999999
 21
-4.4240000000000004
 31
0.0
  0
LINE
  8
0
 10
-2.7749999999999999
 20
-4.4240000000000004
 30
0.0
 11
-2.7650000000000001
 21
-4.4219999999999997
 31
0.0
  0
LINE
  8
0
 10
-2.7650000000000001
 20
-4.4219999999999997
 30
0.0
 11
-2.7549999999999999
 21
-4.4210000000000003
 31
0.0
  0
LINE
  8
0
 10
-2.7549999999999999
 20
-4.4210000000000003
 30
0.0
 11
-2.7450000000000001
 21
-4.4210000000000003
 31
0.0
  0
LINE
  8
0
 10
-2.7450000000000001
 20
-4.4210000000000003
 30
0.0
 11
-2.7349999999999999
 21
-4.4219999999999997
 31
0.0
  0
LINE
  8
0
 10
-2.7349999999999999
 20
-4.4219999999999997
 30
0.0
 11
-2.7250000000000001
 21
-4.4240000000000004
 31
0.0
  0
LINE
  8
0
 10
-2.7250000000000001
 20
-4.4240000000000004
 30
0.0
 11
-2.7160000000000002
 21
-4.4279999999999999
 31
0.0
  0
LINE
  8
0
 10
-2.7160000000000002
 20
-4.4279999999999999
 30
0.0
 11
-2.7069999999999999
 21
-4.4329999999999998
 31
0.0
  0
LINE
  8
0
 10
-2.7069999999999999
 20
-4.4329999999999998
 30
0.0
 11
-2.6989999999999998
 21
-4.4390000000000001
 31
0.0
  0
LINE
  8
0
 10
-2.6989999999999998
 20
-4.4390000000000001
 30
0.0
 11
-2.6920000000000002
 21
-4.4459999999999997
 31
0.0
  0
LINE
  8
0
 10
-2.6920000000000002
 20
-4.4459999999999997
 30
0.0
 11
-2.6859999999999999
 21
-4.4530000000000003
 31
0.0
  0
LINE
  8
0
 10
-2.6859999999999999
 20
-4.4530000000000003
 30
0.0
 11
-2.6800000000000002
 21
-4.4619999999999997
 31
0.0
  0
LINE
  8
0
 10
-2.6800000000000002
 20
-4.4619999999999997
 30
0.0
 11
-2.6760000000000002
 21
-4.4710000000000001
 31
0.0
  0
LINE
  8
0
 10
-2.6760000000000002
 20
-4.4710000000000001
 30
0.0
 11
-2.673
 21
-4.4800000000000004
 31
0.0
  0
LINE
  8
0
 10
-2.673
 20
-4.4800000000000004
 30
0.0
 11
-2.6709999999999998
 21
-4.4900000000000002
 31
0.0
  0
LINE
  8
0
 10
-2.6709999999999998
 20
-4.4900000000000002
 30
0.0
 11
-2.6709999999999998
 21
-4.5099999999999998
 31
0.0
  0
LINE
  8
0
 10
-2.6709999999999998
 20
-4.5099999999999998
 30
0.0
 11
-2.673
 21
-4.5199999999999996
 31
0.0
  0
LINE
  8
0
 10
-2.673
 20
-4.5199999999999996
 30
0.0
 11
-2.6760000000000002
 21
-4.5289999999999999
 31
0.0
  0
LINE
  8
0
 10
-2.6760000000000002
 20
-4.5289999999999999
 30
0.0
 11
-2.6800000000000002
 21
-4.5380000000000003
 31
0.0
  0
LINE
  8
0
 10
-2.6800000000000002
 20
-4.5380000000000003
 30
0.0
 11
-2.6859999999999999
 21
-4.5469999999999997
 31
0.0
  0
LINE
  8
0
 10
-2.6859999999999999
 20
-4.5469999999999997
 30
0.0
 11
-2.6920000000000002
 21
-4.5540000000000003
 31
0.0
  0
LINE
  8
0
 10
-2.6920000000000002
 20
-4.5540000000000003
 30
0.0
 11
-2.6989999999999998
 21
-4.5609999999999999
 31
0.0
  0
LINE
  8
0
 10
-2.6989999999999998
 20
-4.5609999999999999
 30
0.0
 11
-2.7069999999999999
 21
-4.5670000000000002
 31
0.0
  0
LINE
  8
0
 10
-2.7069999999999999
 20
-4.5670000000000002
 30
0.0
 11
-2.7160000000000002
 21
-4.5720000000000001
 31
0.0
  0
LINE
  8
0
 10
-2.7160000000000002
 20
-4.5720000000000001
 30
0.0
 11
-2.7250000000000001
 21
-4.5759999999999996
 31
0.0
  0
LINE
  8
0
 10
-2.7250000000000001
 20
-4.5759999999999996
 30
0.0
 11
-2.7349999999999999
 21
-4.5780000000000003
 31
0.0
  0
LINE
  8
0
 10
-2.7349999999999999
 20
-4.5780000000000003
 30
0.0
 11
-2.7450000000000001
 21
-4.5789999999999997
 31
0.0
  0
LINE
  8
0
 10
-2.7450000000000001
 20
-4.5789999999999997
 30
0.0
 11
-2.7549999999999999
 21
-4.5789999999999997
 31
0.0
  0
LINE
  8
0
 10
-2.7549999999999999
 20
-4.5789999999999997
 30
0.0
 11
-2.7650000000000001
 21
-4.5780000000000003
 31
0.0
  0
LINE
  8
0
 10
-2.7650000000000001
 20
-4.5780000000000003
 30
0.0
 11
-2.7749999999999999
 21
-4.5759999999999996
 31
0.0
  0
LINE
  8
0
 10
-2.7749999999999999
 20
-4.5759999999999996
 30
0.0
 11
-2.7839999999999998
 21
-4.5720000000000001
 31
0.0
  0
LINE
  8
0
 10
-2.7839999999999998
 20
-4.5720000000000001
 30
0.0
 11
-2.7930000000000001
 21
-4.5670000000000002
 31
0.0
  0
LINE
  8
0
 10
-2.7930000000000001
 20
-4.5670000000000002
 30
0.0
 11
-2.8010000000000002
 21
-4.5609999999999999
 31
0.0
  0
LINE
  8
0
 10
-2.8010000000000002
 20
-4.5609999999999999
 30
0.0
 11
-2.8079999999999998
 21
-4.5540000000000003
 31
0.0
  0
LINE
  8
0
 10
-2.8079999999999998
 20
-4.5540000000000003
 30
0.0
 11
-2.8140000000000001
 21
-4.5469999999999997
 31
0.0
  0
LINE
  8
0
 10
-2.8140000000000001
 20
-4.5469999999999997
 30
0.0
 11
-2.8199999999999998
 21
-4.5380000000000003
 31
0.0
  0
LINE
  8
0
 10
-2.8199999999999998
 20
-4.5380000000000003
 30
0.0
 11
-2.8239999999999998
 21
-4.5289999999999999
 31
0.0
  0
LINE
  8
0
 10
-2.8239999999999998
 20
-4.5289999999999999
 30
0.0
 11
-2.827
 21
-4.5199999999999996
 31
0.0
  0
LINE
  8
0
 10
-2.827
 20
-4.5199999999999996
 30
0.0
 11
-2.8290000000000002
 21
-4.5099999999999998
 31
0.0
  0
LINE
  8
0
 10
-2.8290000000000002
 20
-4.5099999999999998
 30
0.0
 11
-2.8300000000000001
 21
-4.5
 31
0.0
  0
LINE
  8
0
 10
-2.8300000000000001
 20
4.5
 30
0.0
 11
-2.8290000000000002
 21
4.5099999999999998
 31
0.0
  0
LINE
  8
0
 10
-2.8290000000000002
 20
4.5099999999999998
 30
0.0
 11
-2.827
 21
4.5199999999999996
 31
0.0
  0
LINE
  8
0
 10
-2.827
 20
4.5199999999999996
 30
0.0
 11
-2.8239999999999998
 21
4.5289999999999999
 31
0.0
  0
LINE
  8
0
 10
-2.8239999999999998
 20
4.5289999999999999
 30
0.0
 11
-2.8199999999999998
 21
4.5380000000000003
 31
0.0
  0
LINE
  8
0
 10
-2.8199999999999998
 20
4.5380000000000003
 30
0.0
 11
-2.8140000000000001
 21
4.5469999999999997
 31
0.0
  0
LINE
  8
0
 10
-2.8140000000000001
 20
4.5469999999999997
 30
0.0
 11
-2.8079999999999998
 21
4.5540000000000003
 31
0.0
  0
LINE
  8
0
 10
-2.8079999999999998
 20
4.5540000000000003
 30
0.0
 11
-2.8010000000000002
 21
4.5609999999999999
 31
0.0
  0
LINE
  8
0
 10
-2.8010000000000002
 20
4.5609999999999999
 30
0.0
 11
-2.7930000000000001
 21
4.5670000000000002
 31
0.0
  0
LINE
  8
0
 10
-2.7930000000000001
 20
4.5670000000000002
 30
0.0
 11
-2.7839999999999998
 21
4.5720000000000001
 31
0.0
  0
LINE
  8
0
 10
-2.7839999999999998
 20
4.5720000000000001
 30
0.0
 11
-2.7749999999999999
 21
4.5759999999999996
 31
0.0
  0
LINE
  8
0
 10
-2.7749999999999999
 20
4.5759999999999996
 30
0.0
 11
-2.7650000000000001
 21
4.5780000000000003
 31
0.0
  0
LINE
  8
0
 10
-2.7650000000000001
 20
4.5780000000000003
 30
0.0
 11
-2.7549999999999999
 21
4.5789999999999997
 31
0.0
  0
LINE
  8
0
 10
-2.7549999999999999
 20
4.5789999999999997
 30
0.0
 11
-2.7450000000000001
 21
4.5789999999999997
 31
0.0
  0
LINE
  8
0
 10
-2.7450000000000001
 20
4.5789999999999997
 30
0.0
 11
-2.7349999999999999
 21
4.5780000000000003
 31
0.0
  0
LINE
  8
0
 10
-2.7349999999999999
 20
4.5780000000000003
 30
0.0
 11
-2.7250000000000001
 21
4.5759999999999996
 31
0.0
  0
LINE
  8
0
 10
-2.7250000000000001
 20
4.5759999999999996
 30
0.0
 11
-2.7160000000000002
 21
4.5720000000000001
 31
0.0
  0
LINE
  8
0
 10
-2.7160000000000002
 20
4.5720000000000001
 30
0.0
 11
-2.7069999999999999
 21
4.5670000000000002
 31
0.0
  0
LINE
  8
0
 10
-2.7069999999999999
 20
4.5670000000000002
 30
0.0
 11
-2.6989999999999998
 21
4.5609999999999999
 31
0.0
  0
LINE
  8
0
 10
-2.6989999999999998
 20
4.5609999999999999
 30
0.0
 11
-2.6920000000000002
 21
4.5540000000000003
 31
0.0
  0
LINE
  8
0
 10
-2.6920000000000002
 20
4.5540000000000003
 30
0.0
 11
-2.6859999999999999
 21
4.5469999999999997
 31
0.0
  0
LINE
  8
0
 10
-2.6859999999999999
 20
4.5469999999999997
 30
0.0
 11
-2.6800000000000002
 21
4.5380000000000003
 31
0.0
  0
LINE
  8
0
 10
-2.6800000000000002
 20
4.5380000000000003
 30
0.0
 11
-2.6760000000000002
 21
4.5289999999999999
 31
0.0
  0
LINE
  8
0
 10
-2.6760000000000002
 20
4.5289999999999999
 30
0.0
 11
-2.673
 21
4.5199999999999996
 31
0.0
  0
LINE
  8
0
 10
-2.673
 20
4.5199999999999996
 30
0.0
 11
-2.6709999999999998
 21
4.5099999999999998
 31
0.0
  0
LINE
  8
0
 10
-2.6709999999999998
 20
4.5099999999999998
 30
0.0
 11
-2.6709999999999998
 21
4.4900000000000002
 31
0.0
  0
LINE
  8
0
 10
-2.6709999999999998
 20
4.4900000000000002
 30
0.0
 11
-2.673
 21
4.4800000000000004
 31
0.0
  0
LINE
  8
0
 10
-2.673
 20
4.4800000000000004
 30
0.0
 11
-2.6760000000000002
 21
4.4710000000000001
 31
0.0
  0
LINE
  8
0
 10
-2.6760000000000002
 20
4.4710000000000001
 30
0.0
 11
-2.6800000000000002
 21
4.4619999999999997
 31
0.0
  0
LINE
  8
0
 10
-2.6800000000000002
 20
4.4619999999999997
 30
0.0
 11
-2.6859999999999999
 21
4.4530000000000003
 31
0.0
  0
LINE
  8
0
 10
-2.6859999999999999
 20
4.4530000000000003
 30
0.0
 11
-2.6920000000000002
 21
4.4459999999999997
 31
0.0
  0
LINE
  8
0
 10
-2.6920000000000002
 20
4.4459999999999997
 30
0.0
 11
-2.6989999999999998
 21
4.4390000000000001
 31
0.0
  0
LINE
  8
0
 10
-2.6989999999999998
 20
4.4390000000000001
 30
0.0
 11
-2.7069999999999999
 21
4.4329999999999998
 31
0.0
  0
LINE
  8
0
 10
-2.7069999999999999
 20
4.4329999999999998
 30
0.0
 11
-2.7160000000000002
 21
4.4279999999999999
 31
0.0
  0
LINE
  8
0
 10
-2.7160000000000002
 20
4.4279999999999999
 30
0.0
 11
-2.7250000000000001
 21
4.4240000000000004
 31
0.0
  0
LINE
  8
0
 10
-2.7250000000000001
 20
4.4240000000000004
 30
0.0
 11
-2.7349999999999999
 21
4.4219999999999997
 31
0.0
  0
LINE
  8
0
 10
-2.7349999999999999
 20
4.4219999999999997
 30
0.0
 11
-2.7450000000000001
 21
4.4210000000000003
 31
0.0
  0
LINE
  8
0
 10
-2.7450000000000001
 20
4.4210000000000003
 30
0.0
 11
-2.7549999999999999
 21
4.4210000000000003
 31
0.0
  0
LINE
  8
0
 10
-2.7549999999999999
 20
4.4210000000000003
 30
0.0
 11
-2.7650000000000001
 21
4.4219999999999997
 31
0.0
  0
LINE
  8
0
 10
-2.7650000000000001
 20
4.4219999999999997
 30
0.0
 11
-2.7749999999999999
 21
4.4240000000000004
 31
0.0
  0
LINE
  8
0
 10
-2.7749999999999999
 20
4.4240000000000004
 30
0.0
 11
-2.7839999999999998
 21
4.4279999999999999
 31
0.0
  0
LINE
  8
0
 10
-2.7839999999999998
 20
4.4279999999999999
 30
0.0
 11
-2.7930000000000001
 21
4.4329999999999998
 31
0.0
  0
LINE
  8
0
 10
-2.7930000000000001
 20
4.4329999999999998
 30
0.0
 11
-2.8010000000000002
 21
4.4390000000000001
 31
0.0
  0
LINE
  8
0
 10
-2.8010000000000002
 20
4.4390000000000001
 30
0.0
 11
-2.8079999999999998
 21
4.4459999999999997
 31
0.0
  0
LINE
  8
0
 10
-2.8079999999999998
 20
4.4459999999999997
 30
0.0
 11
-2.8140000000000001
 21
4.4530000000000003
 31
0.0
  0
LINE
  8
0
 10
-2.8140000000000001
 20
4.4530000000000003
 30
0.0
 11
-2.8199999999999998
 21
4.4619999999999997
 31
0.0
  0
LINE
  8
0
 10
-2.8199999999999998
 20
4.4619999999999997
 30
0.0
 11
-2.8239999999999998
 21
4.4710000000000001
 31
0.0
  0
LINE
  8
0
 10
-2.8239999999999998
 20
4.4710000000000001
 30
0.0
 11
-2.827
 21
4.4800000000000004
 31
0.0
  0
LINE
  8
0
 10
-2.827
 20
4.4800000000000004
 30
0.0
 11
-2.8290000000000002
 21
4.4900000000000002
 31
0.0
  0
LINE
  8
0
 10
-2.8290000000000002
 20
4.4900000000000002
 30
0.0
 11
-2.8300000000000001
 21
4.5
 31
0.0
  0
LINE
  8
0
 10
2.6709999999999998
 20
-4.5099999999999998
 30
0.0
 11
2.6709999999999998
 21
-4.4900000000000002
 31
0.0
  0
LINE
  8
0
 10
2.6709999999999998
 20
-4.4900000000000002
 30
0.0
 11
2.673
 21
-4.4800000000000004
 31
0.0
  0
LINE
  8
0
 10
2.673
 20
-4.4800000000000004
 30
0.0
 11
2.6760000000000002
 21
-4.4710000000000001
 31
0.0
  0
LINE
  8
0
 10
2.6760000000000002
 20
-4.4710000000000001
 30
0.0
 11
2.6800000000000002
 21
-4.4619999999999997
 31
0.0
  0
LINE
  8
0
 10
2.6800000000000002
 20
-4.4619999999999997
 30
0.0
 11
2.6859999999999999
 21
-4.4530000000000003
 31
0.0
  0
LINE
  8
0
 10
2.6859999999999999
 20
-4.4530000000000003
 30
0.0
 11
2.6920000000000002
 21
-4.4459999999999997
 31
0.0
  0
LINE
  8
0
 10
2.6920000000000002
 20
-4.4459999999999997
 30
0.0
 11
2.6989999999999998
 21
-4.4390000000000001
 31
0.0
  0
LINE
  8
0
 10
2.6989999999999998
 20
-4.4390000000000001
 30
0.0
 11
2.7069999999999999
 21
-4.4329999999999998
 31
0.0
  0
LINE
  8
0
 10
2.7069999999999999
 20
-4.4329999999999998
 30
0.0
 11
2.7160000000000002
 21
-4.4279999999999999
 31
0.0
  0
LINE
  8
0
 10
2.7160000000000002
 20
-4.4279999999999999
 30
0.0
 11
2.7250000000000001
 21
-4.4240000000000004
 31
0.0
  0
LINE
  8
0
 10
2.7250000000000001
 20
-4.4240000000000004
 30
0.0
 11
2.7349999999999999
 21
-4.4219999999999997
 31
0.0
  0
LINE
  8
0
 10
2.7349999999999999
 20
-4.4219999999999997
 30
0.0
 11
2.7450000000000001
 21
-4.4210000000000003
 31
0.0
  0
LINE
  8
0
 10
2.7450000000000001
 20
-4.4210000000000003
 30
0.0
 11
2.7549999999999999
 21
-4.4210000000000003
 31
0.0
  0
LINE
  8
0
 10
2.7549999999999999
 20
-4.4210000000000003
 30
0.0
 11
2.7650000000000001
 21
-4.4219999999999997
 31
0.0
  0
LINE
  8
0
 10
2.7650000000000001
 20
-4.4219999999999997
 30
0.0
 11
2.7749999999999999
 21
-4.4240000000000004
 31
0.0
  0
LINE
  8
0
 10
2.7749999999999999
 20
-4.4240000000000004
 30
0.0
 11
2.7839999999999998
 21
-4.4279999999999999
 31
0.0
  0
LINE
  8
0
 10
2.7839999999999998
 20
-4.4279999999999999
 30
0.0
 11
2.7930000000000001
 21
-4.4329999999999998
 31
0.0
  0
LINE
  8
0
 10
2.7930000000000001
 20
-4.4329999999999998
 30
0.0
 11
2.8010000000000002
 21
-4.4390000000000001
 31
0.0
  0
LINE
  8
0
 10
2.8010000000000002
 20
-4.4390000000000001
 30
0.0
 11
2.8079999999999998
 21
-4.4459999999999997
 31
0.0
  0
LINE
  8
0
 10
2.8079999999999998
 20
-4.4459999999999997
 30
0.0
 11
2.8140000000000001
 21
-4.4530000000000003
 31
0.0
  0
LINE
  8
0
 10
2.8140000000000001
 20
-4.4530000000000003
 30
0.0
 11
2.8199999999999998
 21
-4.4619999999999997
 31
0.0
  0
LINE
  8
0
 10
2.8199999999999998
 20
-4.4619999999999997
 30
0.0
 11
2.8239999999999998
 21
-4.4710000000000001
 31
0.0
  0
LINE
  8
0
 10
2.8239999999999998
 20
-4.4710000000000001
 30
0.0
 11
2.827
 21
-4.4800000000000004
 31
0.0
  0
LINE
  8
0
 10
2.827
 20
-4.4800000000000004
 30
0.0
 11
2.8290000000000002
 21
-4.4900000000000002
 31
0.0
  0
LINE
  8
0
 10
2.8290000000000002
 20
-4.4900000000000002
 30
0.0
 11
2.8300000000000001
 21
-4.5
 31
0.0
  0
LINE
  8
0
 10
2.8300000000000001
 20
-4.5
 30
0.0
 11
2.8290000000000002
 21
-4.5099999999999998
 31
0.0
  0
LINE
  8
0
 10
2.8290000000000002
 20
-4.5099999999999998
 30
0.0
 11
2.827
 21
-4.5199999999999996
 31
0.0
  0
LINE
  8
0
 10
2.827
 20
-4.5199999999999996
 30
0.0
 11
2.8239999999999998
 21
-4.5289999999999999
 31
0.0
  0
LINE
  8
0
 10
2.8239999999999998
 20
-4.5289999999999999
 30
0.0
 11
2.8199999999999998
 21
-4.5380000000000003
 31
0.0
  0
LINE
  8
0
 10
2.8199999999999998
 20
-4.5380000000000003
 30
0.0
 11
2.8140000000000001
 21
-4.5469999999999997
 31
0.0
  0
LINE
  8
0
 10
2.8140000000000001
 20
-4.5469999999999997
 30
0.0
 11
2.8079999999999998
 21
-4.5540000000000003
 31
0.0
  0
LINE
  8
0
 10
2.8079999999999998
 20
-4.5540000000000003
 30
0.0
 11
2.8010000000000002
 21
-4.5609999999999999
 31
0.0
  0
LINE
  8
0
 10
2.8010000000000002
 20
-4.5609999999999999
 30
0.0
 11
2.7930000000000001
 21
-4.5670000000000002
 31
0.0
  0
LINE
  8
0
 10
2.7930000000000001
 20
-4.5670000000000002
 30
0.0
 11
2.7839999999999998
 21
-4.5720000000000001
 31
0.0
  0
LINE
  8
0
 10
2.7839999999999998
 20
-4.5720000000000001
 30
0.0
 11
2.7749999999999999
 21
-4.5759999999999996
 31
0.0
  0
LINE
  8
0
 10
2.7749999999999999
 20
-4.5759999999999996
 30
0.0
 11
2.7650000000000001
 21
-4.5780000000000003
 31
0.0
  0
LINE
  8
0
 10
2.7650000000000001
 20
-4.5780000000000003
 30
0.0
 11
2.7549999999999999
 21
-4.5789999999999997
 31
0.0
  0
LINE
  8
0
 10
2.7549999999999999
 20
-4.5789999999999997
 30
0.0
 11
2.7450000000000001
 21
-4.5789999999999997
 31
0.0
  0
LINE
  8
0
 10
2.7450000000000001
 20
-4.5789999999999997
 30
0.0
 11
2.7349999999999999
 21
-4.5780000000000003
 31
0.0
  0
LINE
  8
0
 10
2.7349999999999999
 20
-4.5780000000000003
 30
0.0
 11
2.7250000000000001
 21
-4.5759999999999996
 31
0.0
  0
LINE
  8
0
 10
2.7250000000000001
 20
-4.5759999999999996
 30
0.0
 11
2.7160000000000002
 21
-4.5720000000000001
 31
0.0
  0
LINE
  8
0
 10
2.7160000000000002
 20
-4.5720000000000001
 30
0.0
 11
2.7069999999999999
 21
-4.5670000000000002
 31
0.0
  0
LINE
  8
0
 10
2.7069999999999999
 20
-4.5670000000000002
 30
0.0
 11
2.6989999999999998
 21
-4.5609999999999999
 31
0.0
  0
LINE
  8
0
 10
2.6989999999999998
 20
-4.5609999999999999
 30
0.0
 11
2.6920000000000002
 21
-4.5540000000000003
 31
0.0
  0
LINE
  8
0
 10
2.6920000000000002
 20
-4.5540000000000003
 30
0.0
 11
2.6859999999999999
 21
-4.5469999999999997
 31
0.0
  0
LINE
  8
0
 10
2.6859999999999999
 20
-4.5469999999999997
 30
0.0
 11
2.6800000000000002
 21
-4.5380000000000003
 31
0.0
  0
LINE
  8
0
 10
2.6800000000000002
 20
-4.5380000000000003
 30
0.0
 11
2.6760000000000002
 21
-4.5289999999999999
 31
0.0
  0
LINE
  8
0
 10
2.6760000000000002
 20
-4.5289999999999999
 30
0.0
 11
2.673
 21
-4.5199999999999996
 31
0.0
  0
LINE
  8
0
 10
2.673
 20
-4.5199999999999996
 30
0.0
 11
2.6709999999999998
 21
-4.5099999999999998
 31
0.0
  0
LINE
  8
0
 10
2.6709999999999998
 20
4.4900000000000002
 30
0.0
 11
2.6709999999999998
 21
4.5099999999999998
 31
0.0
  0
LINE
  8
0
 10
2.6709999999999998
 20
4.5099999999999998
 30
0.0
 11
2.673
 21
4.5199999999999996
 31
0.0
  0
LINE
  8
0
 10
2.673
 20
4.5199999999999996
 30
0.0
 11
2.6760000000000002
 21
4.5289999999999999
 31
0.0
  0
LINE
  8
0
 10
2.6760000000000002
 20
4.5289999999999999
 30
0.0
 11
2.6800000000000002
 21
4.5380000000000003
 31
0.0
  0
LINE
  8
0
 10
2.6800000000000002
 20
4.5380000000000003
 30
0.0
 11
2.6859999999999999
 21
4.5469999999999997
 31
0.0
  0
LINE
  8
0
 10
2.6859999999999999
 20
4.5469999999999997
 30
0.0
 11
2.6920000000000002
 21
4.5540000000000003
 31
0.0
  0
LINE
  8
0
 10
2.6920000000000002
 20
4.5540000000000003
 30
0.0
 11
2.6989999999999998
 21
4.5609999999999999
 31
0.0
  0
LINE
  8
0
 10
2.6989999999999998
 20
4.5609999999999999
 30
0.0
 11
2.7069999999999999
 21
4.5670000000000002
 31
0.0
  0
LINE
  8
0
 10
2.7069999999999999
 20
4.5670000000000002
 30
0.0
 11
2.7160000000000002
 21
4.5720000000000001
 31
0.0
  0
LINE
  8
0
 10
2.7160000000000002
 20
4.5720000000000001
 30
0.0
 11
2.7250000000000001
 21
4.5759999999999996
 31
0.0
  0
LINE
  8
0
 10
2.7250000000000001
 20
4.5759999999999996
 30
0.0
 11
2.7349999999999999
 21
4.5780000000000003
 31
0.0
  0
LINE
  8
0
 10
2.7349999999999999
 20
4.5780000000000003
 30
0.0
 11
2.7450000000000001
 21
4.5789999999999997
 31
0.0
  0
LINE
  8
0
 10
2.7450000000000001
 20
4.5789999999999997
 30
0.0
 11
2.7549999999999999
 21
4.5789999999999997
 31
0.0
  0
LINE
  8
0
 10
2.7549999999999999
 20
4.5789999999999997
 30
0.0
 11
2.7650000000000001
 21
4.5780000000000003
 31
0.0
  0
LINE
  8
0
 10
2.7650000000000001
 20
4.5780000000000003
 30
0.0
 11
2.7749999999999999
 21
4.5759999999999996
 31
0.0
  0
LINE
  8
0
 10
2.7749999999999999
 20
4.5759999999999996
 30
0.0
 11
2.7839999999999998
 21
4.5720000000000001
 31
0.0
  0
LINE
  8
0
 10
2.7839999999999998
 20
4.5720000000000001
 30
0.0
 11
2.7930000000000001
 21
4.5670000000000002
 31
0.0
  0
LINE
  8
0
 10
2.7930000000000001
 20
4.5670000000000002
 30
0.0
 11
2.8010000000000002
 21
4.5609999999999999
 31
0.0
  0
LINE
  8
0
 10
2.8010000000000002
 20
4.5609999999999999
 30
0.0
 11
2.8079999999999998
 21
4.5540000000000003
 31
0.0
  0
LINE
  8
0
 10
2.8079999999999998
 20
4.5540000000000003
 30
0.0
 11
2.8140000000000001
 21
4.5469999999999997
 31
0.0
  0
LINE
  8
0
 10
2.8140000000000001
 20
4.5469999999999997
 30
0.0
 11
2.8199999999999998
 21
4.5380000000000003
 31
0.0
  0
LINE
  8
0
 10
2.8199999999999998
 20
4.5380000000000003
 30
0.0
 11
2.8239999999999998
 21
4.5289999999999999
 31
0.0
  0
LINE
  8
0
 10
2.8239999999999998
 20
4.5289999999999999
 30
0.0
 11
2.827
 21
4.5199999999999996
 31
0.0
  0
LINE
  8
0
 10
2.827
 20
4.5199999999999996
 30
0.0
 11
2.8290000000000002
 21
4.5099999999999998
 31
0.0
  0
LINE
  8
0
 10
2.8290000000000002
 20
4.5099999999999998
 30
0.0
 11
2.8300000000000001
 21
4.5
 31
0.0
  0
LINE
  8
0
 10
2.8300000000000001
 20
4.5
 30
0.0
 11
2.8290000000000002
 21
4.4900000000000002
 31
0.0
  0
LINE
  8
0
 10
2.8290000000000002
 20
4.4900000000000002
 30
0.0
 11
2.827
 21
4.4800000000000004
 31
0.0
  0
LINE
  8
0
 10
2.827
 20
4.4800000000000004
 30
0.0
 11
2.8239999999999998
 21
4.4710000000000001
 31
0.0
  0
LINE
  8
0
 10
2.8239999999999998
 20
4.4710000000000001
 30
0.0
 11
2.8199999999999998
 21
4.4619999999999997
 31
0.0
  0
LINE
  8
0
 10
2.8199999999999998
 20
4.4619999999999997
 30
0.0
 11
2.8140000000000001
 21
4.4530000000000003
 31
0.0
  0
LINE
  8
0
 10
2.8140000000000001
 20
4.4530000000000003
 30
0.0
 11
2.8079999999999998
 21
4.4459999999999997
 31
0.0
  0
LINE
  8
0
 10
2.8079999999999998
 20
4.4459999999999997
 30
0.0
 11
2.8010000000000002
 21
4.4390000000000001
 31
0.0
  0
LINE
  8
0
 10
2.8010000000000002
 20
4.4390000000000001
 30
0.0
 11
2.7930000000000001
 21
4.4329999999999998
 31
0.0
  0
LINE
  8
0
 10
2.7930000000000001
 20
4.4329999999999998
 30
0.0
 11
2.7839999999999998
 21
4.4279999999999999
 31
0.0
  0
LINE
  8
0
 10
2.7839999999999998
 20
4.4279999999999999
 30
0.0
 11
2.7749999999999999
 21
4.4240000000000004
 31
0.0
  0
LINE
  8
0
 10
2.7749999999999999
 20
4.4240000000000004
 30
0.0
 11
2.7650000000000001
 21
4.4219999999999997
 31
0.0
  0
LINE
  8
0
 10
2.7650000000000001
 20
4.4219999999999997
 30
0.0
 11
2.7549999999999999
 21
4.4210000000000003
 31
0.0
  0
LINE
  8
0
 10
2.7549999999999999
 20
4.4210000000000003
 30
0.0
 11
2.7450000000000001
 21
4.4210000000000003
 31
0.0
  0
LINE
  8
0
 10
2.7450000000000001
 20
4.4210000000000003
 30
0.0
 11
2.7349999999999999
 21
4.4219999999999997
 31
0.0
  0
LINE
  8
0
 10
2.7349999999999999
 20
4.4219999999999997
 30
0.0
 11
2.7250000000000001
 21
4.4240000000000004
 31
0.0
  0
LINE
  8
0
 10
2.7250000000000001
 20
4.4240000000000004
 30
0.0
 11
2.7160000000000002
 21
4.4279999999999999
 31
0.0
  0
LINE
  8
0
 10
2.7160000000000002
 20
4.4279999999999999
 30
0.0
 11
2.7069999999999999
 21
4.4329999999999998
 31
0.0
  0
LINE
  8
0
 10
2.7069999999999999
 20
4.4329999999999998
 30
0.0
 11
2.6989999999999998
 21
4.4390000000000001
 31
0.0
  0
LINE
  8
0
 10
2.6989999999999998
 20
4.4390000000000001
 30
0.0
 11
2.6920000000000002
 21
4.4459999999999997
 31
0.0
  0
LINE
  8
0
 10
2.6920000000000002
 20
4.4459999999999997
 30
0.0
 11
2.6859999999999999
 21
4.4530000000000003
 31
0.0
  0
LINE
  8
0
 10
2.6859999999999999
 20
4.4530000000000003
 30
0.0
 11
2.6800000000000002
 21
4.4619999999999997
 31
0.0
  0
LINE
  8
0
 10
2.6800000000000002
 20
4.4619999999999997
 30
0.0
 11
2.6760000000000002
 21
4.4710000000000001
 31
0.0
  0
LINE
  8
0
 10
2.6760000000000002
 20
4.4710000000000001
 30
0.0
 11
2.673
 21
4.4800000000000004
 31
0.0
  0
LINE
  8
0
 10
2.673
 20
4.4800000000000004
 30
0.0
 11
2.6709999999999998
 21
4.4900000000000002
 31
0.0
  0
LINE
  8
0
 10
5.367
 20
-5.5
 30
0.0
 11
5.3680000000000003
 21
-5.4829999999999997
 31
0.0
  0
LINE
  8
0
 10
5.3680000000000003
 20
-5.4829999999999997
 30
0.0
 11
5.3710000000000004
 21
-5.4669999999999996
 31
0.0
  0
LINE
  8
0
 10
5.3710000000000004
 20
-5.4669999999999996
 30
0.0
 11
5.3760000000000003
 21
-5.4509999999999996
 31
0.0
  0
LINE
  8
0
 10
5.3760000000000003
 20
-5.4509999999999996
 30
0.0
 11
5.383
 21
-5.4359999999999999
 31
0.0
  0
LINE
  8
0
 10
5.383
 20
-5.4359999999999999
 30
0.0
 11
5.3920000000000003
 21
-5.4219999999999997
 31
0.0
  0
LINE
  8
0
 10
5.3920000000000003
 20
-5.4219999999999997
 30
0.0
 11
5.4029999999999996
 21
-5.4089999999999998
 31
0.0
  0
LINE
  8
0
 10
5.4029999999999996
 20
-5.4089999999999998
 30
0.0
 11
5.415
 21
-5.3979999999999997
 31
0.0
  0
LINE
  8
0
 10
5.415
 20
-5.3979999999999997
 30
0.0
 11
5.4290000000000003
 21
-5.3879999999999999
 31
0.0
  0
LINE
  8
0
 10
5.4290000000000003
 20
-5.3879999999999999
 30
0.0
 11
5.4429999999999996
 21
-5.3799999999999999
 31
0.0
  0
LINE
  8
0
 10
5.4429999999999996
 20
-5.3799999999999999
 30
0.0
 11
5.4589999999999996
 21
-5.3739999999999997
 31
0.0
  0
LINE
  8
0
 10
5.4589999999999996
 20
-5.3739999999999997
 30
0.0
 11
5.4749999999999996
 21
-5.3689999999999998
 31
0.0
  0
LINE
  8
0
 10
5.4749999999999996
 20
-5.3689999999999998
 30
0.0
 11
5.492
 21
-5.367
 31
0.0
  0
LINE
  8
0
 10
5.492
 20
-5.367
 30
0.0
 11
5.508
 21
-5.367
 31
0.0
  0
LINE
  8
0
 10
5.508
 20
-5.367
 30
0.0
 11
5.5250000000000004
 21
-5.3689999999999998
 31
0.0
  0
LINE
  8
0
 10
5.5250000000000004
 20
-5.3689999999999998
 30
0.0
 11
5.5410000000000004
 21
-5.3739999999999997
 31
0.0
  0
LINE
  8
0
 10
5.5410000000000004
 20
-5.3739999999999997
 30
0.0
 11
5.5570000000000004
 21
-5.3799999999999999
 31
0.0
  0
LINE
  8
0
 10
5.5570000000000004
 20
-5.3799999999999999
 30
0.0
 11
5.5709999999999997
 21
-5.3879999999999999
 31
0.0
  0
LINE
  8
0
 10
5.5709999999999997
 20
-5.3879999999999999
 30
0.0
 11
5.585
 21
-5.3979999999999997
 31
0.0
  0
LINE
  8
0
 10
5.585
 20
-5.3979999999999997
 30
0.0
 11
5.5970000000000004
 21
-5.4089999999999998
 31
0.0
  0
LINE
  8
0
 10
5.5970000000000004
 20
-5.4089999999999998
 30
0.0
 11
5.6079999999999997
 21
-5.4219999999999997
 31
0.0
  0
LINE
  8
0
 10
5.6079999999999997
 20
-5.4219999999999997
 30
0.0
 11
5.617
 21
-5.4359999999999999
 31
0.0
  0
LINE
  8
0
 10
5.617
 20
-5.4359999999999999
 30
0.0
 11
5.6239999999999997
 21
-5.4509999999999996
 31
0.0
  0
LINE
  8
0
 10
5.6239999999999997
 20
-5.4509999999999996
 30
0.0
 11
5.6289999999999996
 21
-5.4669999999999996
 31
0.0
  0
LINE
  8
0
 10
5.6289999999999996
 20
-5.4669999999999996
 30
0.0
 11
5.6319999999999997
 21
-5.4829999999999997
 31
0.0
  0
LINE
  8
0
 10
5.6319999999999997
 20
-5.4829999999999997
 30
0.0
 11
5.633
 21
-5.5
 31
0.0
  0
LINE
  8
0
 10
5.633
 20
-5.5
 30
0.0
 11
5.6319999999999997
 21
-5.5170000000000003
 31
0.0
  0
LINE
  8
0
 10
5.6319999999999997
 20
-5.5170000000000003
 30
0.0
 11
5.6289999999999996
 21
-5.5330000000000004
 31
0.0
  0
LINE
  8
0
 10
5.6289999999999996
 20
-5.5330000000000004
 30
0.0
 11
5.6239999999999997
 21
-5.5490000000000004
 31
0.0
  0
LINE
  8
0
 10
5.6239999999999997
 20
-5.5490000000000004
 30
0.0
 11
5.617
 21
-5.5640000000000001
 31
0.0
  0
LINE
  8
0
 10
5.617
 20
-5.5640000000000001
 30
0.0
 11
5.6079999999999997
 21
-5.5780000000000003
 31
0.0
  0
LINE
  8
0
 10
5.6079999999999997
 20
-5.5780000000000003
 30
0.0
 11
5.5970000000000004
 21
-5.5910000000000002
 31
0.0
  0
LINE
  8
0
 10
5.5970000000000004
 20
-5.5910000000000002
 30
0.0
 11
5.585
 21
-5.6020000000000003
 31
0.0
  0
LINE
  8
0
 10
5.585
 20
-5.6020000000000003
 30
0.0
 11
5.5709999999999997
 21
-5.6120000000000001
 31
0.0
  0
LINE
  8
0
 10
5.5709999999999997
 20
-5.6120000000000001
 30
0.0
 11
5.5570000000000004
 21
-5.6200000000000001
 31
0.0
  0
LINE
  8
0
 10
5.5570000000000004
 20
-5.6200000000000001
 30
0.0
 11
5.5410000000000004
 21
-5.6260000000000003
 31
0.0
  0
LINE
  8
0
 10
5.5410000000000004
 20
-5.6260000000000003
 30
0.0
 11
5.5250000000000004
 21
-5.6310000000000002
 31
0.0
  0
LINE
  8
0
 10
5.5250000000000004
 20
-5.6310000000000002
 30
0.0
 11
5.508
 21
-5.633
 31
0.0
  0
LINE
  8
0
 10
5.508
 20
-5.633
 30
0.0
 11
5.492
 21
-5.633
 31
0.0
  0
LINE
  8
0
 10
5.492
 20
-5.633
 30
0.0
 11
5.4749999999999996
 21
-5.6310000000000002
 31
0.0
  0
LINE
  8
0
 10
5.4749999999999996
 20
-5.6310000000000002
 30
0.0
 11
5.4589999999999996
 21
-5.6260000000000003
 31
0.0
  0
LINE
  8
0
 10
5.4589999999999996
 20
-5.6260000000000003
 30
0.0
 11
5.4429999999999996
 21
-5.6200000000000001
 31
0.0
  0
LINE
  8
0
 10
5.4429999999999996
 20
-5.6200000000000001
 30
0.0
 11
5.4290000000000003
 21
-5.6120000000000001
 31
0.0
  0
LINE
  8
0
 10
5.4290000000000003
 20
-5.6120000000000001
 30
0.0
 11
5.415
 21
-5.6020000000000003
 31
0.0
  0
LINE
  8
0
 10
5.415
 20
-5.6020000000000003
 30
0.0
 11
5.4029999999999996
 21
-5.5910000000000002
 31
0.0
  0
LINE
  8
0
 10
5.4029999999999996
 20
-5.5910000000000002
 30
0.0
 11
5.3920000000000003
 21
-5.5780000000000003
 31
0.0
  0
LINE
  8
0
 10
5.3920000000000003
 20
-5.5780000000000003
 30
0.0
 11
5.383
 21
-5.5640000000000001
 31
0.0
  0
LINE
  8
0
 10
5.383
 20
-5.5640000000000001
 30
0.0
 11
5.3760000000000003
 21
-5.5490000000000004
 31
0.0
  0
LINE
  8
0
 10
5.3760000000000003
 20
-5.5490000000000004
 30
0.0
 11
5.3710000000000004
 21
-5.5330000000000004
 31
0.0
  0
LINE
  8
0
 10
5.3710000000000004
 20
-5.5330000000000004
 30
0.0
 11
5.3680000000000003
 21
-5.5170000000000003
 31
0.0
  0
LINE
  8
0
 10
5.3680000000000003
 20
-5.5170000000000003
 30
0.0
 11
5.367
 21
-5.5
 31
0.0
  0
LINE
  8
0
 10
5.367
 20
5.5
 30
0.0
 11
5.3680000000000003
 21
5.5170000000000003
 31
0.0
  0
LINE
  8
0
 10
5.3680000000000003
 20
5.5170000000000003
 30
0.0
 11
5.3710000000000004
 21
5.5330000000000004
 31
0.0
  0
LINE
  8
0
 10
5.3710000000000004
 20
5.5330000000000004
 30
0.0
 11
5.3760000000000003
 21
5.5490000000000004
 31
0.0
  0
LINE
  8
0
 10
5.3760000000000003
 20
5.5490000000000004
 30
0.0
 11
5.383
 21
5.5640000000000001
 31
0.0
  0
LINE
  8
0
 10
5.383
 20
5.5640000000000001
 30
0.0
 11
5.3920000000000003
 21
5.5780000000000003
 31
0.0
  0
LINE
  8
0
 10
5.3920000000000003
 20
5.5780000000000003
 30
0.0
 11
5.4029999999999996
 21
5.5910000000000002
 31
0.0
  0
LINE
  8
0
 10
5.4029999999999996
 20
5.5910000000000002
 30
0.0
 11
5.415
 21
5.6020000000000003
 31
0.0
  0
LINE
  8
0
 10
5.415
 20
5.6020000000000003
 30
0.0
 11
5.4290000000000003
 21
5.6120000000000001
 31
0.0
  0
LINE
  8
0
 10
5.4290000000000003
 20
5.6120000000000001
 30
0.0
 11
5.4429999999999996
 21
5.6200000000000001
 31
0.0
  0
LINE
  8
0
 10
5.4429999999999996
 20
5.6200000000000001
 30
0.0
 11
5.4589999999999996
 21
5.6260000000000003
 31
0.0
  0
LINE
  8
0
 10
5.4589999999999996
 20
5.6260000000000003
 30
0.0
 11
5.4749999999999996
 21
5.6310000000000002
 31
0.0
  0
LINE
  8
0
 10
5.4749999999999996
 20
5.6310000000000002
 30
0.0
 11
5.492
 21
5.633
 31
0.0
  0
LINE
  8
0
 10
5.492
 20
5.633
 30
0.0
 11
5.508
 21
5.633
 31
0.0
  0
LINE
  8
0
 10
5.508
 20
5.633
 30
0.0
 11
5.5250000000000004
 21
5.6310000000000002
 31
0.0
  0
LINE
  8
0
 10
5.5250000000000004
 20
5.6310000000000002
 30
0.0
 11
5.5410000000000004
 21
5.6260000000000003
 31
0.0
  0
LINE
  8
0
 10
5.5410000000000004
 20
5.6260000000000003
 30
0.0
 11
5.5570000000000004
 21
5.6200000000000001
 31
0.0
  0
LINE
  8
0
 10
5.5570000000000004
 20
5.6200000000000001
 30
0.0
 11
5.5709999999999997
 21
5.6120000000000001
 31
0.0
  0
LINE
  8
0
 10
5.5709999999999997
 20
5.6120000000000001
 30
0.0
 11
5.585
 21
5.6020000000000003
 31
0.0
  0
LINE
  8
0
 10
5.585
 20
5.6020000000000003
 30
0.0
 11
5.5970000000000004
 21
5.5910000000000002
 31
0.0
  0
LINE
  8
0
 10
5.5970000000000004
 20
5.5910000000000002
 30
0.0
 11
5.6079999999999997
 21
5.5780000000000003
 31
0.0
  0
LINE
  8
0
 10
5.6079999999999997
 20
5.5780000000000003
 30
0.0
 11
5.617
 21
5.5640000000000001
 31
0.0
  0
LINE
  8
0
 10
5.617
 20
5.5640000000000001
 30
0.0
 11
5.6239999999999997
 21
5.5490000000000004
 31
0.0
  0
LINE
  8
0
 10
5.6239999999999997
 20
5.5490000000000004
 30
0.0
 11
5.6289999999999996
 21
5.5330000000000004
 31
0.0
  0
LINE
  8
0
 10
5.6289999999999996
 20
5.5330000000000004
 30
0.0
 11
5.6319999999999997
 21
5.5170000000000003
 31
0.0
  0
LINE
  8
0
 10
5.6319999999999997
 20
5.5170000000000003
 30
0.0
 11
5.633
 21
5.5
 31
0.0
  0
LINE
  8
0
 10
5.633
 20
5.5
 30
0.0
 11
5.6319999999999997
 21
5.4829999999999997
 31
0.0
  0
LINE
  8
0
 10
5.6319999999999997
 20
5.4829999999999997
 30
0.0
 11
5.6289999999999996
 21
5.4669999999999996
 31
0.0
  0
LINE
  8
0
 10
5.6289999999999996
 20
5.4669999999999996
 30
0.0
 11
5.6239999999999997
 21
5.4509999999999996
 31
0.0
  0
LINE
  8
0
 10
5.6239999999999997
 20
5.4509999999999996
 30
0.0
 11
5.617
 21
5.4359999999999999
 31
0.0
  0
LINE
  8
0
 10
5.617
 20
5.4359999999999999
 30
0.0
 11
5.6079999999999997
 21
5.4219999999999997
 31
0.0
  0
LINE
  8
0
 10
5.6079999999999997
 20
5.4219999999999997
 30
0.0
 11
5.5970000000000004
 21
5.4089999999999998
 31
0.0
  0
LINE
  8
0
 10
5.5970000000000004
 20
5.4089999999999998
 30
0.0
 11
5.585
 21
5.3979999999999997
 31
0.0
  0
LINE
  8
0
 10
5.585
 20
5.3979999999999997
 30
0.0
 11
5.5709999999999997
 21
5.3879999999999999
 31
0.0
  0
LINE
  8
0
 10
5.5709999999999997
 20
5.3879999999999999
 30
0.0
 11
5.5570000000000004
 21
5.3799999999999999
 31
0.0
  0
LINE
  8
0
 10
5.5570000000000004
 20
5.3799999999999999
 30
0.0
 11
5.5410000000000004
 21
5.3739999999999997
 31
0.0
  0
LINE
  8
0
 10
5.5410000000000004
 20
5.3739999999999997
 30
0.0
 11
5.5250000000000004
 21
5.3689999999999998
 31
0.0
  0
LINE
  8
0
 10
5.5250000000000004
 20
5.3689999999999998
 30
0.0
 11
5.508
 21
5.367
 31
0.0
  0
LINE
  8
0
 10
5.508
 20
5.367
 30
0.0
 11
5.492
 21
5.367
 31
0.0
  0
LINE
  8
0
 10
5.492
 20
5.367
 30
0.0
 11
5.4749999999999996
 21
5.3689999999999998
 31
0.0
  0
LINE
  8
0
 10
5.4749999999999996
 20
5.3689999999999998
 30
0.0
 11
5.4589999999999996
 21
5.3739999999999997
 31
0.0
  0
LINE
  8
0
 10
5.4589999999999996
 20
5.3739999999999997
 30
0.0
 11
5.4429999999999996
 21
5.3799999999999999
 31
0.0
  0
LINE
  8
0
 10
5.4429999999999996
 20
5.3799999999999999
 30
0.0
 11
5.4290000000000003
 21
5.3879999999999999
 31
0.0
  0
LINE
  8
0
 10
5.4290000000000003
 20
5.3879999999999999
 30
0.0
 11
5.415
 21
5.3979999999999997
 31
0.0
  0
LINE
  8
0
 10
5.415
 20
5.3979999999999997
 30
0.0
 11
5.4029999999999996
 21
5.4089999999999998
 31
0.0
  0
LINE
  8
0
 10
5.4029999999999996
 20
5.4089999999999998
 30
0.0
 11
5.3920000000000003
 21
5.4219999999999997
 31
0.0
  0
LINE
  8
0
 10
5.3920000000000003
 20
5.4219999999999997
 30
0.0
 11
5.383
 21
5.4359999999999999
 31
0.0
  0
LINE
  8
0
 10
5.383
 20
5.4359999999999999
 30
0.0
 11
5.3760000000000003
 21
5.4509999999999996
 31
0.0
  0
LINE
  8
0
 10
5.3760000000000003
 20
5.4509999999999996
 30
0.0
 11
5.3710000000000004
 21
5.4669999999999996
 31
0.0
  0
LINE
  8
0
 10
5.3710000000000004
 20
5.4669999999999996
 30
0.0
 11
5.3680000000000003
 21
5.4829999999999997
 31
0.0
  0
LINE
  8
0
 10
5.3680000000000003
 20
5.4829999999999997
 30
0.0
 11
5.367
 21
5.5
 31
0.0
  0
LINE
  8
0
 10
5.4199999999999999
 20
-4.5
 30
0.0
 11
5.4210000000000003
 21
-4.4900000000000002
 31
0.0
  0
LINE
  8
0
 10
5.4210000000000003
 20
-4.4900000000000002
 30
0.0
 11
5.423
 21
-4.4800000000000004
 31
0.0
  0
LINE
  8
0
 10
5.423
 20
-4.4800000000000004
 30
0.0
 11
5.4260000000000002
 21
-4.4710000000000001
 31
0.0
  0
LINE
  8
0
 10
5.4260000000000002
 20
-4.4710000000000001
 30
0.0
 11
5.4299999999999997
 21
-4.4619999999999997
 31
0.0
  0
LINE
  8
0
 10
5.4299999999999997
 20
-4.4619999999999997
 30
0.0
 11
5.4359999999999999
 21
-4.4530000000000003
 31
0.0
  0
LINE
  8
0
 10
5.4359999999999999
 20
-4.4530000000000003
 30
0.0
 11
5.4420000000000002
 21
-4.4459999999999997
 31
0.0
  0
LINE
  8
0
 10
5.4420000000000002
 20
-4.4459999999999997
 30
0.0
 11
5.4489999999999998
 21
-4.4390000000000001
 31
0.0
  0
LINE
  8
0
 10
5.4489999999999998
 20
-4.4390000000000001
 30
0.0
 11
5.4569999999999999
 21
-4.4329999999999998
 31
0.0
  0
LINE
  8
0
 10
5.4569999999999999
 20
-4.4329999999999998
 30
0.0
 11
5.4660000000000002
 21
-4.4279999999999999
 31
0.0
  0
LINE
  8
0
 10
5.4660000000000002
 20
-4.4279999999999999
 30
0.0
 11
5.4749999999999996
 21
-4.4240000000000004
 31
0.0
  0
LINE
  8
0
 10
5.4749999999999996
 20
-4.4240000000000004
 30
0.0
 11
5.4850000000000003
 21
-4.4219999999999997
 31
0.0
  0
LINE
  8
0
 10
5.4850000000000003
 20
-4.4219999999999997
 30
0.0
 11
5.4950000000000001
 21
-4.4210000000000003
 31
0.0
  0
LINE
  8
0
 10
5.4950000000000001
 20
-4.4210000000000003
 30
0.0
 11
5.5049999999999999
 21
-4.4210000000000003
 31
0.0
  0
LINE
  8
0
 10
5.5049999999999999
 20
-4.4210000000000003
 30
0.0
 11
5.5149999999999997
 21
-4.4219999999999997
 31
0.0
  0
LINE
  8
0
 10
5.5149999999999997
 20
-4.4219999999999997
 30
0.0
 11
5.5250000000000004
 21
-4.4240000000000004
 31
0.0
  0
LINE
  8
0
 10
5.5250000000000004
 20
-4.4240000000000004
 30
0.0
 11
5.5339999999999998
 21
-4.4279999999999999
 31
0.0
  0
LINE
  8
0
 10
5.5339999999999998
 20
-4.4279999999999999
 30
0.0
 11
5.5430000000000001
 21
-4.4329999999999998
 31
0.0
  0
LINE
  8
0
 10
5.5430000000000001
 20
-4.4329999999999998
 30
0.0
 11
5.5510000000000002
 21
-4.4390000000000001
 31
0.0
  0
LINE
  8
0
 10
5.5510000000000002
 20
-4.4390000000000001
 30
0.0
 11
5.5579999999999998
 21
-4.4459999999999997
 31
0.0
  0
LINE
  8
0
 10
5.5579999999999998
 20
-4.4459999999999997
 30
0.0
 11
5.5640000000000001
 21
-4.4530000000000003
 31
0.0
  0
LINE
  8
0
 10
5.5640000000000001
 20
-4.4530000000000003
 30
0.0
 11
5.5700000000000003
 21
-4.4619999999999997
 31
0.0
  0
LINE
  8
0
 10
5.5700000000000003
 20
-4.4619999999999997
 30
0.0
 11
5.5739999999999998
 21
-4.4710000000000001
 31
0.0
  0
LINE
  8
0
 10
5.5739999999999998
 20
-4.4710000000000001
 30
0.0
 11
5.577
 21
-4.4800000000000004
 31
0.0
  0
LINE
  8
0
 10
5.577
 20
-4.4800000000000004
 30
0.0
 11
5.5789999999999997
 21
-4.4900000000000002
 31
0.0
  0
LINE
  8
0
 10
5.5789999999999997
 20
-4.4900000000000002
 30
0.0
 11
5.5789999999999997
 21
-4.5099999999999998
 31
0.0
  0
LINE
  8
0
 10
5.5789999999999997
 20
-4.5099999999999998
 30
0.0
 11
5.577
 21
-4.5199999999999996
 31
0.0
  0
LINE
  8
0
 10
5.577
 20
-4.5199999999999996
 30
0.0
 11
5.5739999999999998
 21
-4.5289999999999999
 31
0.0
  0
LINE
  8
0
 10
5.5739999999999998
 20
-4.5289999999999999
 30
0.0
 11
5.5700000000000003
 21
-4.5380000000000003
 31
0.0
  0
LINE
  8
0
 10
5.5700000000000003
 20
-4.5380000000000003
 30
0.0
 11
5.5640000000000001
 21
-4.5469999999999997
 31
0.0
  0
LINE
  8
0
 10
5.5640000000000001
 20
-4.5469999999999997
 30
0.0
 11
5.5579999999999998
 21
-4.5540000000000003
 31
0.0
  0
LINE
  8
0
 10
5.5579999999999998
 20
-4.5540000000000003
 30
0.0
 11
5.5510000000000002
 21
-4.5609999999999999
 31
0.0
  0
LINE
  8
0
 10
5.5510000000000002
 20
-4.5609999999999999
 30
0.0
 11
5.5430000000000001
 21
-4.5670000000000002
 31
0.0
  0
LINE
  8
0
 10
5.5430000000000001
 20
-4.5670000000000002
 30
0.0
 11
5.5339999999999998
 21
-4.5720000000000001
 31
0.0
  0
LINE
  8
0
 10
5.5339999999999998
 20
-4.5720000000000001
 30
0.0
 11
5.5250000000000004
 21
-4.5759999999999996
 31
0.0
  0
LINE
  8
0
 10
5.5250000000000004
 20
-4.5759999999999996
 30
0.0
 11
5.5149999999999997
 21
-4.5780000000000003
 31
0.0
  0
LINE
  8
0
 10
5.5149999999999997
 20
-4.5780000000000003
 30
0.0
 11
5.5049999999999999
 21
-4.5789999999999997
 31
0.0
  0
LINE
  8
0
 10
5.5049999999999999
 20
-4.5789999999999997
 30
0.0
 11
5.4950000000000001
 21
-4.5789999999999997
 31
0.0
  0
LINE
  8
0
 10
5.4950000000000001
 20
-4.5789999999999997
 30
0.0
 11
5.4850000000000003
 21
-4.5780000000000003
 31
0.0
  0
LINE
  8
0
 10
5.4850000000000003
 20
-4.5780000000000003
 30
0.0
 11
5.4749999999999996
 21
-4.5759999999999996
 31
0.0
  0
LINE
  8
0
 10
5.4749999999999996
 20
-4.5759999999999996
 30
0.0
 11
5.4660000000000002
 21
-4.5720000000000001
 31
0.0
  0
LINE
  8
0
 10
5.4660000000000002
 20
-4.5720000000000001
 30
0.0
 11
5.4569999999999999
 21
-4.5670000000000002
 31
0.0
  0
LINE
  8
0
 10
5.4569999999999999
 20
-4.5670000000000002
 30
0.0
 11
5.4489999999999998
 21
-4.5609999999999999
 31
0.0
  0
LINE
  8
0
 10
5.4489999999999998
 20
-4.5609999999999999
 30
0.0
 11
5.4420000000000002
 21
-4.5540000000000003
 31
0.0
  0
LINE
  8
0
 10
5.4420000000000002
 20
-4.5540000000000003
 30
0.0
 11
5.4359999999999999
 21
-4.5469999999999997
 31
0.0
  0
LINE
  8
0
 10
5.4359999999999999
 20
-4.5469999999999997
 30
0.0
 11
5.4299999999999997
 21
-4.5380000000000003
 31
0.0
  0
LINE
  8
0
 10
5.4299999999999997
 20
-4.5380000000000003
 30
0.0
 11
5.4260000000000002
 21
-4.5289999999999999
 31
0.0
  0
LINE
  8
0
 10
5.4260000000000002
 20
-4.5289999999999999
 30
0.0
 11
5.423
 21
-4.5199999999999996
 31
0.0
  0
LINE
  8
0
 10
5.423
 20
-4.5199999999999996
 30
0.0
 11
5.4210000000000003
 21
-4.5099999999999998
 31
0.0
  0
LINE
  8
0
 10
5.4210000000000003
 20
-4.5099999999999998
 30
0.0
 11
5.4199999999999999
 21
-4.5
 31
0.0
  0
LINE
  8
0
 10
5.4199999999999999
 20
-2.25
 30
0.0
 11
5.4210000000000003
 21
-2.2400000000000002
 31
0.0
  0
LINE
  8
0
 10
5.4210000000000003
 20
-2.2400000000000002
 30
0.0
 11
5.423
 21
-2.23
 31
0.0
  0
LINE
  8
0
 10
5.423
 20
-2.23
 30
0.0
 11
5.4260000000000002
 21
-2.2210000000000001
 31
0.0
  0
LINE
  8
0
 10
5.4260000000000002
 20
-2.2210000000000001
 30
0.0
 11
5.4299999999999997
 21
-2.2120000000000002
 31
0.0
  0
LINE
  8
0
 10
5.4299999999999997
 20
-2.2120000000000002
 30
0.0
 11
5.4359999999999999
 21
-2.2029999999999998
 31
0.0
  0
LINE
  8
0
 10
5.4359999999999999
 20
-2.2029999999999998
 30
0.0
 11
5.4420000000000002
 21
-2.1960000000000002
 31
0.0
  0
LINE
  8
0
 10
5.4420000000000002
 20
-2.1960000000000002
 30
0.0
 11
5.4489999999999998
 21
-2.1890000000000001
 31
0.0
  0
LINE
  8
0
 10
5.4489999999999998
 20
-2.1890000000000001
 30
0.0
 11
5.4569999999999999
 21
-2.1829999999999998
 31
0.0
  0
LINE
  8
0
 10
5.4569999999999999
 20
-2.1829999999999998
 30
0.0
 11
5.4660000000000002
 21
-2.1779999999999999
 31
0.0
  0
LINE
  8
0
 10
5.4660000000000002
 20
-2.1779999999999999
 30
0.0
 11
5.4749999999999996
 21
-2.1739999999999999
 31
0.0
  0
LINE
  8
0
 10
5.4749999999999996
 20
-2.1739999999999999
 30
0.0
 11
5.4850000000000003
 21
-2.1720000000000002
 31
0.0
  0
LINE
  8
0
 10
5.4850000000000003
 20
-2.1720000000000002
 30
0.0
 11
5.4950000000000001
 21
-2.1709999999999998
 31
0.0
  0
LINE
  8
0
 10
5.4950000000000001
 20
-2.1709999999999998
 30
0.0
 11
5.5049999999999999
 21
-2.1709999999999998
 31
0.0
  0
LINE
  8
0
 10
5.5049999999999999
 20
-2.1709999999999998
 30
0.0
 11
5.5149999999999997
 21
-2.1720000000000002
 31
0.0
  0
LINE
  8
0
 10
5.5149999999999997
 20
-2.1720000000000002
 30
0.0
 11
5.5250000000000004
 21
-2.1739999999999999
 31
0.0
  0
LINE
  8
0
 10
5.5250000000000004
 20
-2.1739999999999999
 30
0.0
 11
5.5339999999999998
 21
-2.1779999999999999
 31
0.0
  0
LINE
  8
0
 10
5.5339999999999998
 20
-2.1779999999999999
 30
0.0
 11
5.5430000000000001
 21
-2.1829999999999998
 31
0.0
  0
LINE
  8
0
 10
5.5430000000000001
 20
-2.1829999999999998
 30
0.0
 11
5.5510000000000002
 21
-2.1890000000000001
 31
0.0
  0
LINE
  8
0
 10
5.5510000000000002
 20
-2.1890000000000001
 30
0.0
 11
5.5579999999999998
 21
-2.1960000000000002
 31
0.0
  0
LINE
  8
0
 10
5.5579999999999998
 20
-2.1960000000000002
 30
0.0
 11
5.5640000000000001
 21
-2.2029999999999998
 31
0.0
  0
LINE
  8
0
 10
5.5640000000000001
 20
-2.2029999999999998
 30
0.0
 11
5.5700000000000003
 21
-2.2120000000000002
 31
0.0
  0
LINE
  8
0
 10
5.5700000000000003
 20
-2.2120000000000002
 30
0.0
 11
5.5739999999999998
 21
-2.2210000000000001
 31
0.0
  0
LINE
  8
0
 10
5.5739999999999998
 20
-2.2210000000000001
 30
0.0
 11
5.577
 21
-2.23
 31
0.0
  0
LINE
  8
0
 10
5.577
 20
-2.23
 30
0.0
 11
5.5789999999999997
 21
-2.2400000000000002
 31
0.0
  0
LINE
  8
0
 10
5.5789999999999997
 20
-2.2400000000000002
 30
0.0
 11
5.5789999999999997
 21
-2.2599999999999998
 31
0.0
  0
LINE
  8
0
 10
5.5789999999999997
 20
-2.2599999999999998
 30
0.0
 11
5.577
 21
-2.27
 31
0.0
  0
LINE
  8
0
 10
5.577
 20
-2.27
 30
0.0
 11
5.5739999999999998
 21
-2.2789999999999999
 31
0.0
  0
LINE
  8
0
 10
5.5739999999999998
 20
-2.2789999999999999
 30
0.0
 11
5.5700000000000003
 21
-2.2879999999999998
 31
0.0
  0
LINE
  8
0
 10
5.5700000000000003
 20
-2.2879999999999998
 30
0.0
 11
5.5640000000000001
 21
-2.2970000000000002
 31
0.0
  0
LINE
  8
0
 10
5.5640000000000001
 20
-2.2970000000000002
 30
0.0
 11
5.5579999999999998
 21
-2.3039999999999998
 31
0.0
  0
LINE
  8
0
 10
5.5579999999999998
 20
-2.3039999999999998
 30
0.0
 11
5.5510000000000002
 21
-2.3109999999999999
 31
0.0
  0
LINE
  8
0
 10
5.5510000000000002
 20
-2.3109999999999999
 30
0.0
 11
5.5430000000000001
 21
-2.3170000000000002
 31
0.0
  0
LINE
  8
0
 10
5.5430000000000001
 20
-2.3170000000000002
 30
0.0
 11
5.5339999999999998
 21
-2.3220000000000001
 31
0.0
  0
LINE
  8
0
 10
5.5339999999999998
 20
-2.3220000000000001
 30
0.0
 11
5.5250000000000004
 21
-2.3260000000000001
 31
0.0
  0
LINE
  8
0
 10
5.5250000000000004
 20
-2.3260000000000001
 30
0.0
 11
5.5149999999999997
 21
-2.3279999999999998
 31
0.0
  0
LINE
  8
0
 10
5.5149999999999997
 20
-2.3279999999999998
 30
0.0
 11
5.5049999999999999
 21
-2.3290000000000002
 31
0.0
  0
LINE
  8
0
 10
5.5049999999999999
 20
-2.3290000000000002
 30
0.0
 11
5.4950000000000001
 21
-2.3290000000000002
 31
0.0
  0
LINE
  8
0
 10
5.4950000000000001
 20
-2.3290000000000002
 30
0.0
 11
5.4850000000000003
 21
-2.3279999999999998
 31
0.0
  0
LINE
  8
0
 10
5.4850000000000003
 20
-2.3279999999999998
 30
0.0
 11
5.4749999999999996
 21
-2.3260000000000001
 31
0.0
  0
LINE
  8
0
 10
5.4749999999999996
 20
-2.3260000000000001
 30
0.0
 11
5.4660000000000002
 21
-2.3220000000000001
 31
0.0
  0
LINE
  8
0
 10
5.4660000000000002
 20
-2.3220000000000001
 30
0.0
 11
5.4569999999999999
 21
-2.3170000000000002
 31
0.0
  0
LINE
  8
0
 10
5.4569999999999999
 20
-2.3170000000000002
 30
0.0
 11
5.4489999999999998
 21
-2.3109999999999999
 31
0.0
  0
LINE
  8
0
 10
5.4489999999999998
 20
-2.3109999999999999
 30
0.0
 11
5.4420000000000002
 21
-2.3039999999999998
 31
0.0
  0
LINE
  8
0
 10
5.4420000000000002
 20
-2.3039999999999998
 30
0.0
 11
5.4359999999999999
 21
-2.2970000000000002
 31
0.0
  0
LINE
  8
0
 10
5.4359999999999999
 20
-2.2970000000000002
 30
0.0
 11
5.4299999999999997
 21
-2.2879999999999998
 31
0.0
  0
LINE
  8
0
 10
5.4299999999999997
 20
-2.2879999999999998
 30
0.0
 11
5.4260000000000002
 21
-2.2789999999999999
 31
0.0
  0
LINE
  8
0
 10
5.4260000000000002
 20
-2.2789999999999999
 30
0.0
 11
5.423
 21
-2.27
 31
0.0
  0
LINE
  8
0
 10
5.423
 20
-2.27
 30
0.0
 11
5.4210000000000003
 21
-2.2599999999999998
 31
0.0
  0
LINE
  8
0
 10
5.4210000000000003
 20
-2.2599999999999998
 30
0.0
 11
5.4199999999999999
 21
-2.25
 31
0.0
  0
LINE
  8
0
 10
5.4199999999999999
 20
2.25
 30
0.0
 11
5.4210000000000003
 21
2.2599999999999998
 31
0.0
  0
LINE
  8
0
 10
5.4210000000000003
 20
2.2599999999999998
 30
0.0
 11
5.423
 21
2.27
 31
0.0
  0
LINE
  8
0
 10
5.423
 20
2.27
 30
0.0
 11
5.4260000000000002
 21
2.2789999999999999
 31
0.0
  0
LINE
  8
0
 10
5.4260000000000002
 20
2.2789999999999999
 30
0.0
 11
5.4299999999999997
 21
2.2879999999999998
 31
0.0
  0
LINE
  8
0
 10
5.4299999999999997
 20
2.2879999999999998
 30
0.0
 11
5.4359999999999999
 21
2.2970000000000002
 31
0.0
  0
LINE
  8
0
 10
5.4359999999999999
 20
2.2970000000000002
 30
0.0
 11
5.4420000000000002
 21
2.3039999999999998
 31
0.0
  0
LINE
  8
0
 10
5.4420000000000002
 20
2.3039999999999998
 30
0.0
 11
5.4489999999999998
 21
2.3109999999999999
 31
0.0
  0
LINE
  8
0
 10
5.4489999999999998
 20
2.3109999999999999
 30
0.0
 11
5.4569999999999999
 21
2.3170000000000002
 31
0.0
  0
LINE
  8
0
 10
5.4569999999999999
 20
2.3170000000000002
 30
0.0
 11
5.4660000000000002
 21
2.3220000000000001
 31
0.0
  0
LINE
  8
0
 10
5.4660000000000002
 20
2.3220000000000001
 30
0.0
 11
5.4749999999999996
 21
2.3260000000000001
 31
0.0
  0
LINE
  8
0
 10
5.4749999999999996
 20
2.3260000000000001
 30
0.0
 11
5.4850000000000003
 21
2.3279999999999998
 31
0.0
  0
LINE
  8
0
 10
5.4850000000000003
 20
2.3279999999999998
 30
0.0
 11
5.4950000000000001
 21
2.3290000000000002
 31
0.0
  0
LINE
  8
0
 10
5.4950000000000001
 20
2.3290000000000002
 30
0.0
 11
5.5049999999999999
 21
2.3290000000000002
 31
0.0
  0
LINE
  8
0
 10
5.5049999999999999
 20
2.3290000000000002
 30
0.0
 11
5.5149999999999997
 21
2.3279999999999998
 31
0.0
  0
LINE
  8
0
 10
5.5149999999999997
 20
2.3279999999999998
 30
0.0
 11
5.5250000000000004
 21
2.3260000000000001
 31
0.0
  0
LINE
  8
0
 10
5.5250000000000004
 20
2.3260000000000001
 30
0.0
 11
5.5339999999999998
 21
2.3220000000000001
 31
0.0
  0
LINE
  8
0
 10
5.5339999999999998
 20
2.3220000000000001
 30
0.0
 11
5.5430000000000001
 21
2.3170000000000002
 31
0.0
  0
LINE
  8
0
 10
5.5430000000000001
 20
2.3170000000000002
 30
0.0
 11
5.5510000000000002
 21
2.3109999999999999
 31
0.0
  0
LINE
  8
0
 10
5.5510000000000002
 20
2.3109999999999999
 30
0.0
 11
5.5579999999999998
 21
2.3039999999999998
 31
0.0
  0
LINE
  8
0
 10
5.5579999999999998
 20
2.3039999999999998
 30
0.0
 11
5.5640000000000001
 21
2.2970000000000002
 31
0.0
  0
LINE
  8
0
 10
5.5640000000000001
 20
2.2970000000000002
 30
0.0
 11
5.5700000000000003
 21
2.2879999999999998
 31
0.0
  0
LINE
  8
0
 10
5.5700000000000003
 20
2.2879999999999998
 30
0.0
 11
5.5739999999999998
 21
2.2789999999999999
 31
0.0
  0
LINE
  8
0
 10
5.5739999999999998
 20
2.2789999999999999
 30
0.0
 11
5.577
 21
2.27
 31
0.0
  0
LINE
  8
0
 10
5.577
 20
2.27
 30
0.0
 11
5.5789999999999997
 21
2.2599999999999998
 31
0.0
  0
LINE
  8
0
 10
5.5789999999999997
 20
2.2599999999999998
 30
0.0
 11
5.5789999999999997
 21
2.2400000000000002
 31
0.0
  0
LINE
  8
0
 10
5.5789999999999997
 20
2.2400000000000002
 30
0.0
 11
5.577
 21
2.23
 31
0.0
  0
LINE
  8
0
 10
5.577
 20
2.23
 30
0.0
 11
5.5739999999999998
 21
2.2210000000000001
 31
0.0
  0
LINE
  8
0
 10
5.5739999999999998
 20
2.2210000000000001
 30
0.0
 11
5.5700000000000003
 21
2.2120000000000002
 31
0.0
  0
LINE
  8
0
 10
5.5700000000000003
 20
2.2120000000000002
 30
0.0
 11
5.5640000000000001
 21
2.2029999999999998
 31
0.0
  0
LINE
  8
0
 10
5.5640000000000001
 20
2.2029999999999998
 30
0.0
 11
5.5579999999999998
 21
2.1960000000000002
 31
0.0
  0
LINE
  8
0
 10
5.5579999999999998
 20
2.1960000000000002
 30
0.0
 11
5.5510000000000002
 21
2.1890000000000001
 31
0.0
  0
LINE
  8
0
 10
5.5510000000000002
 20
2.1890000000000001
 30
0.0
 11
5.5430000000000001
 21
2.1829999999999998
 31
0.0
  0
LINE
  8
0
 10
5.5430000000000001
 20
2.1829999999999998
 30
0.0
 11
5.5339999999999998
 21
2.1779999999999999
 31
0.0
  0
LINE
  8
0
 10
5.5339999999999998
 20
2.1779999999999999
 30
0.0
 11
5.5250000000000004
 21
2.1739999999999999
 31
0.0
  0
LINE
  8
0
 10
5.5250000000000004
 20
2.1739999999999999
 30
0.0
 11
5.5149999999999997
 21
2.1720000000000002
 31
0.0
  0
LINE
  8
0
 10
5.5149999999999997
 20
2.1720000000000002
 30
0.0
 11
5.5049999999999999
 21
2.1709999999999998
 31
0.0
  0
LINE
  8
0
 10
5.5049999999999999
 20
2.1709999999999998
 30
0.0
 11
5.4950000000000001
 21
2.1709999999999998
 31
0.0
  0
LINE
  8
0
 10
5.4950000000000001
 20
2.1709999999999998
 30
0.0
 11
5.4850000000000003
 21
2.1720000000000002
 31
0.0
  0
LINE
  8
0
 10
5.4850000000000003
 20
2.1720000000000002
 30
0.0
 11
5.4749999999999996
 21
2.1739999999999999
 31
0.0
  0
LINE
  8
0
 10
5.4749999999999996
 20
2.1739999999999999
 30
0.0
 11
5.4660000000000002
 21
2.1779999999999999
 31
0.0
  0
LINE
  8
0
 10
5.4660000000000002
 20
2.1779999999999999
 30
0.0
 11
5.4569999999999999
 21
2.1829999999999998
 31
0.0
  0
LINE
  8
0
 10
5.4569999999999999
 20
2.1829999999999998
 30
0.0
 11
5.4489999999999998
 21
2.1890000000000001
 31
0.0
  0
LINE
  8
0
 10
5.4489999999999998
 20
2.1890000000000001
 30
0.0
 11
5.4420000000000002
 21
2.1960000000000002
 31
0.0
  0
LINE
  8
0
 10
5.4420000000000002
 20
2.1960000000000002
 30
0.0
 11
5.4359999999999999
 21
2.2029999999999998
 31
0.0
  0
LINE
  8
0
 10
5.4359999999999999
 20
2.2029999999999998
 30
0.0
 11
5.4299999999999997
 21
2.2120000000000002
 31
0.0
  0
LINE
  8
0
 10
5.4299999999999997
 20
2.2120000000000002
 30
0.0
 11
5.4260000000000002
 21
2.2210000000000001
 31
0.0
  0
LINE
  8
0
 10
5.4260000000000002
 20
2.2210000000000001
 30
0.0
 11
5.423
 21
2.23
 31
0.0
  0
LINE
  8
0
 10
5.423
 20
2.23
 30
0.0
 11
5.4210000000000003
 21
2.2400000000000002
 31
0.0
  0
LINE
  8
0
 10
5.4210000000000003
 20
2.2400000000000002
 30
0.0
 11
5.4199999999999999
 21
2.25
 31
0.0
  0
LINE
  8
0
 10
5.4199999999999999
 20
4.5
 30
0.0
 11
5.4210000000000003
 21
4.5099999999999998
 31
0.0
  0
LINE
  8
0
 10
5.4210000000000003
 20
4.5099999999999998
 30
0.0
 11
5.423
 21
4.5199999999999996
 31
0.0
  0
LINE
  8
0
 10
5.423
 20
4.5199999999999996
 30
0.0
 11
5.4260000000000002
 21
4.5289999999999999
 31
0.0
  0
LINE
  8
0
 10
5.4260000000000002
 20
4.5289999999999999
 30
0.0
 11
5.4299999999999997
 21
4.5380000000000003
 31
0.0
  0
LINE
  8
0
 10
5.4299999999999997
 20
4.5380000000000003
 30
0.0
 11
5.4359999999999999
 21
4.5469999999999997
 31
0.0
  0
LINE
  8
0
 10
5.4359999999999999
 20
4.5469999999999997
 30
0.0
 11
5.4420000000000002
 21
4.5540000000000003
 31
0.0
  0
LINE
  8
0
 10
5.4420000000000002
 20
4.5540000000000003
 30
0.0
 11
5.4489999999999998
 21
4.5609999999999999
 31
0.0
  0
LINE
  8
0
 10
5.4489999999999998
 20
4.5609999999999999
 30
0.0
 11
5.4569999999999999
 21
4.5670000000000002
 31
0.0
  0
LINE
  8
0
 10
5.4569999999999999
 20
4.5670000000000002
 30
0.0
 11
5.4660000000000002
 21
4.5720000000000001
 31
0.0
  0
LINE
  8
0
 10
5.4660000000000002
 20
4.5720000000000001
 30
0.0
 11
5.4749999999999996
 21
4.5759999999999996
 31
0.0
  0
LINE
  8
0
 10
5.4749999999999996
 20
4.5759999999999996
 30
0.0
 11
5.4850000000000003
 21
4.5780000000000003
 31
0.0
  0
LINE
  8
0
 10
5.4850000000000003
 20
4.5780000000000003
 30
0.0
 11
5.4950000000000001
 21
4.5789999999999997
 31
0.0
  0
LINE
  8
0
 10
5.4950000000000001
 20
4.5789999999999997
 30
0.0
 11
5.5049999999999999
 21
4.5789999999999997
 31
0.0
  0
LINE
  8
0
 10
5.5049999999999999
 20
4.5789999999999997
 30
0.0
 11
5.5149999999999997
 21
4.5780000000000003
 31
0.0
  0
LINE
  8
0
 10
5.5149999999999997
 20
4.5780000000000003
 30
0.0
 11
5.5250000000000004
 21
4.5759999999999996
 31
0.0
  0
LINE
  8
0
 10
5.5250000000000004
 20
4.5759999999999996
 30
0.0
 11
5.5339999999999998
 21
4.5720000000000001
 31
0.0
  0
LINE
  8
0
 10
5.5339999999999998
 20
4.5720000000000001
 30
0.0
 11
5.5430000000000001
 21
4.5670000000000002
 31
0.0
  0
LINE
  8
0
 10
5.5430000000000001
 20
4.5670000000000002
 30
0.0
 11
5.5510000000000002
 21
4.5609999999999999
 31
0.0
  0
LINE
  8
0
 10
5.5510000000000002
 20
4.5609999999999999
 30
0.0
 11
5.5579999999999998
 21
4.5540000000000003
 31
0.0
  0
LINE
  8
0
 10
5.5579999999999998
 20
4.5540000000000003
 30
0.0
 11
5.5640000000000001
 21
4.5469999999999997
 31
0.0
  0
LINE
  8
0
 10
5.5640000000000001
 20
4.5469999999999997
 30
0.0
 11
5.5700000000000003
 21
4.5380000000000003
 31
0.0
  0
LINE
  8
0
 10
5.5700000000000003
 20
4.5380000000000003
 30
0.0
 11
5.5739999999999998
 21
4.5289999999999999
 31
0.0
  0
LINE
  8
0
 10
5.5739999999999998
 20
4.5289999999999999
 30
0.0
 11
5.577
 21
4.5199999999999996
 31
0.0
  0
LINE
  8
0
 10
5.577
 20
4.5199999999999996
 30
0.0
 11
5.5789999999999997
 21
4.5099999999999998
 31
0.0
  0
LINE
  8
0
 10
5.5789999999999997
 20
4.5099999999999998
 30
0.0
 11
5.5789999999999997
 21
4.4900000000000002
 31
0.0
  0
LINE
  8
0
 10
5.5789999999999997
 20
4.4900000000000002
 30
0.0
 11
5.577
 21
4.4800000000000004
 31
0.0
  0
LINE
  8
0
 10
5.577
 20
4.4800000000000004
 30
0.0
 11
5.5739999999999998
 21
4.4710000000000001
 31
0.0
  0
LINE
  8
0
 10
5.5739999999999998
 20
4.4710000000000001
 30
0.0
 11
5.5700000000000003
 21
4.4619999999999997
 31
0.0
  0
LINE
  8
0
 10
5.5700000000000003
 20
4.4619999999999997
 30
0.0
 11
5.5640000000000001
 21
4.4530000000000003
 31
0.0
  0
LINE
  8
0
 10
5.5640000000000001
 20
4.4530000000000003
 30
0.0
 11
5.5579999999999998
 21
4.4459999999999997
 31
0.0
  0
LINE
  8
0
 10
5.5579999999999998
 20
4.4459999999999997
 30
0.0
 11
5.5510000000000002
 21
4.4390000000000001
 31
0.0
  0
LINE
  8
0
 10
5.5510000000000002
 20
4.4390000000000001
 30
0.0
 11
5.5430000000000001
 21
4.4329999999999998
 31
0.0
  0
LINE
  8
0
 10
5.5430000000000001
 20
4.4329999999999998
 30
0.0
 11
5.5339999999999998
 21
4.4279999999999999
 31
0.0
  0
LINE
  8
0
 10
5.5339999999999998
 20
4.4279999999999999
 30
0.0
 11
5.5250000000000004
 21
4.4240000000000004
 31
0.0
  0
LINE
  8
0
 10
5.5250000000000004
 20
4.4240000000000004
 30
0.0
 11
5.5149999999999997
 21
4.4219999999999997
 31
0.0
  0
LINE
  8
0
 10
5.5149999999999997
 20
4.4219999999999997
 30
0.0
 11
5.5049999999999999
 21
4.4210000000000003
 31
0.0
  0
LINE
  8
0
 10
5.5049999999999999
 20
4.4210000000000003
 30
0.0
 11
5.4950000000000001
 21
4.4210000000000003
 31
0.0
  0
LINE
  8
0
 10
5.4950000000000001
 20
4.4210000000000003
 30
0.0
 11
5.4850000000000003
 21
4.4219999999999997
 31
0.0
  0
LINE
  8
0
 10
5.4850000000000003
 20
4.4219999999999997
 30
0.0
 11
5.4749999999999996
 21
4.4240000000000004
 31
0.0
  0
LINE
  8
0
 10
5.4749999999999996
 20
4.4240000000000004
 30
0.0
 11
5.4660000000000002
 21
4.4279999999999999
 31
0.0
  0
LINE
  8
0
 10
5.4660000000000002
 20
4.4279999999999999
 30
0.0
 11
5.4569999999999999
 21
4.4329999999999998
 31
0.0
  0
LINE
  8
0
 10
5.4569999999999999
 20
4.4329999999999998
 30
0.0
 11
5.4489999999999998
 21
4.4390000000000001
 31
0.0
  0
LINE
  8
0
 10
5.4489999999999998
 20
4.4390000000000001
 30
0.0
 11
5.4420000000000002
 21
4.4459999999999997
 31
0.0
  0
LINE
  8
0
 10
5.4420000000000002
 20
4.4459999999999997
 30
0.0
 11
5.4359999999999999
 21
4.4530000000000003
 31
0.0
  0
LINE
  8
0
 10
5.4359999999999999
 20
4.4530000000000003
 30
0.0
 11
5.4299999999999997
 21
4.4619999999999997
 31
0.0
  0
LINE
  8
0
 10
5.4299999999999997
 20
4.4619999999999997
 30
0.0
 11
5.4260000000000002
 21
4.4710000000000001
 31
0.0
  0
LINE
  8
0
 10
5.4260000000000002
 20
4.4710000000000001
 30
0.0
 11
5.423
 21
4.4800000000000004
 31
0.0
  0
LINE
  8
0
 10
5.423
 20
4.4800000000000004
 30
0.0
 11
5.4210000000000003
 21
4.4900000000000002
 31
0.0
  0
LINE
  8
0
 10
5.4210000000000003
 20
4.4900000000000002
 30
0.0
 11
5.4199999999999999
 21
4.5
 31
0.0
  0
ENDSEC
  0
EOF
