  0
SECTION
  2
ENTITIES
  0
LINE
 10
-6.000000
 11
-6.000000
 20
-6.000000
 21
6.000000
  0
LINE
 10
-6.000000
 11
6.000000
 20
6.000000
 21
6.000000
  0
LINE
 10
6.000000
 11
6.000000
 20
6.000000
 21
-6.000000
  0
LINE
 10
6.000000
 11
-6.000000
 20
-6.000000
 21
-6.000000
  0
LINE
 10
-5.633000
 11
-5.632000
 20
-5.500000
 21
-5.483000
  0
LINE
 10
-5.632000
 11
-5.629000
 20
-5.483000
 21
-5.467000
  0
LINE
 10
-5.629000
 11
-5.624000
 20
-5.467000
 21
-5.451000
  0
LINE
 10
-5.624000
 11
-5.617000
 20
-5.451000
 21
-5.436000
  0
LINE
 10
-5.617000
 11
-5.608000
 20
-5.436000
 21
-5.422000
  0
LINE
 10
-5.608000
 11
-5.597000
 20
-5.422000
 21
-5.409000
  0
LINE
 10
-5.597000
 11
-5.585000
 20
-5.409000
 21
-5.398000
  0
LINE
 10
-5.585000
 11
-5.571000
 20
-5.398000
 21
-5.388000
  0
LINE
 10
-5.571000
 11
-5.557000
 20
-5.388000
 21
-5.380000
  0
LINE
 10
-5.557000
 11
-5.541000
 20
-5.380000
 21
-5.374000
  0
LINE
 10
-5.541000
 11
-5.525000
 20
-5.374000
 21
-5.369000
  0
LINE
 10
-5.525000
 11
-5.508000
 20
-5.369000
 21
-5.367000
  0
LINE
 10
-5.508000
 11
-5.492000
 20
-5.367000
 21
-5.367000
  0
LINE
 10
-5.492000
 11
-5.475000
 20
-5.367000
 21
-5.369000
  0
LINE
 10
-5.475000
 11
-5.459000
 20
-5.369000
 21
-5.374000
  0
LINE
 10
-5.459000
 11
-5.443000
 20
-5.374000
 21
-5.380000
  0
LINE
 10
-5.443000
 11
-5.429000
 20
-5.380000
 21
-5.388000
  0
LINE
 10
-5.429000
 11
-5.415000
 20
-5.388000
 21
-5.398000
  0
LINE
 10
-5.415000
 11
-5.403000
 20
-5.398000
 21
-5.409000
  0
LINE
 10
-5.403000
 11
-5.392000
 20
-5.409000
 21
-5.422000
  0
LINE
 10
-5.392000
 11
-5.383000
 20
-5.422000
 21
-5.436000
  0
LINE
 10
-5.383000
 11
-5.376000
 20
-5.436000
 21
-5.451000
  0
LINE
 10
-5.376000
 11
-5.371000
 20
-5.451000
 21
-5.467000
  0
LINE
 10
-5.371000
 11
-5.368000
 20
-5.467000
 21
-5.483000
  0
LINE
 10
-5.368000
 11
-5.367000
 20
-5.483000
 21
-5.500000
  0
LINE
 10
-5.367000
 11
-5.368000
 20
-5.500000
 21
-5.517000
  0
LINE
 10
-5.368000
 11
-5.371000
 20
-5.517000
 21
-5.533000
  0
LINE
 10
-5.371000
 11
-5.376000
 20
-5.533000
 21
-5.549000
  0
LINE
 10
-5.376000
 11
-5.383000
 20
-5.549000
 21
-5.564000
  0
LINE
 10
-5.383000
 11
-5.392000
 20
-5.564000
 21
-5.578000
  0
LINE
 10
-5.392000
 11
-5.403000
 20
-5.578000
 21
-5.591000
  0
LINE
 10
-5.403000
 11
-5.415000
 20
-5.591000
 21
-5.602000
  0
LINE
 10
-5.415000
 11
-5.429000
 20
-5.602000
 21
-5.612000
  0
LINE
 10
-5.429000
 11
-5.443000
 20
-5.612000
 21
-5.620000
  0
LINE
 10
-5.443000
 11
-5.459000
 20
-5.620000
 21
-5.626000
  0
LINE
 10
-5.459000
 11
-5.475000
 20
-5.626000
 21
-5.631000
  0
LINE
 10
-5.475000
 11
-5.492000
 20
-5.631000
 21
-5.633000
  0
LINE
 10
-5.492000
 11
-5.508000
 20
-5.633000
 21
-5.633000
  0
LINE
 10
-5.508000
 11
-5.525000
 20
-5.633000
 21
-5.631000
  0
LINE
 10
-5.525000
 11
-5.541000
 20
-5.631000
 21
-5.626000
  0
LINE
 10
-5.541000
 11
-5.557000
 20
-5.626000
 21
-5.620000
  0
LINE
 10
-5.557000
 11
-5.571000
 20
-5.620000
 21
-5.612000
  0
LINE
 10
-5.571000
 11
-5.585000
 20
-5.612000
 21
-5.602000
  0
LINE
 10
-5.585000
 11
-5.597000
 20
-5.602000
 21
-5.591000
  0
LINE
 10
-5.597000
 11
-5.608000
 20
-5.591000
 21
-5.578000
  0
LINE
 10
-5.608000
 11
-5.617000
 20
-5.578000
 21
-5.564000
  0
LINE
 10
-5.617000
 11
-5.624000
 20
-5.564000
 21
-5.549000
  0
LINE
 10
-5.624000
 11
-5.629000
 20
-5.549000
 21
-5.533000
  0
LINE
 10
-5.629000
 11
-5.632000
 20
-5.533000
 21
-5.517000
  0
LINE
 10
-5.632000
 11
-5.633000
 20
-5.517000
 21
-5.500000
  0
LINE
 10
-5.633000
 11
-5.632000
 20
5.500000
 21
5.517000
  0
LINE
 10
-5.632000
 11
-5.629000
 20
5.517000
 21
5.533000
  0
LINE
 10
-5.629000
 11
-5.624000
 20
5.533000
 21
5.549000
  0
LINE
 10
-5.624000
 11
-5.617000
 20
5.549000
 21
5.564000
  0
LINE
 10
-5.617000
 11
-5.608000
 20
5.564000
 21
5.578000
  0
LINE
 10
-5.608000
 11
-5.597000
 20
5.578000
 21
5.591000
  0
LINE
 10
-5.597000
 11
-5.585000
 20
5.591000
 21
5.602000
  0
LINE
 10
-5.585000
 11
-5.571000
 20
5.602000
 21
5.612000
  0
LINE
 10
-5.571000
 11
-5.557000
 20
5.612000
 21
5.620000
  0
LINE
 10
-5.557000
 11
-5.541000
 20
5.620000
 21
5.626000
  0
LINE
 10
-5.541000
 11
-5.525000
 20
5.626000
 21
5.631000
  0
LINE
 10
-5.525000
 11
-5.508000
 20
5.631000
 21
5.633000
  0
LINE
 10
-5.508000
 11
-5.492000
 20
5.633000
 21
5.633000
  0
LINE
 10
-5.492000
 11
-5.475000
 20
5.633000
 21
5.631000
  0
LINE
 10
-5.475000
 11
-5.459000
 20
5.631000
 21
5.626000
  0
LINE
 10
-5.459000
 11
-5.443000
 20
5.626000
 21
5.620000
  0
LINE
 10
-5.443000
 11
-5.429000
 20
5.620000
 21
5.612000
  0
LINE
 10
-5.429000
 11
-5.415000
 20
5.612000
 21
5.602000
  0
LINE
 10
-5.415000
 11
-5.403000
 20
5.602000
 21
5.591000
  0
LINE
 10
-5.403000
 11
-5.392000
 20
5.591000
 21
5.578000
  0
LINE
 10
-5.392000
 11
-5.383000
 20
5.578000
 21
5.564000
  0
LINE
 10
-5.383000
 11
-5.376000
 20
5.564000
 21
5.549000
  0
LINE
 10
-5.376000
 11
-5.371000
 20
5.549000
 21
5.533000
  0
LINE
 10
-5.371000
 11
-5.368000
 20
5.533000
 21
5.517000
  0
LINE
 10
-5.368000
 11
-5.367000
 20
5.517000
 21
5.500000
  0
LINE
 10
-5.367000
 11
-5.368000
 20
5.500000
 21
5.483000
  0
LINE
 10
-5.368000
 11
-5.371000
 20
5.483000
 21
5.467000
  0
LINE
 10
-5.371000
 11
-5.376000
 20
5.467000
 21
5.451000
  0
LINE
 10
-5.376000
 11
-5.383000
 20
5.451000
 21
5.436000
  0
LINE
 10
-5.383000
 11
-5.392000
 20
5.436000
 21
5.422000
  0
LINE
 10
-5.392000
 11
-5.403000
 20
5.422000
 21
5.409000
  0
LINE
 10
-5.403000
 11
-5.415000
 20
5.409000
 21
5.398000
  0
LINE
 10
-5.415000
 11
-5.429000
 20
5.398000
 21
5.388000
  0
LINE
 10
-5.429000
 11
-5.443000
 20
5.388000
 21
5.380000
  0
LINE
 10
-5.443000
 11
-5.459000
 20
5.380000
 21
5.374000
  0
LINE
 10
-5.459000
 11
-5.475000
 20
5.374000
 21
5.369000
  0
LINE
 10
-5.475000
 11
-5.492000
 20
5.369000
 21
5.367000
  0
LINE
 10
-5.492000
 11
-5.508000
 20
5.367000
 21
5.367000
  0
LINE
 10
-5.508000
 11
-5.525000
 20
5.367000
 21
5.369000
  0
LINE
 10
-5.525000
 11
-5.541000
 20
5.369000
 21
5.374000
  0
LINE
 10
-5.541000
 11
-5.557000
 20
5.374000
 21
5.380000
  0
LINE
 10
-5.557000
 11
-5.571000
 20
5.380000
 21
5.388000
  0
LINE
 10
-5.571000
 11
-5.585000
 20
5.388000
 21
5.398000
  0
LINE
 10
-5.585000
 11
-5.597000
 20
5.398000
 21
5.409000
  0
LINE
 10
-5.597000
 11
-5.608000
 20
5.409000
 21
5.422000
  0
LINE
 10
-5.608000
 11
-5.617000
 20
5.422000
 21
5.436000
  0
LINE
 10
-5.617000
 11
-5.624000
 20
5.436000
 21
5.451000
  0
LINE
 10
-5.624000
 11
-5.629000
 20
5.451000
 21
5.467000
  0
LINE
 10
-5.629000
 11
-5.632000
 20
5.467000
 21
5.483000
  0
LINE
 10
-5.632000
 11
-5.633000
 20
5.483000
 21
5.500000
  0
LINE
 10
-5.579000
 11
-5.579000
 20
-4.510000
 21
-4.490000
  0
LINE
 10
-5.579000
 11
-5.577000
 20
-4.490000
 21
-4.480000
  0
LINE
 10
-5.577000
 11
-5.574000
 20
-4.480000
 21
-4.471000
  0
LINE
 10
-5.574000
 11
-5.570000
 20
-4.471000
 21
-4.462000
  0
LINE
 10
-5.570000
 11
-5.564000
 20
-4.462000
 21
-4.453000
  0
LINE
 10
-5.564000
 11
-5.558000
 20
-4.453000
 21
-4.446000
  0
LINE
 10
-5.558000
 11
-5.551000
 20
-4.446000
 21
-4.439000
  0
LINE
 10
-5.551000
 11
-5.543000
 20
-4.439000
 21
-4.433000
  0
LINE
 10
-5.543000
 11
-5.534000
 20
-4.433000
 21
-4.428000
  0
LINE
 10
-5.534000
 11
-5.525000
 20
-4.428000
 21
-4.424000
  0
LINE
 10
-5.525000
 11
-5.515000
 20
-4.424000
 21
-4.422000
  0
LINE
 10
-5.515000
 11
-5.505000
 20
-4.422000
 21
-4.421000
  0
LINE
 10
-5.505000
 11
-5.495000
 20
-4.421000
 21
-4.421000
  0
LINE
 10
-5.495000
 11
-5.485000
 20
-4.421000
 21
-4.422000
  0
LINE
 10
-5.485000
 11
-5.475000
 20
-4.422000
 21
-4.424000
  0
LINE
 10
-5.475000
 11
-5.466000
 20
-4.424000
 21
-4.428000
  0
LINE
 10
-5.466000
 11
-5.457000
 20
-4.428000
 21
-4.433000
  0
LINE
 10
-5.457000
 11
-5.449000
 20
-4.433000
 21
-4.439000
  0
LINE
 10
-5.449000
 11
-5.442000
 20
-4.439000
 21
-4.446000
  0
LINE
 10
-5.442000
 11
-5.436000
 20
-4.446000
 21
-4.453000
  0
LINE
 10
-5.436000
 11
-5.430000
 20
-4.453000
 21
-4.462000
  0
LINE
 10
-5.430000
 11
-5.426000
 20
-4.462000
 21
-4.471000
  0
LINE
 10
-5.426000
 11
-5.423000
 20
-4.471000
 21
-4.480000
  0
LINE
 10
-5.423000
 11
-5.421000
 20
-4.480000
 21
-4.490000
  0
LINE
 10
-5.421000
 11
-5.420000
 20
-4.490000
 21
-4.500000
  0
LINE
 10
-5.420000
 11
-5.421000
 20
-4.500000
 21
-4.510000
  0
LINE
 10
-5.421000
 11
-5.423000
 20
-4.510000
 21
-4.520000
  0
LINE
 10
-5.423000
 11
-5.426000
 20
-4.520000
 21
-4.529000
  0
LINE
 10
-5.426000
 11
-5.430000
 20
-4.529000
 21
-4.538000
  0
LINE
 10
-5.430000
 11
-5.436000
 20
-4.538000
 21
-4.547000
  0
LINE
 10
-5.436000
 11
-5.442000
 20
-4.547000
 21
-4.554000
  0
LINE
 10
-5.442000
 11
-5.449000
 20
-4.554000
 21
-4.561000
  0
LINE
 10
-5.449000
 11
-5.457000
 20
-4.561000
 21
-4.567000
  0
LINE
 10
-5.457000
 11
-5.466000
 20
-4.567000
 21
-4.572000
  0
LINE
 10
-5.466000
 11
-5.475000
 20
-4.572000
 21
-4.576000
  0
LINE
 10
-5.475000
 11
-5.485000
 20
-4.576000
 21
-4.578000
  0
LINE
 10
-5.485000
 11
-5.495000
 20
-4.578000
 21
-4.579000
  0
LINE
 10
-5.495000
 11
-5.505000
 20
-4.579000
 21
-4.579000
  0
LINE
 10
-5.505000
 11
-5.515000
 20
-4.579000
 21
-4.578000
  0
LINE
 10
-5.515000
 11
-5.525000
 20
-4.578000
 21
-4.576000
  0
LINE
 10
-5.525000
 11
-5.534000
 20
-4.576000
 21
-4.572000
  0
LINE
 10
-5.534000
 11
-5.543000
 20
-4.572000
 21
-4.567000
  0
LINE
 10
-5.543000
 11
-5.551000
 20
-4.567000
 21
-4.561000
  0
LINE
 10
-5.551000
 11
-5.558000
 20
-4.561000
 21
-4.554000
  0
LINE
 10
-5.558000
 11
-5.564000
 20
-4.554000
 21
-4.547000
  0
LINE
 10
-5.564000
 11
-5.570000
 20
-4.547000
 21
-4.538000
  0
LINE
 10
-5.570000
 11
-5.574000
 20
-4.538000
 21
-4.529000
  0
LINE
 10
-5.574000
 11
-5.577000
 20
-4.529000
 21
-4.520000
  0
LINE
 10
-5.577000
 11
-5.579000
 20
-4.520000
 21
-4.510000
  0
LINE
 10
-5.579000
 11
-5.579000
 20
-2.260000
 21
-2.240000
  0
LINE
 10
-5.579000
 11
-5.577000
 20
-2.240000
 21
-2.230000
  0
LINE
 10
-5.577000
 11
-5.574000
 20
-2.230000
 21
-2.221000
  0
LINE
 10
-5.574000
 11
-5.570000
 20
-2.221000
 21
-2.212000
  0
LINE
 10
-5.570000
 11
-5.564000
 20
-2.212000
 21
-2.203000
  0
LINE
 10
-5.564000
 11
-5.558000
 20
-2.203000
 21
-2.196000
  0
LINE
 10
-5.558000
 11
-5.551000
 20
-2.196000
 21
-2.189000
  0
LINE
 10
-5.551000
 11
-5.543000
 20
-2.189000
 21
-2.183000
  0
LINE
 10
-5.543000
 11
-5.534000
 20
-2.183000
 21
-2.178000
  0
LINE
 10
-5.534000
 11
-5.525000
 20
-2.178000
 21
-2.174000
  0
LINE
 10
-5.525000
 11
-5.515000
 20
-2.174000
 21
-2.172000
  0
LINE
 10
-5.515000
 11
-5.505000
 20
-2.172000
 21
-2.171000
  0
LINE
 10
-5.505000
 11
-5.495000
 20
-2.171000
 21
-2.171000
  0
LINE
 10
-5.495000
 11
-5.485000
 20
-2.171000
 21
-2.172000
  0
LINE
 10
-5.485000
 11
-5.475000
 20
-2.172000
 21
-2.174000
  0
LINE
 10
-5.475000
 11
-5.466000
 20
-2.174000
 21
-2.178000
  0
LINE
 10
-5.466000
 11
-5.457000
 20
-2.178000
 21
-2.183000
  0
LINE
 10
-5.457000
 11
-5.449000
 20
-2.183000
 21
-2.189000
  0
LINE
 10
-5.449000
 11
-5.442000
 20
-2.189000
 21
-2.196000
  0
LINE
 10
-5.442000
 11
-5.436000
 20
-2.196000
 21
-2.203000
  0
LINE
 10
-5.436000
 11
-5.430000
 20
-2.203000
 21
-2.212000
  0
LINE
 10
-5.430000
 11
-5.426000
 20
-2.212000
 21
-2.221000
  0
LINE
 10
-5.426000
 11
-5.423000
 20
-2.221000
 21
-2.230000
  0
LINE
 10
-5.423000
 11
-5.421000
 20
-2.230000
 21
-2.240000
  0
LINE
 10
-5.421000
 11
-5.420000
 20
-2.240000
 21
-2.250000
  0
LINE
 10
-5.420000
 11
-5.421000
 20
-2.250000
 21
-2.260000
  0
LINE
 10
-5.421000
 11
-5.423000
 20
-2.260000
 21
-2.270000
  0
LINE
 10
-5.423000
 11
-5.426000
 20
-2.270000
 21
-2.279000
  0
LINE
 10
-5.426000
 11
-5.430000
 20
-2.279000
 21
-2.288000
  0
LINE
 10
-5.430000
 11
-5.436000
 20
-2.288000
 21
-2.297000
  0
LINE
 10
-5.436000
 11
-5.442000
 20
-2.297000
 21
-2.304000
  0
LINE
 10
-5.442000
 11
-5.449000
 20
-2.304000
 21
-2.311000
  0
LINE
 10
-5.449000
 11
-5.457000
 20
-2.311000
 21
-2.317000
  0
LINE
 10
-5.457000
 11
-5.466000
 20
-2.317000
 21
-2.322000
  0
LINE
 10
-5.466000
 11
-5.475000
 20
-2.322000
 21
-2.326000
  0
LINE
 10
-5.475000
 11
-5.485000
 20
-2.326000
 21
-2.328000
  0
LINE
 10
-5.485000
 11
-5.495000
 20
-2.328000
 21
-2.329000
  0
LINE
 10
-5.495000
 11
-5.505000
 20
-2.329000
 21
-2.329000
  0
LINE
 10
-5.505000
 11
-5.515000
 20
-2.329000
 21
-2.328000
  0
LINE
 10
-5.515000
 11
-5.525000
 20
-2.328000
 21
-2.326000
  0
LINE
 10
-5.525000
 11
-5.534000
 20
-2.326000
 21
-2.322000
  0
LINE
 10
-5.534000
 11
-5.543000
 20
-2.322000
 21
-2.317000
  0
LINE
 10
-5.543000
 11
-5.551000
 20
-2.317000
 21
-2.311000
  0
LINE
 10
-5.551000
 11
-5.558000
 20
-2.311000
 21
-2.304000
  0
LINE
 10
-5.558000
 11
-5.564000
 20
-2.304000
 21
-2.297000
  0
LINE
 10
-5.564000
 11
-5.570000
 20
-2.297000
 21
-2.288000
  0
LINE
 10
-5.570000
 11
-5.574000
 20
-2.288000
 21
-2.279000
  0
LINE
 10
-5.574000
 11
-5.577000
 20
-2.279000
 21
-2.270000
  0
LINE
 10
-5.577000
 11
-5.579000
 20
-2.270000
 21
-2.260000
  0
LINE
 10
-5.579000
 11
-5.579000
 20
2.240000
 21
2.260000
  0
LINE
 10
-5.579000
 11
-5.577000
 20
2.260000
 21
2.270000
  0
LINE
 10
-5.577000
 11
-5.574000
 20
2.270000
 21
2.279000
  0
LINE
 10
-5.574000
 11
-5.570000
 20
2.279000
 21
2.288000
  0
LINE
 10
-5.570000
 11
-5.564000
 20
2.288000
 21
2.297000
  0
LINE
 10
-5.564000
 11
-5.558000
 20
2.297000
 21
2.304000
  0
LINE
 10
-5.558000
 11
-5.551000
 20
2.304000
 21
2.311000
  0
LINE
 10
-5.551000
 11
-5.543000
 20
2.311000
 21
2.317000
  0
LINE
 10
-5.543000
 11
-5.534000
 20
2.317000
 21
2.322000
  0
LINE
 10
-5.534000
 11
-5.525000
 20
2.322000
 21
2.326000
  0
LINE
 10
-5.525000
 11
-5.515000
 20
2.326000
 21
2.328000
  0
LINE
 10
-5.515000
 11
-5.505000
 20
2.328000
 21
2.329000
  0
LINE
 10
-5.505000
 11
-5.495000
 20
2.329000
 21
2.329000
  0
LINE
 10
-5.495000
 11
-5.485000
 20
2.329000
 21
2.328000
  0
LINE
 10
-5.485000
 11
-5.475000
 20
2.328000
 21
2.326000
  0
LINE
 10
-5.475000
 11
-5.466000
 20
2.326000
 21
2.322000
  0
LINE
 10
-5.466000
 11
-5.457000
 20
2.322000
 21
2.317000
  0
LINE
 10
-5.457000
 11
-5.449000
 20
2.317000
 21
2.311000
  0
LINE
 10
-5.449000
 11
-5.442000
 20
2.311000
 21
2.304000
  0
LINE
 10
-5.442000
 11
-5.436000
 20
2.304000
 21
2.297000
  0
LINE
 10
-5.436000
 11
-5.430000
 20
2.297000
 21
2.288000
  0
LINE
 10
-5.430000
 11
-5.426000
 20
2.288000
 21
2.279000
  0
LINE
 10
-5.426000
 11
-5.423000
 20
2.279000
 21
2.270000
  0
LINE
 10
-5.423000
 11
-5.421000
 20
2.270000
 21
2.260000
  0
LINE
 10
-5.421000
 11
-5.420000
 20
2.260000
 21
2.250000
  0
LINE
 10
-5.420000
 11
-5.421000
 20
2.250000
 21
2.240000
  0
LINE
 10
-5.421000
 11
-5.423000
 20
2.240000
 21
2.230000
  0
LINE
 10
-5.423000
 11
-5.426000
 20
2.230000
 21
2.221000
  0
LINE
 10
-5.426000
 11
-5.430000
 20
2.221000
 21
2.212000
  0
LINE
 10
-5.430000
 11
-5.436000
 20
2.212000
 21
2.203000
  0
LINE
 10
-5.436000
 11
-5.442000
 20
2.203000
 21
2.196000
  0
LINE
 10
-5.442000
 11
-5.449000
 20
2.196000
 21
2.189000
  0
LINE
 10
-5.449000
 11
-5.457000
 20
2.189000
 21
2.183000
  0
LINE
 10
-5.457000
 11
-5.466000
 20
2.183000
 21
2.178000
  0
LINE
 10
-5.466000
 11
-5.475000
 20
2.178000
 21
2.174000
  0
LINE
 10
-5.475000
 11
-5.485000
 20
2.174000
 21
2.172000
  0
LINE
 10
-5.485000
 11
-5.495000
 20
2.172000
 21
2.171000
  0
LINE
 10
-5.495000
 11
-5.505000
 20
2.171000
 21
2.171000
  0
LINE
 10
-5.505000
 11
-5.515000
 20
2.171000
 21
2.172000
  0
LINE
 10
-5.515000
 11
-5.525000
 20
2.172000
 21
2.174000
  0
LINE
 10
-5.525000
 11
-5.534000
 20
2.174000
 21
2.178000
  0
LINE
 10
-5.534000
 11
-5.543000
 20
2.178000
 21
2.183000
  0
LINE
 10
-5.543000
 11
-5.551000
 20
2.183000
 21
2.189000
  0
LINE
 10
-5.551000
 11
-5.558000
 20
2.189000
 21
2.196000
  0
LINE
 10
-5.558000
 11
-5.564000
 20
2.196000
 21
2.203000
  0
LINE
 10
-5.564000
 11
-5.570000
 20
2.203000
 21
2.212000
  0
LINE
 10
-5.570000
 11
-5.574000
 20
2.212000
 21
2.221000
  0
LINE
 10
-5.574000
 11
-5.577000
 20
2.221000
 21
2.230000
  0
LINE
 10
-5.577000
 11
-5.579000
 20
2.230000
 21
2.240000
  0
LINE
 10
-5.579000
 11
-5.579000
 20
4.490000
 21
4.510000
  0
LINE
 10
-5.579000
 11
-5.577000
 20
4.510000
 21
4.520000
  0
LINE
 10
-5.577000
 11
-5.574000
 20
4.520000
 21
4.529000
  0
LINE
 10
-5.574000
 11
-5.570000
 20
4.529000
 21
4.538000
  0
LINE
 10
-5.570000
 11
-5.564000
 20
4.538000
 21
4.547000
  0
LINE
 10
-5.564000
 11
-5.558000
 20
4.547000
 21
4.554000
  0
LINE
 10
-5.558000
 11
-5.551000
 20
4.554000
 21
4.561000
  0
LINE
 10
-5.551000
 11
-5.543000
 20
4.561000
 21
4.567000
  0
LINE
 10
-5.543000
 11
-5.534000
 20
4.567000
 21
4.572000
  0
LINE
 10
-5.534000
 11
-5.525000
 20
4.572000
 21
4.576000
  0
LINE
 10
-5.525000
 11
-5.515000
 20
4.576000
 21
4.578000
  0
LINE
 10
-5.515000
 11
-5.505000
 20
4.578000
 21
4.579000
  0
LINE
 10
-5.505000
 11
-5.495000
 20
4.579000
 21
4.579000
  0
LINE
 10
-5.495000
 11
-5.485000
 20
4.579000
 21
4.578000
  0
LINE
 10
-5.485000
 11
-5.475000
 20
4.578000
 21
4.576000
  0
LINE
 10
-5.475000
 11
-5.466000
 20
4.576000
 21
4.572000
  0
LINE
 10
-5.466000
 11
-5.457000
 20
4.572000
 21
4.567000
  0
LINE
 10
-5.457000
 11
-5.449000
 20
4.567000
 21
4.561000
  0
LINE
 10
-5.449000
 11
-5.442000
 20
4.561000
 21
4.554000
  0
LINE
 10
-5.442000
 11
-5.436000
 20
4.554000
 21
4.547000
  0
LINE
 10
-5.436000
 11
-5.430000
 20
4.547000
 21
4.538000
  0
LINE
 10
-5.430000
 11
-5.426000
 20
4.538000
 21
4.529000
  0
LINE
 10
-5.426000
 11
-5.423000
 20
4.529000
 21
4.520000
  0
LINE
 10
-5.423000
 11
-5.421000
 20
4.520000
 21
4.510000
  0
LINE
 10
-5.421000
 11
-5.420000
 20
4.510000
 21
4.500000
  0
LINE
 10
-5.420000
 11
-5.421000
 20
4.500000
 21
4.490000
  0
LINE
 10
-5.421000
 11
-5.423000
 20
4.490000
 21
4.480000
  0
LINE
 10
-5.423000
 11
-5.426000
 20
4.480000
 21
4.471000
  0
LINE
 10
-5.426000
 11
-5.430000
 20
4.471000
 21
4.462000
  0
LINE
 10
-5.430000
 11
-5.436000
 20
4.462000
 21
4.453000
  0
LINE
 10
-5.436000
 11
-5.442000
 20
4.453000
 21
4.446000
  0
LINE
 10
-5.442000
 11
-5.449000
 20
4.446000
 21
4.439000
  0
LINE
 10
-5.449000
 11
-5.457000
 20
4.439000
 21
4.433000
  0
LINE
 10
-5.457000
 11
-5.466000
 20
4.433000
 21
4.428000
  0
LINE
 10
-5.466000
 11
-5.475000
 20
4.428000
 21
4.424000
  0
LINE
 10
-5.475000
 11
-5.485000
 20
4.424000
 21
4.422000
  0
LINE
 10
-5.485000
 11
-5.495000
 20
4.422000
 21
4.421000
  0
LINE
 10
-5.495000
 11
-5.505000
 20
4.421000
 21
4.421000
  0
LINE
 10
-5.505000
 11
-5.515000
 20
4.421000
 21
4.422000
  0
LINE
 10
-5.515000
 11
-5.525000
 20
4.422000
 21
4.424000
  0
LINE
 10
-5.525000
 11
-5.534000
 20
4.424000
 21
4.428000
  0
LINE
 10
-5.534000
 11
-5.543000
 20
4.428000
 21
4.433000
  0
LINE
 10
-5.543000
 11
-5.551000
 20
4.433000
 21
4.439000
  0
LINE
 10
-5.551000
 11
-5.558000
 20
4.439000
 21
4.446000
  0
LINE
 10
-5.558000
 11
-5.564000
 20
4.446000
 21
4.453000
  0
LINE
 10
-5.564000
 11
-5.570000
 20
4.453000
 21
4.462000
  0
LINE
 10
-5.570000
 11
-5.574000
 20
4.462000
 21
4.471000
  0
LINE
 10
-5.574000
 11
-5.577000
 20
4.471000
 21
4.480000
  0
LINE
 10
-5.577000
 11
-5.579000
 20
4.480000
 21
4.490000
  0
LINE
 10
-3.000000
 11
-2.976000
 20
0.000000
 21
0.376000
  0
LINE
 10
-2.976000
 11
-2.906000
 20
0.376000
 21
0.746000
  0
LINE
 10
-2.906000
 11
-2.789000
 20
0.746000
 21
1.104000
  0
LINE
 10
-2.789000
 11
-2.629000
 20
1.104000
 21
1.445000
  0
LINE
 10
-2.629000
 11
-2.427000
 20
1.445000
 21
1.763000
  0
LINE
 10
-2.427000
 11
-2.187000
 20
1.763000
 21
2.054000
  0
LINE
 10
-2.187000
 11
-1.912000
 20
2.054000
 21
2.312000
  0
LINE
 10
-1.912000
 11
-1.607000
 20
2.312000
 21
2.533000
  0
LINE
 10
-1.607000
 11
-1.277000
 20
2.533000
 21
2.714000
  0
LINE
 10
-1.277000
 11
-0.927000
 20
2.714000
 21
2.853000
  0
LINE
 10
-0.927000
 11
-0.562000
 20
2.853000
 21
2.947000
  0
LINE
 10
-0.562000
 11
-0.188000
 20
2.947000
 21
2.994000
  0
LINE
 10
-0.188000
 11
0.188000
 20
2.994000
 21
2.994000
  0
LINE
 10
0.188000
 11
0.562000
 20
2.994000
 21
2.947000
  0
LINE
 10
0.562000
 11
0.927000
 20
2.947000
 21
2.853000
  0
LINE
 10
0.927000
 11
1.277000
 20
2.853000
 21
2.714000
  0
LINE
 10
1.277000
 11
1.607000
 20
2.714000
 21
2.533000
  0
LINE
 10
1.607000
 11
1.912000
 20
2.533000
 21
2.312000
  0
LINE
 10
1.912000
 11
2.187000
 20
2.312000
 21
2.054000
  0
LINE
 10
2.187000
 11
2.427000
 20
2.054000
 21
1.763000
  0
LINE
 10
2.427000
 11
2.629000
 20
1.763000
 21
1.445000
  0
LINE
 10
2.629000
 11
2.789000
 20
1.445000
 21
1.104000
  0
LINE
 10
2.789000
 11
2.906000
 20
1.104000
 21
0.746000
  0
LINE
 10
2.906000
 11
2.976000
 20
0.746000
 21
0.376000
  0
LINE
 10
2.976000
 11
3.000000
 20
0.376000
 21
0.000000
  0
LINE
 10
3.000000
 11
2.976000
 20
0.000000
 21
-0.376000
  0
LINE
 10
2.976000
 11
2.906000
 20
-0.376000
 21
-0.746000
  0
LINE
 10
2.906000
 11
2.789000
 20
-0.746000
 21
-1.104000
  0
LINE
 10
2.789000
 11
2.629000
 20
-1.104000
 21
-1.445000
  0
LINE
 10
2.629000
 11
2.427000
 20
-1.445000
 21
-1.763000
  0
LINE
 10
2.427000
 11
2.187000
 20
-1.763000
 21
-2.054000
  0
LINE
 10
2.187000
 11
1.912000
 20
-2.054000
 21
-2.312000
  0
LINE
 10
1.912000
 11
1.607000
 20
-2.312000
 21
-2.533000
  0
LINE
 10
1.607000
 11
1.277000
 20
-2.533000
 21
-2.714000
  0
LINE
 10
1.277000
 11
0.927000
 20
-2.714000
 21
-2.853000
  0
LINE
 10
0.927000
 11
0.562000
 20
-2.853000
 21
-2.947000
  0
LINE
 10
0.562000
 11
0.188000
 20
-2.947000
 21
-2.994000
  0
LINE
 10
0.188000
 11
-0.188000
 20
-2.994000
 21
-2.994000
  0
LINE
 10
-0.188000
 11
-0.562000
 20
-2.994000
 21
-2.947000
  0
LINE
 10
-0.562000
 11
-0.927000
 20
-2.947000
 21
-2.853000
  0
LINE
 10
-0.927000
 11
-1.277000
 20
-2.853000
 21
-2.714000
  0
LINE
 10
-1.277000
 11
-1.607000
 20
-2.714000
 21
-2.533000
  0
LINE
 10
-1.607000
 11
-1.912000
 20
-2.533000
 21
-2.312000
  0
LINE
 10
-1.912000
 11
-2.187000
 20
-2.312000
 21
-2.054000
  0
LINE
 10
-2.187000
 11
-2.427000
 20
-2.054000
 21
-1.763000
  0
LINE
 10
-2.427000
 11
-2.629000
 20
-1.763000
 21
-1.445000
  0
LINE
 10
-2.629000
 11
-2.789000
 20
-1.445000
 21
-1.104000
  0
LINE
 10
-2.789000
 11
-2.906000
 20
-1.104000
 21
-0.746000
  0
LINE
 10
-2.906000
 11
-2.976000
 20
-0.746000
 21
-0.376000
  0
LINE
 10
-2.976000
 11
-3.000000
 20
-0.376000
 21
0.000000
  0
LINE
 10
-2.830000
 11
-2.829000
 20
-4.500000
 21
-4.490000
  0
LINE
 10
-2.829000
 11
-2.827000
 20
-4.490000
 21
-4.480000
  0
LINE
 10
-2.827000
 11
-2.824000
 20
-4.480000
 21
-4.471000
  0
LINE
 10
-2.824000
 11
-2.820000
 20
-4.471000
 21
-4.462000
  0
LINE
 10
-2.820000
 11
-2.814000
 20
-4.462000
 21
-4.453000
  0
LINE
 10
-2.814000
 11
-2.808000
 20
-4.453000
 21
-4.446000
  0
LINE
 10
-2.808000
 11
-2.801000
 20
-4.446000
 21
-4.439000
  0
LINE
 10
-2.801000
 11
-2.793000
 20
-4.439000
 21
-4.433000
  0
LINE
 10
-2.793000
 11
-2.784000
 20
-4.433000
 21
-4.428000
  0
LINE
 10
-2.784000
 11
-2.775000
 20
-4.428000
 21
-4.424000
  0
LINE
 10
-2.775000
 11
-2.765000
 20
-4.424000
 21
-4.422000
  0
LINE
 10
-2.765000
 11
-2.755000
 20
-4.422000
 21
-4.421000
  0
LINE
 10
-2.755000
 11
-2.745000
 20
-4.421000
 21
-4.421000
  0
LINE
 10
-2.745000
 11
-2.735000
 20
-4.421000
 21
-4.422000
  0
LINE
 10
-2.735000
 11
-2.725000
 20
-4.422000
 21
-4.424000
  0
LINE
 10
-2.725000
 11
-2.716000
 20
-4.424000
 21
-4.428000
  0
LINE
 10
-2.716000
 11
-2.707000
 20
-4.428000
 21
-4.433000
  0
LINE
 10
-2.707000
 11
-2.699000
 20
-4.433000
 21
-4.439000
  0
LINE
 10
-2.699000
 11
-2.692000
 20
-4.439000
 21
-4.446000
  0
LINE
 10
-2.692000
 11
-2.686000
 20
-4.446000
 21
-4.453000
  0
LINE
 10
-2.686000
 11
-2.680000
 20
-4.453000
 21
-4.462000
  0
LINE
 10
-2.680000
 11
-2.676000
 20
-4.462000
 21
-4.471000
  0
LINE
 10
-2.676000
 11
-2.673000
 20
-4.471000
 21
-4.480000
  0
LINE
 10
-2.673000
 11
-2.671000
 20
-4.480000
 21
-4.490000
  0
LINE
 10
-2.671000
 11
-2.671000
 20
-4.490000
 21
-4.510000
  0
LINE
 10
-2.671000
 11
-2.673000
 20
-4.510000
 21
-4.520000
  0
LINE
 10
-2.673000
 11
-2.676000
 20
-4.520000
 21
-4.529000
  0
LINE
 10
-2.676000
 11
-2.680000
 20
-4.529000
 21
-4.538000
  0
LINE
 10
-2.680000
 11
-2.686000
 20
-4.538000
 21
-4.547000
  0
LINE
 10
-2.686000
 11
-2.692000
 20
-4.547000
 21
-4.554000
  0
LINE
 10
-2.692000
 11
-2.699000
 20
-4.554000
 21
-4.561000
  0
LINE
 10
-2.699000
 11
-2.707000
 20
-4.561000
 21
-4.567000
  0
LINE
 10
-2.707000
 11
-2.716000
 20
-4.567000
 21
-4.572000
  0
LINE
 10
-2.716000
 11
-2.725000
 20
-4.572000
 21
-4.576000
  0
LINE
 10
-2.725000
 11
-2.735000
 20
-4.576000
 21
-4.578000
  0
LINE
 10
-2.735000
 11
-2.745000
 20
-4.578000
 21
-4.579000
  0
LINE
 10
-2.745000
 11
-2.755000
 20
-4.579000
 21
-4.579000
  0
LINE
 10
-2.755000
 11
-2.765000
 20
-4.579000
 21
-4.578000
  0
LINE
 10
-2.765000
 11
-2.775000
 20
-4.578000
 21
-4.576000
  0
LINE
 10
-2.775000
 11
-2.784000
 20
-4.576000
 21
-4.572000
  0
LINE
 10
-2.784000
 11
-2.793000
 20
-4.572000
 21
-4.567000
  0
LINE
 10
-2.793000
 11
-2.801000
 20
-4.567000
 21
-4.561000
  0
LINE
 10
-2.801000
 11
-2.808000
 20
-4.561000
 21
-4.554000
  0
LINE
 10
-2.808000
 11
-2.814000
 20
-4.554000
 21
-4.547000
  0
LINE
 10
-2.814000
 11
-2.820000
 20
-4.547000
 21
-4.538000
  0
LINE
 10
-2.820000
 11
-2.824000
 20
-4.538000
 21
-4.529000
  0
LINE
 10
-2.824000
 11
-2.827000
 20
-4.529000
 21
-4.520000
  0
LINE
 10
-2.827000
 11
-2.829000
 20
-4.520000
 21
-4.510000
  0
LINE
 10
-2.829000
 11
-2.830000
 20
-4.510000
 21
-4.500000
  0
LINE
 10
-2.830000
 11
-2.829000
 20
4.500000
 21
4.510000
  0
LINE
 10
-2.829000
 11
-2.827000
 20
4.510000
 21
4.520000
  0
LINE
 10
-2.827000
 11
-2.824000
 20
4.520000
 21
4.529000
  0
LINE
 10
-2.824000
 11
-2.820000
 20
4.529000
 21
4.538000
  0
LINE
 10
-2.820000
 11
-2.814000
 20
4.538000
 21
4.547000
  0
LINE
 10
-2.814000
 11
-2.808000
 20
4.547000
 21
4.554000
  0
LINE
 10
-2.808000
 11
-2.801000
 20
4.554000
 21
4.561000
  0
LINE
 10
-2.801000
 11
-2.793000
 20
4.561000
 21
4.567000
  0
LINE
 10
-2.793000
 11
-2.784000
 20
4.567000
 21
4.572000
  0
LINE
 10
-2.784000
 11
-2.775000
 20
4.572000
 21
4.576000
  0
LINE
 10
-2.775000
 11
-2.765000
 20
4.576000
 21
4.578000
  0
LINE
 10
-2.765000
 11
-2.755000
 20
4.578000
 21
4.579000
  0
LINE
 10
-2.755000
 11
-2.745000
 20
4.579000
 21
4.579000
  0
LINE
 10
-2.745000
 11
-2.735000
 20
4.579000
 21
4.578000
  0
LINE
 10
-2.735000
 11
-2.725000
 20
4.578000
 21
4.576000
  0
LINE
 10
-2.725000
 11
-2.716000
 20
4.576000
 21
4.572000
  0
LINE
 10
-2.716000
 11
-2.707000
 20
4.572000
 21
4.567000
  0
LINE
 10
-2.707000
 11
-2.699000
 20
4.567000
 21
4.561000
  0
LINE
 10
-2.699000
 11
-2.692000
 20
4.561000
 21
4.554000
  0
LINE
 10
-2.692000
 11
-2.686000
 20
4.554000
 21
4.547000
  0
LINE
 10
-2.686000
 11
-2.680000
 20
4.547000
 21
4.538000
  0
LINE
 10
-2.680000
 11
-2.676000
 20
4.538000
 21
4.529000
  0
LINE
 10
-2.676000
 11
-2.673000
 20
4.529000
 21
4.520000
  0
LINE
 10
-2.673000
 11
-2.671000
 20
4.520000
 21
4.510000
  0
LINE
 10
-2.671000
 11
-2.671000
 20
4.510000
 21
4.490000
  0
LINE
 10
-2.671000
 11
-2.673000
 20
4.490000
 21
4.480000
  0
LINE
 10
-2.673000
 11
-2.676000
 20
4.480000
 21
4.471000
  0
LINE
 10
-2.676000
 11
-2.680000
 20
4.471000
 21
4.462000
  0
LINE
 10
-2.680000
 11
-2.686000
 20
4.462000
 21
4.453000
  0
LINE
 10
-2.686000
 11
-2.692000
 20
4.453000
 21
4.446000
  0
LINE
 10
-2.692000
 11
-2.699000
 20
4.446000
 21
4.439000
  0
LINE
 10
-2.699000
 11
-2.707000
 20
4.439000
 21
4.433000
  0
LINE
 10
-2.707000
 11
-2.716000
 20
4.433000
 21
4.428000
  0
LINE
 10
-2.716000
 11
-2.725000
 20
4.428000
 21
4.424000
  0
LINE
 10
-2.725000
 11
-2.735000
 20
4.424000
 21
4.422000
  0
LINE
 10
-2.735000
 11
-2.745000
 20
4.422000
 21
4.421000
  0
LINE
 10
-2.745000
 11
-2.755000
 20
4.421000
 21
4.421000
  0
LINE
 10
-2.755000
 11
-2.765000
 20
4.421000
 21
4.422000
  0
LINE
 10
-2.765000
 11
-2.775000
 20
4.422000
 21
4.424000
  0
LINE
 10
-2.775000
 11
-2.784000
 20
4.424000
 21
4.428000
  0
LINE
 10
-2.784000
 11
-2.793000
 20
4.428000
 21
4.433000
  0
LINE
 10
-2.793000
 11
-2.801000
 20
4.433000
 21
4.439000
  0
LINE
 10
-2.801000
 11
-2.808000
 20
4.439000
 21
4.446000
  0
LINE
 10
-2.808000
 11
-2.814000
 20
4.446000
 21
4.453000
  0
LINE
 10
-2.814000
 11
-2.820000
 20
4.453000
 21
4.462000
  0
LINE
 10
-2.820000
 11
-2.824000
 20
4.462000
 21
4.471000
  0
LINE
 10
-2.824000
 11
-2.827000
 20
4.471000
 21
4.480000
  0
LINE
 10
-2.827000
 11
-2.829000
 20
4.480000
 21
4.490000
  0
LINE
 10
-2.829000
 11
-2.830000
 20
4.490000
 21
4.500000
  0
LINE
 10
2.671000
 11
2.671000
 20
-4.510000
 21
-4.490000
  0
LINE
 10
2.671000
 11
2.673000
 20
-4.490000
 21
-4.480000
  0
LINE
 10
2.673000
 11
2.676000
 20
-4.480000
 21
-4.471000
  0
LINE
 10
2.676000
 11
2.680000
 20
-4.471000
 21
-4.462000
  0
LINE
 10
2.680000
 11
2.686000
 20
-4.462000
 21
-4.453000
  0
LINE
 10
2.686000
 11
2.692000
 20
-4.453000
 21
-4.446000
  0
LINE
 10
2.692000
 11
2.699000
 20
-4.446000
 21
-4.439000
  0
LINE
 10
2.699000
 11
2.707000
 20
-4.439000
 21
-4.433000
  0
LINE
 10
2.707000
 11
2.716000
 20
-4.433000
 21
-4.428000
  0
LINE
 10
2.716000
 11
2.725000
 20
-4.428000
 21
-4.424000
  0
LINE
 10
2.725000
 11
2.735000
 20
-4.424000
 21
-4.422000
  0
LINE
 10
2.735000
 11
2.745000
 20
-4.422000
 21
-4.421000
  0
LINE
 10
2.745000
 11
2.755000
 20
-4.421000
 21
-4.421000
  0
LINE
 10
2.755000
 11
2.765000
 20
-4.421000
 21
-4.422000
  0
LINE
 10
2.765000
 11
2.775000
 20
-4.422000
 21
-4.424000
  0
LINE
 10
2.775000
 11
2.784000
 20
-4.424000
 21
-4.428000
  0
LINE
 10
2.784000
 11
2.793000
 20
-4.428000
 21
-4.433000
  0
LINE
 10
2.793000
 11
2.801000
 20
-4.433000
 21
-4.439000
  0
LINE
 10
2.801000
 11
2.808000
 20
-4.439000
 21
-4.446000
  0
LINE
 10
2.808000
 11
2.814000
 20
-4.446000
 21
-4.453000
  0
LINE
 10
2.814000
 11
2.820000
 20
-4.453000
 21
-4.462000
  0
LINE
 10
2.820000
 11
2.824000
 20
-4.462000
 21
-4.471000
  0
LINE
 10
2.824000
 11
2.827000
 20
-4.471000
 21
-4.480000
  0
LINE
 10
2.827000
 11
2.829000
 20
-4.480000
 21
-4.490000
  0
LINE
 10
2.829000
 11
2.830000
 20
-4.490000
 21
-4.500000
  0
LINE
 10
2.830000
 11
2.829000
 20
-4.500000
 21
-4.510000
  0
LINE
 10
2.829000
 11
2.827000
 20
-4.510000
 21
-4.520000
  0
LINE
 10
2.827000
 11
2.824000
 20
-4.520000
 21
-4.529000
  0
LINE
 10
2.824000
 11
2.820000
 20
-4.529000
 21
-4.538000
  0
LINE
 10
2.820000
 11
2.814000
 20
-4.538000
 21
-4.547000
  0
LINE
 10
2.814000
 11
2.808000
 20
-4.547000
 21
-4.554000
  0
LINE
 10
2.808000
 11
2.801000
 20
-4.554000
 21
-4.561000
  0
LINE
 10
2.801000
 11
2.793000
 20
-4.561000
 21
-4.567000
  0
LINE
 10
2.793000
 11
2.784000
 20
-4.567000
 21
-4.572000
  0
LINE
 10
2.784000
 11
2.775000
 20
-4.572000
 21
-4.576000
  0
LINE
 10
2.775000
 11
2.765000
 20
-4.576000
 21
-4.578000
  0
LINE
 10
2.765000
 11
2.755000
 20
-4.578000
 21
-4.579000
  0
LINE
 10
2.755000
 11
2.745000
 20
-4.579000
 21
-4.579000
  0
LINE
 10
2.745000
 11
2.735000
 20
-4.579000
 21
-4.578000
  0
LINE
 10
2.735000
 11
2.725000
 20
-4.578000
 21
-4.576000
  0
LINE
 10
2.725000
 11
2.716000
 20
-4.576000
 21
-4.572000
  0
LINE
 10
2.716000
 11
2.707000
 20
-4.572000
 21
-4.567000
  0
LINE
 10
2.707000
 11
2.699000
 20
-4.567000
 21
-4.561000
  0
LINE
 10
2.699000
 11
2.692000
 20
-4.561000
 21
-4.554000
  0
LINE
 10
2.692000
 11
2.686000
 20
-4.554000
 21
-4.547000
  0
LINE
 10
2.686000
 11
2.680000
 20
-4.547000
 21
-4.538000
  0
LINE
 10
2.680000
 11
2.676000
 20
-4.538000
 21
-4.529000
  0
LINE
 10
2.676000
 11
2.673000
 20
-4.529000
 21
-4.520000
  0
LINE
 10
2.673000
 11
2.671000
 20
-4.520000
 21
-4.510000
  0
LINE
 10
2.671000
 11
2.671000
 20
4.490000
 21
4.510000
  0
LINE
 10
2.671000
 11
2.673000
 20
4.510000
 21
4.520000
  0
LINE
 10
2.673000
 11
2.676000
 20
4.520000
 21
4.529000
  0
LINE
 10
2.676000
 11
2.680000
 20
4.529000
 21
4.538000
  0
LINE
 10
2.680000
 11
2.686000
 20
4.538000
 21
4.547000
  0
LINE
 10
2.686000
 11
2.692000
 20
4.547000
 21
4.554000
  0
LINE
 10
2.692000
 11
2.699000
 20
4.554000
 21
4.561000
  0
LINE
 10
2.699000
 11
2.707000
 20
4.561000
 21
4.567000
  0
LINE
 10
2.707000
 11
2.716000
 20
4.567000
 21
4.572000
  0
LINE
 10
2.716000
 11
2.725000
 20
4.572000
 21
4.576000
  0
LINE
 10
2.725000
 11
2.735000
 20
4.576000
 21
4.578000
  0
LINE
 10
2.735000
 11
2.745000
 20
4.578000
 21
4.579000
  0
LINE
 10
2.745000
 11
2.755000
 20
4.579000
 21
4.579000
  0
LINE
 10
2.755000
 11
2.765000
 20
4.579000
 21
4.578000
  0
LINE
 10
2.765000
 11
2.775000
 20
4.578000
 21
4.576000
  0
LINE
 10
2.775000
 11
2.784000
 20
4.576000
 21
4.572000
  0
LINE
 10
2.784000
 11
2.793000
 20
4.572000
 21
4.567000
  0
LINE
 10
2.793000
 11
2.801000
 20
4.567000
 21
4.561000
  0
LINE
 10
2.801000
 11
2.808000
 20
4.561000
 21
4.554000
  0
LINE
 10
2.808000
 11
2.814000
 20
4.554000
 21
4.547000
  0
LINE
 10
2.814000
 11
2.820000
 20
4.547000
 21
4.538000
  0
LINE
 10
2.820000
 11
2.824000
 20
4.538000
 21
4.529000
  0
LINE
 10
2.824000
 11
2.827000
 20
4.529000
 21
4.520000
  0
LINE
 10
2.827000
 11
2.829000
 20
4.520000
 21
4.510000
  0
LINE
 10
2.829000
 11
2.830000
 20
4.510000
 21
4.500000
  0
LINE
 10
2.830000
 11
2.829000
 20
4.500000
 21
4.490000
  0
LINE
 10
2.829000
 11
2.827000
 20
4.490000
 21
4.480000
  0
LINE
 10
2.827000
 11
2.824000
 20
4.480000
 21
4.471000
  0
LINE
 10
2.824000
 11
2.820000
 20
4.471000
 21
4.462000
  0
LINE
 10
2.820000
 11
2.814000
 20
4.462000
 21
4.453000
  0
LINE
 10
2.814000
 11
2.808000
 20
4.453000
 21
4.446000
  0
LINE
 10
2.808000
 11
2.801000
 20
4.446000
 21
4.439000
  0
LINE
 10
2.801000
 11
2.793000
 20
4.439000
 21
4.433000
  0
LINE
 10
2.793000
 11
2.784000
 20
4.433000
 21
4.428000
  0
LINE
 10
2.784000
 11
2.775000
 20
4.428000
 21
4.424000
  0
LINE
 10
2.775000
 11
2.765000
 20
4.424000
 21
4.422000
  0
LINE
 10
2.765000
 11
2.755000
 20
4.422000
 21
4.421000
  0
LINE
 10
2.755000
 11
2.745000
 20
4.421000
 21
4.421000
  0
LINE
 10
2.745000
 11
2.735000
 20
4.421000
 21
4.422000
  0
LINE
 10
2.735000
 11
2.725000
 20
4.422000
 21
4.424000
  0
LINE
 10
2.725000
 11
2.716000
 20
4.424000
 21
4.428000
  0
LINE
 10
2.716000
 11
2.707000
 20
4.428000
 21
4.433000
  0
LINE
 10
2.707000
 11
2.699000
 20
4.433000
 21
4.439000
  0
LINE
 10
2.699000
 11
2.692000
 20
4.439000
 21
4.446000
  0
LINE
 10
2.692000
 11
2.686000
 20
4.446000
 21
4.453000
  0
LINE
 10
2.686000
 11
2.680000
 20
4.453000
 21
4.462000
  0
LINE
 10
2.680000
 11
2.676000
 20
4.462000
 21
4.471000
  0
LINE
 10
2.676000
 11
2.673000
 20
4.471000
 21
4.480000
  0
LINE
 10
2.673000
 11
2.671000
 20
4.480000
 21
4.490000
  0
LINE
 10
5.367000
 11
5.368000
 20
-5.500000
 21
-5.483000
  0
LINE
 10
5.368000
 11
5.371000
 20
-5.483000
 21
-5.467000
  0
LINE
 10
5.371000
 11
5.376000
 20
-5.467000
 21
-5.451000
  0
LINE
 10
5.376000
 11
5.383000
 20
-5.451000
 21
-5.436000
  0
LINE
 10
5.383000
 11
5.392000
 20
-5.436000
 21
-5.422000
  0
LINE
 10
5.392000
 11
5.403000
 20
-5.422000
 21
-5.409000
  0
LINE
 10
5.403000
 11
5.415000
 20
-5.409000
 21
-5.398000
  0
LINE
 10
5.415000
 11
5.429000
 20
-5.398000
 21
-5.388000
  0
LINE
 10
5.429000
 11
5.443000
 20
-5.388000
 21
-5.380000
  0
LINE
 10
5.443000
 11
5.459000
 20
-5.380000
 21
-5.374000
  0
LINE
 10
5.459000
 11
5.475000
 20
-5.374000
 21
-5.369000
  0
LINE
 10
5.475000
 11
5.492000
 20
-5.369000
 21
-5.367000
  0
LINE
 10
5.492000
 11
5.508000
 20
-5.367000
 21
-5.367000
  0
LINE
 10
5.508000
 11
5.525000
 20
-5.367000
 21
-5.369000
  0
LINE
 10
5.525000
 11
5.541000
 20
-5.369000
 21
-5.374000
  0
LINE
 10
5.541000
 11
5.557000
 20
-5.374000
 21
-5.380000
  0
LINE
 10
5.557000
 11
5.571000
 20
-5.380000
 21
-5.388000
  0
LINE
 10
5.571000
 11
5.585000
 20
-5.388000
 21
-5.398000
  0
LINE
 10
5.585000
 11
5.597000
 20
-5.398000
 21
-5.409000
  0
LINE
 10
5.597000
 11
5.608000
 20
-5.409000
 21
-5.422000
  0
LINE
 10
5.608000
 11
5.617000
 20
-5.422000
 21
-5.436000
  0
LINE
 10
5.617000
 11
5.624000
 20
-5.436000
 21
-5.451000
  0
LINE
 10
5.624000
 11
5.629000
 20
-5.451000
 21
-5.467000
  0
LINE
 10
5.629000
 11
5.632000
 20
-5.467000
 21
-5.483000
  0
LINE
 10
5.632000
 11
5.633000
 20
-5.483000
 21
-5.500000
  0
LINE
 10
5.633000
 11
5.632000
 20
-5.500000
 21
-5.517000
  0
LINE
 10
5.632000
 11
5.629000
 20
-5.517000
 21
-5.533000
  0
LINE
 10
5.629000
 11
5.624000
 20
-5.533000
 21
-5.549000
  0
LINE
 10
5.624000
 11
5.617000
 20
-5.549000
 21
-5.564000
  0
LINE
 10
5.617000
 11
5.608000
 20
-5.564000
 21
-5.578000
  0
LINE
 10
5.608000
 11
5.597000
 20
-5.578000
 21
-5.591000
  0
LINE
 10
5.597000
 11
5.585000
 20
-5.591000
 21
-5.602000
  0
LINE
 10
5.585000
 11
5.571000
 20
-5.602000
 21
-5.612000
  0
LINE
 10
5.571000
 11
5.557000
 20
-5.612000
 21
-5.620000
  0
LINE
 10
5.557000
 11
5.541000
 20
-5.620000
 21
-5.626000
  0
LINE
 10
5.541000
 11
5.525000
 20
-5.626000
 21
-5.631000
  0
LINE
 10
5.525000
 11
5.508000
 20
-5.631000
 21
-5.633000
  0
LINE
 10
5.508000
 11
5.492000
 20
-5.633000
 21
-5.633000
  0
LINE
 10
5.492000
 11
5.475000
 20
-5.633000
 21
-5.631000
  0
LINE
 10
5.475000
 11
5.459000
 20
-5.631000
 21
-5.626000
  0
LINE
 10
5.459000
 11
5.443000
 20
-5.626000
 21
-5.620000
  0
LINE
 10
5.443000
 11
5.429000
 20
-5.620000
 21
-5.612000
  0
LINE
 10
5.429000
 11
5.415000
 20
-5.612000
 21
-5.602000
  0
LINE
 10
5.415000
 11
5.403000
 20
-5.602000
 21
-5.591000
  0
LINE
 10
5.403000
 11
5.392000
 20
-5.591000
 21
-5.578000
  0
LINE
 10
5.392000
 11
5.383000
 20
-5.578000
 21
-5.564000
  0
LINE
 10
5.383000
 11
5.376000
 20
-5.564000
 21
-5.549000
  0
LINE
 10
5.376000
 11
5.371000
 20
-5.549000
 21
-5.533000
  0
LINE
 10
5.371000
 11
5.368000
 20
-5.533000
 21
-5.517000
  0
LINE
 10
5.368000
 11
5.367000
 20
-5.517000
 21
-5.500000
  0
LINE
 10
5.367000
 11
5.368000
 20
5.500000
 21
5.517000
  0
LINE
 10
5.368000
 11
5.371000
 20
5.517000
 21
5.533000
  0
LINE
 10
5.371000
 11
5.376000
 20
5.533000
 21
5.549000
  0
LINE
 10
5.376000
 11
5.383000
 20
5.549000
 21
5.564000
  0
LINE
 10
5.383000
 11
5.392000
 20
5.564000
 21
5.578000
  0
LINE
 10
5.392000
 11
5.403000
 20
5.578000
 21
5.591000
  0
LINE
 10
5.403000
 11
5.415000
 20
5.591000
 21
5.602000
  0
LINE
 10
5.415000
 11
5.429000
 20
5.602000
 21
5.612000
  0
LINE
 10
5.429000
 11
5.443000
 20
5.612000
 21
5.620000
  0
LINE
 10
5.443000
 11
5.459000
 20
5.620000
 21
5.626000
  0
LINE
 10
5.459000
 11
5.475000
 20
5.626000
 21
5.631000
  0
LINE
 10
5.475000
 11
5.492000
 20
5.631000
 21
5.633000
  0
LINE
 10
5.492000
 11
5.508000
 20
5.633000
 21
5.633000
  0
LINE
 10
5.508000
 11
5.525000
 20
5.633000
 21
5.631000
  0
LINE
 10
5.525000
 11
5.541000
 20
5.631000
 21
5.626000
  0
LINE
 10
5.541000
 11
5.557000
 20
5.626000
 21
5.620000
  0
LINE
 10
5.557000
 11
5.571000
 20
5.620000
 21
5.612000
  0
LINE
 10
5.571000
 11
5.585000
 20
5.612000
 21
5.602000
  0
LINE
 10
5.585000
 11
5.597000
 20
5.602000
 21
5.591000
  0
LINE
 10
5.597000
 11
5.608000
 20
5.591000
 21
5.578000
  0
LINE
 10
5.608000
 11
5.617000
 20
5.578000
 21
5.564000
  0
LINE
 10
5.617000
 11
5.624000
 20
5.564000
 21
5.549000
  0
LINE
 10
5.624000
 11
5.629000
 20
5.549000
 21
5.533000
  0
LINE
 10
5.629000
 11
5.632000
 20
5.533000
 21
5.517000
  0
LINE
 10
5.632000
 11
5.633000
 20
5.517000
 21
5.500000
  0
LINE
 10
5.633000
 11
5.632000
 20
5.500000
 21
5.483000
  0
LINE
 10
5.632000
 11
5.629000
 20
5.483000
 21
5.467000
  0
LINE
 10
5.629000
 11
5.624000
 20
5.467000
 21
5.451000
  0
LINE
 10
5.624000
 11
5.617000
 20
5.451000
 21
5.436000
  0
LINE
 10
5.617000
 11
5.608000
 20
5.436000
 21
5.422000
  0
LINE
 10
5.608000
 11
5.597000
 20
5.422000
 21
5.409000
  0
LINE
 10
5.597000
 11
5.585000
 20
5.409000
 21
5.398000
  0
LINE
 10
5.585000
 11
5.571000
 20
5.398000
 21
5.388000
  0
LINE
 10
5.571000
 11
5.557000
 20
5.388000
 21
5.380000
  0
LINE
 10
5.557000
 11
5.541000
 20
5.380000
 21
5.374000
  0
LINE
 10
5.541000
 11
5.525000
 20
5.374000
 21
5.369000
  0
LINE
 10
5.525000
 11
5.508000
 20
5.369000
 21
5.367000
  0
LINE
 10
5.508000
 11
5.492000
 20
5.367000
 21
5.367000
  0
LINE
 10
5.492000
 11
5.475000
 20
5.367000
 21
5.369000
  0
LINE
 10
5.475000
 11
5.459000
 20
5.369000
 21
5.374000
  0
LINE
 10
5.459000
 11
5.443000
 20
5.374000
 21
5.380000
  0
LINE
 10
5.443000
 11
5.429000
 20
5.380000
 21
5.388000
  0
LINE
 10
5.429000
 11
5.415000
 20
5.388000
 21
5.398000
  0
LINE
 10
5.415000
 11
5.403000
 20
5.398000
 21
5.409000
  0
LINE
 10
5.403000
 11
5.392000
 20
5.409000
 21
5.422000
  0
LINE
 10
5.392000
 11
5.383000
 20
5.422000
 21
5.436000
  0
LINE
 10
5.383000
 11
5.376000
 20
5.436000
 21
5.451000
  0
LINE
 10
5.376000
 11
5.371000
 20
5.451000
 21
5.467000
  0
LINE
 10
5.371000
 11
5.368000
 20
5.467000
 21
5.483000
  0
LINE
 10
5.368000
 11
5.367000
 20
5.483000
 21
5.500000
  0
LINE
 10
5.420000
 11
5.421000
 20
-4.500000
 21
-4.490000
  0
LINE
 10
5.421000
 11
5.423000
 20
-4.490000
 21
-4.480000
  0
LINE
 10
5.423000
 11
5.426000
 20
-4.480000
 21
-4.471000
  0
LINE
 10
5.426000
 11
5.430000
 20
-4.471000
 21
-4.462000
  0
LINE
 10
5.430000
 11
5.436000
 20
-4.462000
 21
-4.453000
  0
LINE
 10
5.436000
 11
5.442000
 20
-4.453000
 21
-4.446000
  0
LINE
 10
5.442000
 11
5.449000
 20
-4.446000
 21
-4.439000
  0
LINE
 10
5.449000
 11
5.457000
 20
-4.439000
 21
-4.433000
  0
LINE
 10
5.457000
 11
5.466000
 20
-4.433000
 21
-4.428000
  0
LINE
 10
5.466000
 11
5.475000
 20
-4.428000
 21
-4.424000
  0
LINE
 10
5.475000
 11
5.485000
 20
-4.424000
 21
-4.422000
  0
LINE
 10
5.485000
 11
5.495000
 20
-4.422000
 21
-4.421000
  0
LINE
 10
5.495000
 11
5.505000
 20
-4.421000
 21
-4.421000
  0
LINE
 10
5.505000
 11
5.515000
 20
-4.421000
 21
-4.422000
  0
LINE
 10
5.515000
 11
5.525000
 20
-4.422000
 21
-4.424000
  0
LINE
 10
5.525000
 11
5.534000
 20
-4.424000
 21
-4.428000
  0
LINE
 10
5.534000
 11
5.543000
 20
-4.428000
 21
-4.433000
  0
LINE
 10
5.543000
 11
5.551000
 20
-4.433000
 21
-4.439000
  0
LINE
 10
5.551000
 11
5.558000
 20
-4.439000
 21
-4.446000
  0
LINE
 10
5.558000
 11
5.564000
 20
-4.446000
 21
-4.453000
  0
LINE
 10
5.564000
 11
5.570000
 20
-4.453000
 21
-4.462000
  0
LINE
 10
5.570000
 11
5.574000
 20
-4.462000
 21
-4.471000
  0
LINE
 10
5.574000
 11
5.577000
 20
-4.471000
 21
-4.480000
  0
LINE
 10
5.577000
 11
5.579000
 20
-4.480000
 21
-4.490000
  0
LINE
 10
5.579000
 11
5.579000
 20
-4.490000
 21
-4.510000
  0
LINE
 10
5.579000
 11
5.577000
 20
-4.510000
 21
-4.520000
  0
LINE
 10
5.577000
 11
5.574000
 20
-4.520000
 21
-4.529000
  0
LINE
 10
5.574000
 11
5.570000
 20
-4.529000
 21
-4.538000
  0
LINE
 10
5.570000
 11
5.564000
 20
-4.538000
 21
-4.547000
  0
LINE
 10
5.564000
 11
5.558000
 20
-4.547000
 21
-4.554000
  0
LINE
 10
5.558000
 11
5.551000
 20
-4.554000
 21
-4.561000
  0
LINE
 10
5.551000
 11
5.543000
 20
-4.561000
 21
-4.567000
  0
LINE
 10
5.543000
 11
5.534000
 20
-4.567000
 21
-4.572000
  0
LINE
 10
5.534000
 11
5.525000
 20
-4.572000
 21
-4.576000
  0
LINE
 10
5.525000
 11
5.515000
 20
-4.576000
 21
-4.578000
  0
LINE
 10
5.515000
 11
5.505000
 20
-4.578000
 21
-4.579000
  0
LINE
 10
5.505000
 11
5.495000
 20
-4.579000
 21
-4.579000
  0
LINE
 10
5.495000
 11
5.485000
 20
-4.579000
 21
-4.578000
  0
LINE
 10
5.485000
 11
5.475000
 20
-4.578000
 21
-4.576000
  0
LINE
 10
5.475000
 11
5.466000
 20
-4.576000
 21
-4.572000
  0
LINE
 10
5.466000
 11
5.457000
 20
-4.572000
 21
-4.567000
  0
LINE
 10
5.457000
 11
5.449000
 20
-4.567000
 21
-4.561000
  0
LINE
 10
5.449000
 11
5.442000
 20
-4.561000
 21
-4.554000
  0
LINE
 10
5.442000
 11
5.436000
 20
-4.554000
 21
-4.547000
  0
LINE
 10
5.436000
 11
5.430000
 20
-4.547000
 21
-4.538000
  0
LINE
 10
5.430000
 11
5.426000
 20
-4.538000
 21
-4.529000
  0
LINE
 10
5.426000
 11
5.423000
 20
-4.529000
 21
-4.520000
  0
LINE
 10
5.423000
 11
5.421000
 20
-4.520000
 21
-4.510000
  0
LINE
 10
5.421000
 11
5.420000
 20
-4.510000
 21
-4.500000
  0
LINE
 10
5.420000
 11
5.421000
 20
-2.250000
 21
-2.240000
  0
LINE
 10
5.421000
 11
5.423000
 20
-2.240000
 21
-2.230000
  0
LINE
 10
5.423000
 11
5.426000
 20
-2.230000
 21
-2.221000
  0
LINE
 10
5.426000
 11
5.430000
 20
-2.221000
 21
-2.212000
  0
LINE
 10
5.430000
 11
5.436000
 20
-2.212000
 21
-2.203000
  0
LINE
 10
5.436000
 11
5.442000
 20
-2.203000
 21
-2.196000
  0
LINE
 10
5.442000
 11
5.449000
 20
-2.196000
 21
-2.189000
  0
LINE
 10
5.449000
 11
5.457000
 20
-2.189000
 21
-2.183000
  0
LINE
 10
5.457000
 11
5.466000
 20
-2.183000
 21
-2.178000
  0
LINE
 10
5.466000
 11
5.475000
 20
-2.178000
 21
-2.174000
  0
LINE
 10
5.475000
 11
5.485000
 20
-2.174000
 21
-2.172000
  0
LINE
 10
5.485000
 11
5.495000
 20
-2.172000
 21
-2.171000
  0
LINE
 10
5.495000
 11
5.505000
 20
-2.171000
 21
-2.171000
  0
LINE
 10
5.505000
 11
5.515000
 20
-2.171000
 21
-2.172000
  0
LINE
 10
5.515000
 11
5.525000
 20
-2.172000
 21
-2.174000
  0
LINE
 10
5.525000
 11
5.534000
 20
-2.174000
 21
-2.178000
  0
LINE
 10
5.534000
 11
5.543000
 20
-2.178000
 21
-2.183000
  0
LINE
 10
5.543000
 11
5.551000
 20
-2.183000
 21
-2.189000
  0
LINE
 10
5.551000
 11
5.558000
 20
-2.189000
 21
-2.196000
  0
LINE
 10
5.558000
 11
5.564000
 20
-2.196000
 21
-2.203000
  0
LINE
 10
5.564000
 11
5.570000
 20
-2.203000
 21
-2.212000
  0
LINE
 10
5.570000
 11
5.574000
 20
-2.212000
 21
-2.221000
  0
LINE
 10
5.574000
 11
5.577000
 20
-2.221000
 21
-2.230000
  0
LINE
 10
5.577000
 11
5.579000
 20
-2.230000
 21
-2.240000
  0
LINE
 10
5.579000
 11
5.579000
 20
-2.240000
 21
-2.260000
  0
LINE
 10
5.579000
 11
5.577000
 20
-2.260000
 21
-2.270000
  0
LINE
 10
5.577000
 11
5.574000
 20
-2.270000
 21
-2.279000
  0
LINE
 10
5.574000
 11
5.570000
 20
-2.279000
 21
-2.288000
  0
LINE
 10
5.570000
 11
5.564000
 20
-2.288000
 21
-2.297000
  0
LINE
 10
5.564000
 11
5.558000
 20
-2.297000
 21
-2.304000
  0
LINE
 10
5.558000
 11
5.551000
 20
-2.304000
 21
-2.311000
  0
LINE
 10
5.551000
 11
5.543000
 20
-2.311000
 21
-2.317000
  0
LINE
 10
5.543000
 11
5.534000
 20
-2.317000
 21
-2.322000
  0
LINE
 10
5.534000
 11
5.525000
 20
-2.322000
 21
-2.326000
  0
LINE
 10
5.525000
 11
5.515000
 20
-2.326000
 21
-2.328000
  0
LINE
 10
5.515000
 11
5.505000
 20
-2.328000
 21
-2.329000
  0
LINE
 10
5.505000
 11
5.495000
 20
-2.329000
 21
-2.329000
  0
LINE
 10
5.495000
 11
5.485000
 20
-2.329000
 21
-2.328000
  0
LINE
 10
5.485000
 11
5.475000
 20
-2.328000
 21
-2.326000
  0
LINE
 10
5.475000
 11
5.466000
 20
-2.326000
 21
-2.322000
  0
LINE
 10
5.466000
 11
5.457000
 20
-2.322000
 21
-2.317000
  0
LINE
 10
5.457000
 11
5.449000
 20
-2.317000
 21
-2.311000
  0
LINE
 10
5.449000
 11
5.442000
 20
-2.311000
 21
-2.304000
  0
LINE
 10
5.442000
 11
5.436000
 20
-2.304000
 21
-2.297000
  0
LINE
 10
5.436000
 11
5.430000
 20
-2.297000
 21
-2.288000
  0
LINE
 10
5.430000
 11
5.426000
 20
-2.288000
 21
-2.279000
  0
LINE
 10
5.426000
 11
5.423000
 20
-2.279000
 21
-2.270000
  0
LINE
 10
5.423000
 11
5.421000
 20
-2.270000
 21
-2.260000
  0
LINE
 10
5.421000
 11
5.420000
 20
-2.260000
 21
-2.250000
  0
LINE
 10
5.420000
 11
5.421000
 20
2.250000
 21
2.260000
  0
LINE
 10
5.421000
 11
5.423000
 20
2.260000
 21
2.270000
  0
LINE
 10
5.423000
 11
5.426000
 20
2.270000
 21
2.279000
  0
LINE
 10
5.426000
 11
5.430000
 20
2.279000
 21
2.288000
  0
LINE
 10
5.430000
 11
5.436000
 20
2.288000
 21
2.297000
  0
LINE
 10
5.436000
 11
5.442000
 20
2.297000
 21
2.304000
  0
LINE
 10
5.442000
 11
5.449000
 20
2.304000
 21
2.311000
  0
LINE
 10
5.449000
 11
5.457000
 20
2.311000
 21
2.317000
  0
LINE
 10
5.457000
 11
5.466000
 20
2.317000
 21
2.322000
  0
LINE
 10
5.466000
 11
5.475000
 20
2.322000
 21
2.326000
  0
LINE
 10
5.475000
 11
5.485000
 20
2.326000
 21
2.328000
  0
LINE
 10
5.485000
 11
5.495000
 20
2.328000
 21
2.329000
  0
LINE
 10
5.495000
 11
5.505000
 20
2.329000
 21
2.329000
  0
LINE
 10
5.505000
 11
5.515000
 20
2.329000
 21
2.328000
  0
LINE
 10
5.515000
 11
5.525000
 20
2.328000
 21
2.326000
  0
LINE
 10
5.525000
 11
5.534000
 20
2.326000
 21
2.322000
  0
LINE
 10
5.534000
 11
5.543000
 20
2.322000
 21
2.317000
  0
LINE
 10
5.543000
 11
5.551000
 20
2.317000
 21
2.311000
  0
LINE
 10
5.551000
 11
5.558000
 20
2.311000
 21
2.304000
  0
LINE
 10
5.558000
 11
5.564000
 20
2.304000
 21
2.297000
  0
LINE
 10
5.564000
 11
5.570000
 20
2.297000
 21
2.288000
  0
LINE
 10
5.570000
 11
5.574000
 20
2.288000
 21
2.279000
  0
LINE
 10
5.574000
 11
5.577000
 20
2.279000
 21
2.270000
  0
LINE
 10
5.577000
 11
5.579000
 20
2.270000
 21
2.260000
  0
LINE
 10
5.579000
 11
5.579000
 20
2.260000
 21
2.240000
  0
LINE
 10
5.579000
 11
5.577000
 20
2.240000
 21
2.230000
  0
LINE
 10
5.577000
 11
5.574000
 20
2.230000
 21
2.221000
  0
LINE
 10
5.574000
 11
5.570000
 20
2.221000
 21
2.212000
  0
LINE
 10
5.570000
 11
5.564000
 20
2.212000
 21
2.203000
  0
LINE
 10
5.564000
 11
5.558000
 20
2.203000
 21
2.196000
  0
LINE
 10
5.558000
 11
5.551000
 20
2.196000
 21
2.189000
  0
LINE
 10
5.551000
 11
5.543000
 20
2.189000
 21
2.183000
  0
LINE
 10
5.543000
 11
5.534000
 20
2.183000
 21
2.178000
  0
LINE
 10
5.534000
 11
5.525000
 20
2.178000
 21
2.174000
  0
LINE
 10
5.525000
 11
5.515000
 20
2.174000
 21
2.172000
  0
LINE
 10
5.515000
 11
5.505000
 20
2.172000
 21
2.171000
  0
LINE
 10
5.505000
 11
5.495000
 20
2.171000
 21
2.171000
  0
LINE
 10
5.495000
 11
5.485000
 20
2.171000
 21
2.172000
  0
LINE
 10
5.485000
 11
5.475000
 20
2.172000
 21
2.174000
  0
LINE
 10
5.475000
 11
5.466000
 20
2.174000
 21
2.178000
  0
LINE
 10
5.466000
 11
5.457000
 20
2.178000
 21
2.183000
  0
LINE
 10
5.457000
 11
5.449000
 20
2.183000
 21
2.189000
  0
LINE
 10
5.449000
 11
5.442000
 20
2.189000
 21
2.196000
  0
LINE
 10
5.442000
 11
5.436000
 20
2.196000
 21
2.203000
  0
LINE
 10
5.436000
 11
5.430000
 20
2.203000
 21
2.212000
  0
LINE
 10
5.430000
 11
5.426000
 20
2.212000
 21
2.221000
  0
LINE
 10
5.426000
 11
5.423000
 20
2.221000
 21
2.230000
  0
LINE
 10
5.423000
 11
5.421000
 20
2.230000
 21
2.240000
  0
LINE
 10
5.421000
 11
5.420000
 20
2.240000
 21
2.250000
  0
LINE
 10
5.420000
 11
5.421000
 20
4.500000
 21
4.510000
  0
LINE
 10
5.421000
 11
5.423000
 20
4.510000
 21
4.520000
  0
LINE
 10
5.423000
 11
5.426000
 20
4.520000
 21
4.529000
  0
LINE
 10
5.426000
 11
5.430000
 20
4.529000
 21
4.538000
  0
LINE
 10
5.430000
 11
5.436000
 20
4.538000
 21
4.547000
  0
LINE
 10
5.436000
 11
5.442000
 20
4.547000
 21
4.554000
  0
LINE
 10
5.442000
 11
5.449000
 20
4.554000
 21
4.561000
  0
LINE
 10
5.449000
 11
5.457000
 20
4.561000
 21
4.567000
  0
LINE
 10
5.457000
 11
5.466000
 20
4.567000
 21
4.572000
  0
LINE
 10
5.466000
 11
5.475000
 20
4.572000
 21
4.576000
  0
LINE
 10
5.475000
 11
5.485000
 20
4.576000
 21
4.578000
  0
LINE
 10
5.485000
 11
5.495000
 20
4.578000
 21
4.579000
  0
LINE
 10
5.495000
 11
5.505000
 20
4.579000
 21
4.579000
  0
LINE
 10
5.505000
 11
5.515000
 20
4.579000
 21
4.578000
  0
LINE
 10
5.515000
 11
5.525000
 20
4.578000
 21
4.576000
  0
LINE
 10
5.525000
 11
5.534000
 20
4.576000
 21
4.572000
  0
LINE
 10
5.534000
 11
5.543000
 20
4.572000
 21
4.567000
  0
LINE
 10
5.543000
 11
5.551000
 20
4.567000
 21
4.561000
  0
LINE
 10
5.551000
 11
5.558000
 20
4.561000
 21
4.554000
  0
LINE
 10
5.558000
 11
5.564000
 20
4.554000
 21
4.547000
  0
LINE
 10
5.564000
 11
5.570000
 20
4.547000
 21
4.538000
  0
LINE
 10
5.570000
 11
5.574000
 20
4.538000
 21
4.529000
  0
LINE
 10
5.574000
 11
5.577000
 20
4.529000
 21
4.520000
  0
LINE
 10
5.577000
 11
5.579000
 20
4.520000
 21
4.510000
  0
LINE
 10
5.579000
 11
5.579000
 20
4.510000
 21
4.490000
  0
LINE
 10
5.579000
 11
5.577000
 20
4.490000
 21
4.480000
  0
LINE
 10
5.577000
 11
5.574000
 20
4.480000
 21
4.471000
  0
LINE
 10
5.574000
 11
5.570000
 20
4.471000
 21
4.462000
  0
LINE
 10
5.570000
 11
5.564000
 20
4.462000
 21
4.453000
  0
LINE
 10
5.564000
 11
5.558000
 20
4.453000
 21
4.446000
  0
LINE
 10
5.558000
 11
5.551000
 20
4.446000
 21
4.439000
  0
LINE
 10
5.551000
 11
5.543000
 20
4.439000
 21
4.433000
  0
LINE
 10
5.543000
 11
5.534000
 20
4.433000
 21
4.428000
  0
LINE
 10
5.534000
 11
5.525000
 20
4.428000
 21
4.424000
  0
LINE
 10
5.525000
 11
5.515000
 20
4.424000
 21
4.422000
  0
LINE
 10
5.515000
 11
5.505000
 20
4.422000
 21
4.421000
  0
LINE
 10
5.505000
 11
5.495000
 20
4.421000
 21
4.421000
  0
LINE
 10
5.495000
 11
5.485000
 20
4.421000
 21
4.422000
  0
LINE
 10
5.485000
 11
5.475000
 20
4.422000
 21
4.424000
  0
LINE
 10
5.475000
 11
5.466000
 20
4.424000
 21
4.428000
  0
LINE
 10
5.466000
 11
5.457000
 20
4.428000
 21
4.433000
  0
LINE
 10
5.457000
 11
5.449000
 20
4.433000
 21
4.439000
  0
LINE
 10
5.449000
 11
5.442000
 20
4.439000
 21
4.446000
  0
LINE
 10
5.442000
 11
5.436000
 20
4.446000
 21
4.453000
  0
LINE
 10
5.436000
 11
5.430000
 20
4.453000
 21
4.462000
  0
LINE
 10
5.430000
 11
5.426000
 20
4.462000
 21
4.471000
  0
LINE
 10
5.426000
 11
5.423000
 20
4.471000
 21
4.480000
  0
LINE
 10
5.423000
 11
5.421000
 20
4.480000
 21
4.490000
  0
LINE
 10
5.421000
 11
5.420000
 20
4.490000
 21
4.500000
  0
ENDSEC
  0
EOF
